<svg width="1734" height="1119" viewBox="0 0 1734 1119" fill="none" xmlns="http://www.w3.org/2000/svg">
<path d="M627.468 477.774C628.388 445.657 649.969 420.75 659.532 408.732C669.094 396.713 653.6 387.559 659.532 361.323C668.634 321.073 715.937 343.678 715.937 278.881C715.937 258.73 720.744 254.435 720.744 254.435C720.744 254.435 685.254 176.391 749.637 150.513C749.637 150.513 755.365 117.372 813.867 102.541C872.369 87.7096 925.042 148.058 887.148 235.512L884.285 304.554C889.767 305.555 894.773 308.32 898.539 312.429C902.306 316.537 904.627 321.764 905.149 327.313C909.445 356.566 946.827 338.36 948.77 414.255L627.468 477.774Z" fill="#7F542D"/>
<path d="M763.394 375.131C734.347 384.132 711.539 382.496 711.539 356.515C711.539 332.171 741.66 319.181 736.751 279.801C731.841 240.421 739.461 221.396 752.808 204.264C766.155 187.131 785.383 128.828 832.737 139.159C880.091 149.49 887.148 235.256 887.148 235.256L862.142 315.09C862.142 315.09 892.825 357.64 883.825 373.136C874.824 388.633 763.394 375.131 763.394 375.131Z" fill="#704725"/>
<path d="M876.87 318.721C876.87 318.721 900.802 319.079 894.666 349.918C892.494 360.441 893.927 371.389 898.731 381C903.536 390.61 911.435 398.325 921.155 402.901" stroke="#A56F42" stroke-width="0.61" stroke-linecap="round" stroke-linejoin="round"/>
<path d="M749.637 172.606C723.045 203.803 733.324 234.898 733.324 234.898" stroke="#A56F42" stroke-width="0.61" stroke-linecap="round" stroke-linejoin="round"/>
<path d="M723.812 337.541C694.919 352.321 678.095 381.268 696.095 409.141C699.776 414.619 702.203 420.843 703.201 427.367C704.2 433.891 703.747 440.555 701.874 446.884" stroke="#A56F42" stroke-width="0.61" stroke-linecap="round" stroke-linejoin="round"/>
<path d="M749.637 150.513C749.637 150.513 771.013 156.701 777.15 169.947" stroke="#A56F42" stroke-width="0.61" stroke-linecap="round" stroke-linejoin="round"/>
<path d="M792.645 148.569C792.645 148.569 840.459 104.587 874.722 144.478" stroke="#A56F42" stroke-width="0.61" stroke-linecap="round" stroke-linejoin="round"/>
<path d="M900.496 289.007C901.518 344.446 863.523 358.459 845.215 359.584C803.23 361.067 764.365 313.555 751.376 295.553C750.916 291.82 750.404 288.035 749.791 284.148C724.835 289.263 714.608 277.807 711.795 260.214C708.982 242.621 730.46 222.215 758.28 244.871C784.36 226.869 787.991 201.911 782.519 179.715C788.671 170.874 797.486 164.23 807.679 160.753C817.872 157.275 828.909 157.145 839.181 160.383C868.33 168.873 888.631 208.713 896.66 252.133C898.485 262.037 899.681 272.047 900.24 282.103C900.342 284.404 900.444 286.706 900.496 289.007Z" fill="#FEBD9D"/>
<path d="M856.363 191.171C857.284 198.536 876.307 199.712 884.847 195.416C893.387 191.12 854.011 170.151 856.363 191.171Z" fill="#7F542D"/>
<path d="M797.452 206.974C795.969 213.52 814.634 204.929 821.436 204.417C828.237 203.906 831.663 200.939 828.39 192.603C825.118 184.267 800.571 192.91 797.452 206.974Z" fill="#7F542D"/>
<path d="M834.732 244.922C837.838 244.922 840.357 242.403 840.357 239.296C840.357 236.189 837.838 233.671 834.732 233.671C831.625 233.671 829.106 236.189 829.106 239.296C829.106 242.403 831.625 244.922 834.732 244.922Z" fill="#683F1D"/>
<path d="M874.466 230.756C877.573 230.756 880.091 228.237 880.091 225.13C880.091 222.023 877.573 219.504 874.466 219.504C871.359 219.504 868.841 222.023 868.841 225.13C868.841 228.237 871.359 230.756 874.466 230.756Z" fill="#683F1D"/>
<path d="M857.488 222.112C857.079 238.887 865.159 244.666 867.153 246.61C871.705 251.059 882.495 246.61 877.381 262.924" stroke="#EF8A66" stroke-width="0.61" stroke-linecap="round" stroke-linejoin="round"/>
<path d="M838.056 291.871C845.317 284.66 872.881 286.143 876 289.007C879.12 291.871 873.852 304.35 861.886 304.35C849.92 304.35 834.68 295.297 838.056 291.871Z" fill="white" stroke="#EF8A66" stroke-width="0.61" stroke-linecap="round" stroke-linejoin="round"/>
<path d="M727.494 262.055C733.836 252.747 747.029 255.866 752.297 260.52C735.267 257.708 733.682 276.681 752.808 271.669" stroke="#EF8A66" stroke-width="0.61" stroke-linecap="round" stroke-linejoin="round"/>
<path d="M839.897 279.239C837.186 287.166 823.021 289.467 808.14 284.353C793.258 279.239 783.44 269.01 786.099 260.981C788.758 252.951 802.975 250.752 817.805 255.867C832.635 260.981 842.556 271.312 839.897 279.239Z" fill="#F4AF90"/>
<path d="M900.035 282C893.029 283.33 887.2 282 884.694 278.165C880.449 271.874 885.717 260.674 896.66 252.082C898.414 261.974 899.541 271.967 900.035 282Z" fill="#F4AF90"/>
<path d="M734.552 289.007C734.542 291.433 735.254 293.807 736.598 295.827C737.941 297.847 739.856 299.422 742.097 300.35C744.338 301.278 746.805 301.519 749.184 301.04C751.562 300.562 753.744 299.386 755.452 297.664C757.16 295.941 758.317 293.749 758.776 291.366C759.234 288.984 758.973 286.519 758.026 284.285C757.079 282.051 755.488 280.15 753.457 278.823C751.426 277.497 749.046 276.805 746.62 276.835C743.414 276.875 740.353 278.174 738.095 280.451C735.837 282.727 734.565 285.8 734.552 289.007V289.007Z" fill="#C3DCF8"/>
<path d="M1227.32 461.818L1167.69 539.043C1167.69 539.043 1087.92 859.861 1047.77 886.813C1035.07 895.2 1020.5 900.345 1005.34 901.798C990.188 903.252 974.908 900.969 960.839 895.149C960.862 894.962 960.862 894.773 960.839 894.586C960.839 893.819 925.042 864.617 932.099 820.481C932.713 816.389 1012.39 678.662 1046.55 618.007C1073.85 569.115 1107.04 513.267 1107.04 513.267L1227.32 461.818Z" fill="#FEBD9D"/>
<path d="M1107.09 513.37C1107.09 513.37 1111.75 440.901 1113.38 432.769C1115.02 424.637 1163.96 377.535 1170.92 373.801C1177.87 370.068 1221.24 382.905 1224.76 386.843C1228.29 390.781 1224.3 400.14 1212.64 399.424C1200.98 398.708 1211.01 426.939 1211.01 426.939C1211.01 426.939 1229.88 446.884 1227.07 461.818C1227.07 461.818 1153.94 535.514 1153.02 535.259C1152.1 535.003 1107.09 513.37 1107.09 513.37Z" fill="#FEBD9D"/>
<path d="M1107.09 513.37C1107.09 513.37 1111.75 440.901 1113.38 432.769C1115.02 424.637 1163.96 377.535 1170.92 373.801C1177.87 370.068 1221.24 382.905 1224.76 386.843C1228.29 390.781 1224.3 400.14 1212.64 399.424C1200.98 398.708 1211.01 426.939 1211.01 426.939C1211.01 426.939 1229.88 446.884 1227.07 461.818C1227.07 461.818 1153.94 535.514 1153.02 535.259C1152.1 535.003 1107.09 513.37 1107.09 513.37Z" fill="#FEBD9D"/>
<path d="M1113.38 432.769C1114.82 424.484 1163.96 377.535 1171.07 373.801C1178.18 370.068 1221.39 382.905 1224.92 386.843C1228.45 390.781 1224.46 400.14 1212.8 399.424" stroke="#EF8A66" stroke-width="0.61" stroke-linecap="round" stroke-linejoin="round"/>
<path d="M1183.29 402.953C1183.96 401.316 1211.26 392.213 1215.92 393.849C1220.57 395.486 1242.92 432.769 1243.63 440.184C1244.35 447.6 1233.71 480.383 1224.05 477.467C1214.38 474.552 1224.46 446.782 1224.46 446.782L1183.29 402.953Z" fill="#FEBD9D" stroke="#EF8A66" stroke-width="0.61" stroke-linecap="round" stroke-linejoin="round"/>
<path d="M1202.16 467.495C1210.04 472.609 1219.24 460.642 1224.46 447.038L1206.87 432.513C1206.87 432.513 1190.5 459.772 1202.16 467.495Z" fill="#FEBD9D" stroke="#EF8A66" stroke-width="0.61" stroke-linecap="round" stroke-linejoin="round"/>
<path d="M1228.65 436.298L1234.38 450.618C1234.55 451.04 1234.6 451.501 1234.52 451.95C1234.45 452.399 1234.26 452.819 1233.96 453.166C1233.67 453.513 1233.28 453.773 1232.85 453.919C1232.42 454.065 1231.96 454.09 1231.51 453.993L1216.43 450.822L1090.53 344.701C1089.57 343.899 1088.79 342.918 1088.22 341.813C1087.65 340.708 1087.3 339.5 1087.19 338.261C1087.09 337.021 1087.23 335.772 1087.61 334.587C1087.99 333.402 1088.6 332.303 1089.4 331.353V331.353C1091.02 329.42 1093.34 328.211 1095.86 327.99C1098.37 327.77 1100.87 328.556 1102.8 330.177L1228.65 436.298Z" fill="#683F1D"/>
<path d="M1147.19 429.854C1161.35 409.397 1176.9 393.338 1184.47 391.497C1195.87 388.735 1198.43 402.237 1171.63 441.361C1175.98 452.523 1176.66 464.782 1173.56 476.354C1170.46 487.926 1163.75 498.207 1154.4 505.698" fill="#FEBD9D"/>
<path d="M1147.19 429.854C1161.35 409.397 1176.9 393.338 1184.47 391.497C1195.87 388.735 1198.43 402.237 1171.63 441.361C1175.98 452.523 1176.66 464.782 1173.56 476.354C1170.46 487.926 1163.75 498.207 1154.4 505.698" stroke="#EF8A66" stroke-width="0.61" stroke-linecap="round" stroke-linejoin="round"/>
<path d="M1032.28 669.968C1031.41 674.059 1025.02 685.822 1024.1 689.862C1005.48 768.929 974.39 845.387 960.89 894.944C957.101 909.321 954.046 923.881 951.736 938.569C944.935 979.994 942.787 1018.97 942.787 1018.97L636.519 1013.24L599.444 1012.57L600.876 855.922L601.183 822.987C601.183 822.987 513.634 816.952 512.969 818.742C512.304 820.532 517.213 770.872 517.213 770.872C488.525 737.936 486.53 689.709 493.843 660.66C498.599 641.226 518.083 589.06 538.078 545.129C546.07 526.737 555.438 508.974 566.102 491.992C591.262 454.76 607.012 451.947 639.843 445.196C672.674 438.445 728.824 408.885 728.824 408.885L835.09 396.969C835.09 396.969 890.728 400.856 940.332 398.759C987.482 396.764 1013.97 407.402 1034.68 450.822C1035.76 453.072 1036.88 455.476 1037.96 457.982C1053.3 493.782 1067 544.566 1073.75 570.854C1052.48 621.689 1032.28 669.968 1032.28 669.968Z" fill="#007FFF"/>
<path d="M1034.68 450.566C991.215 445.861 964.061 481.917 932.15 550.243C894.052 631.611 810.952 642.811 731.381 579.037C661.27 522.78 609.876 509.534 538.078 544.873C546.07 526.482 555.438 508.719 566.102 491.736C591.262 454.504 607.012 451.691 639.843 444.941C672.674 438.19 728.824 408.629 728.824 408.629L835.09 396.713C835.09 396.713 890.728 400.6 940.332 398.503C987.482 396.509 1013.97 407.146 1034.68 450.566Z" fill="#000080"/>
<path d="M645.315 800.331L673.748 618.825C681.674 630.997 703.51 647.874 696.453 682.191C678.504 768.878 738.387 700.244 761.706 741.926C771.371 759.11 689.55 787.596 645.315 800.331Z" fill="#007FFF"/>
<path d="M749.126 396.15C740.893 392.57 728.671 404.333 728.671 408.629C728.671 412.925 740.739 450.464 756.848 468.108C772.956 485.752 802.31 489.486 813.458 448.265C843.221 479.257 872.318 467.597 868.278 429.905C864.238 392.212 837.595 384.95 837.595 384.95L749.126 396.15Z" fill="white"/>
<path d="M642.758 816.696L645.315 800.331L673.748 618.672L682.646 561.904" stroke="#050024" stroke-width="0.61" stroke-linecap="round" stroke-linejoin="round"/>
<path d="M517.213 770.617C560.706 756.644 606.651 751.974 652.065 756.91" stroke="#050024" stroke-width="0.61" stroke-linecap="round" stroke-linejoin="round"/>
<path d="M829.925 508.92C836.223 508.92 841.329 503.814 841.329 497.515C841.329 491.216 836.223 486.11 829.925 486.11C823.626 486.11 818.521 491.216 818.521 497.515C818.521 503.814 823.626 508.92 829.925 508.92Z" fill="white"/>
<path d="M841.38 556.79C847.678 556.79 852.784 551.683 852.784 545.385C852.784 539.086 847.678 533.98 841.38 533.98C835.081 533.98 829.976 539.086 829.976 545.385C829.976 551.683 835.081 556.79 841.38 556.79Z" fill="white"/>
<path d="M542.067 930.795C493.945 914.225 508.776 840.375 514.35 801.762L568.096 788.772L650.429 768.929C650.429 768.929 664.39 950.076 542.067 930.795Z" fill="#FEBD9D"/>
<path d="M845.215 359.635C845.215 360.658 844.499 379.734 843.988 393.44C843.988 399.475 843.527 404.487 843.425 406.379C843.118 412.721 829.669 439.11 801.543 431.95C773.417 424.79 749.791 400.6 749.075 396.151C748.359 391.701 761.246 355.236 754.189 299.696C778.94 271.056 850.84 289.007 845.215 359.635Z" fill="#FEBD9D"/>
<path d="M845.215 359.584C845.215 359.584 844.499 379.325 843.937 393.44C824.606 390.781 787.684 379.325 789.986 329.819C798.117 341.939 825.936 360.453 845.215 359.584Z" fill="#F4A789"/>
<path d="M1080.04 645.726C1079.73 645.705 1079.43 645.617 1079.15 645.467C1078.88 645.316 1078.64 645.108 1078.46 644.857L985.027 512.142C984.857 511.899 984.737 511.625 984.676 511.335C984.614 511.045 984.612 510.745 984.669 510.454C984.739 510.174 984.866 509.911 985.042 509.683C985.218 509.454 985.439 509.264 985.692 509.125C991.592 505.368 998.348 503.168 1005.33 502.732C1020.67 502.732 1036.01 516.847 1058.46 551.471C1100.29 615.706 1086.84 639.334 1081.73 645.01C1081.53 645.236 1081.29 645.417 1081.01 645.541C1080.74 645.664 1080.44 645.727 1080.14 645.726H1080.04Z" fill="#F9F9F9"/>
<path d="M1005.33 504.777C1018.57 504.777 1033 516.233 1056.47 552.647C1091.24 606.091 1088.89 633.606 1079.89 643.629L986.971 510.914C992.546 507.306 998.956 505.192 1005.58 504.777H1005.33ZM1005.58 500.635C998.315 501.089 991.278 503.376 985.13 507.283C984.627 507.581 984.19 507.978 983.847 508.45C983.503 508.922 983.259 509.459 983.129 510.029C983 510.599 982.988 511.189 983.095 511.763C983.201 512.337 983.424 512.884 983.749 513.369L1077.18 646.033C1077.55 646.549 1078.03 646.977 1078.59 647.287C1079.15 647.596 1079.77 647.779 1080.4 647.823V647.823C1080.99 647.828 1081.57 647.707 1082.11 647.469C1082.65 647.231 1083.13 646.881 1083.52 646.442C1088.63 640.459 1103.11 615.757 1060.46 550.345C1037.44 515.006 1021.54 500.635 1005.58 500.635V500.635Z" fill="#DDDDDD"/>
<path d="M1118.45 669.968C1118.05 669.969 1117.66 669.863 1117.32 669.661L1079.02 645.419C1078.76 645.229 1078.54 644.984 1078.38 644.702C1078.22 644.419 1078.13 644.106 1078.1 643.783C1078.08 643.47 1078.12 643.156 1078.24 642.863C1078.35 642.571 1078.53 642.309 1078.76 642.095C1082.94 638.258 1088.43 636.171 1094.11 636.265C1098.37 636.415 1102.55 637.452 1106.39 639.31C1110.23 641.168 1113.64 643.806 1116.4 647.056C1127.04 658.819 1120.54 669.047 1120.44 669.15C1120.21 669.454 1119.91 669.691 1119.56 669.835C1119.21 669.979 1118.82 670.025 1118.45 669.968V669.968Z" fill="#F9F9F9"/>
<path d="M1093.85 638.362C1097.83 638.537 1101.73 639.537 1105.3 641.298C1108.88 643.058 1112.05 645.542 1114.61 648.59C1124.28 659.279 1118.45 668.127 1118.45 668.127L1080.14 643.732C1083.93 640.396 1088.81 638.575 1093.85 638.618V638.362ZM1093.85 634.424C1087.76 634.404 1081.89 636.667 1077.38 640.766C1076.9 641.199 1076.52 641.738 1076.28 642.342C1076.04 642.945 1075.95 643.596 1076 644.243C1076.06 644.88 1076.26 645.496 1076.59 646.045C1076.91 646.594 1077.36 647.062 1077.89 647.414L1116.2 671.809C1116.88 672.221 1117.65 672.451 1118.45 672.474C1119.14 672.479 1119.82 672.308 1120.43 671.977C1121.04 671.646 1121.55 671.166 1121.92 670.582C1122.28 670.07 1129.39 658.87 1117.73 645.931C1114.79 642.409 1111.15 639.542 1107.04 637.516C1102.92 635.49 1098.43 634.349 1093.85 634.168V634.424Z" fill="#DDDDDD"/>
<path d="M784.104 622.354L995.408 497.515C995.408 497.515 1065.72 571.212 1080.14 643.63L855.903 759.979C855.903 759.979 831.152 680.197 784.104 622.354Z" fill="#F9F9F9" stroke="#DDDDDD" stroke-width="0.82" stroke-linecap="round" stroke-linejoin="round"/>
<path d="M866.489 754.507L920.491 770.616L1118.35 668.024C1107.81 656.821 1094.65 648.434 1080.04 643.629L866.489 754.507Z" fill="#DDDDDD" stroke="#DDDDDD" stroke-width="0.82" stroke-miterlimit="10"/>
<path d="M966.004 687.561C963.958 697.074 944.781 699.324 933.019 698.557C921.258 697.789 881.881 700.091 881.881 700.091C881.881 700.091 903.564 711.803 905.865 714.002C912.917 724.484 918.396 735.942 922.127 748.012C927.803 765.502 923.559 775.987 917.831 774.708C912.104 773.429 910.109 764.479 910.109 764.479C908.115 776.191 900.853 766.474 900.853 766.474C900.853 770.207 882.904 802.274 875.642 795.676C868.381 789.079 878.557 772.969 878.557 772.969H871.142C857.518 784.3 843.15 794.705 828.135 804.115C814.362 812.129 799.284 817.651 783.593 820.429C783.593 820.429 748.921 844.978 705.249 871.163C651.349 903.587 583.642 938.569 550.862 933.148C542.316 932.086 534.238 928.648 527.548 923.223C520.859 917.799 515.825 910.606 513.02 902.462V902.462C513.042 902.207 513.042 901.95 513.02 901.695C513.02 901.081 512.457 900.161 512.099 898.984C506.986 882.159 496.042 809.945 650.173 769.031L651.145 768.775L761.45 741.568C784.462 718.093 835.652 672.423 844.09 669.968C852.528 667.513 967.998 678.048 966.004 687.561Z" fill="#FEBD9D"/>
<path d="M878.762 772.765C878.762 772.765 868.534 788.977 875.847 795.472C883.159 801.967 901.058 769.901 901.058 766.269C901.058 766.269 908.32 775.987 910.314 764.275C910.314 764.275 912.308 773.481 918.036 774.759C923.763 776.038 928.008 765.502 922.28 748.011C918.61 735.943 913.145 724.495 906.069 714.053C903.819 711.803 882.086 700.091 882.086 700.091C882.086 700.091 921.258 697.841 933.224 698.557C945.19 699.273 964.214 697.074 966.208 687.561C968.203 678.048 852.834 667.615 844.345 670.121C840.101 671.349 825.169 683.418 808.549 698.096" stroke="#EF8A66" stroke-width="0.61" stroke-linecap="round" stroke-linejoin="round"/>
<path d="M882.086 700.091L862.448 692.317" stroke="#EF8A66" stroke-width="0.61" stroke-linecap="round" stroke-linejoin="round"/>
<path d="M867.562 718.4C867.562 718.4 898.91 731.85 901.058 736.453C905.551 745.198 908.673 754.581 910.314 764.275" stroke="#EF8A66" stroke-width="0.61" stroke-linecap="round" stroke-linejoin="round"/>
<path d="M871.091 741.568C871.091 741.568 894.359 755.939 897.171 758.752C899.086 760.984 900.421 763.654 901.058 766.525" stroke="#EF8A66" stroke-width="0.61" stroke-linecap="round" stroke-linejoin="round"/>
</svg>
