<svg width="1440" height="929" viewBox="0 0 1440 929" fill="none" xmlns="http://www.w3.org/2000/svg">
<g clip-path="url(#clip0_11_4157)">
<path d="M932.084 830.198C951.534 839.921 976.76 821.706 1004.75 796.995L974.382 769.821C974.382 769.821 926.861 814.148 932.084 830.198Z" fill="#7BBDFF"/>
<path d="M1191.39 713.267L1121.15 856.31H973.533L948.901 787.612L1032.48 713.267H1191.39Z" fill="#FEBD9D"/>
<path d="M1076.94 713.309C1059.7 740.312 1031.25 784.682 1007.8 821.366" stroke="#EF8A66" stroke-width="0.75" stroke-linecap="round" stroke-linejoin="round"/>
<path d="M1050.65 724.433C1000.58 753.05 932.084 830.198 932.084 830.198L913.738 866.713L903.036 887.942H539.724C531.23 857.329 523.926 817.503 518.49 785.192C514.243 760.141 511.525 739.676 510.421 731.693C510.081 729.358 509.954 728.042 509.954 728.042C500.696 736.237 496.194 736.534 496.194 736.534L479.207 781.413L477.636 785.659C417.331 745.323 307 738.147 307 738.147L321.821 688.088C317.372 677.812 316.129 666.432 318.254 655.437C320.675 642.7 353.885 584.786 387.349 536.086C400.63 516.254 415.364 497.436 431.431 479.785C432.747 478.426 434.106 477.153 435.678 475.879C476.065 438.77 542.994 444.12 586.948 448.153C593.488 448.705 599.688 449.172 605.507 449.427C618.493 450.089 631.505 450.089 644.492 449.427C655.151 448.875 661.055 448.068 661.055 448.068C662.371 441.869 663.688 435.331 664.919 428.155C672.903 381.748 677.362 319.758 670.27 279.04L782.003 328.929C783.956 349.267 791.431 393.763 796.569 423.102C799.415 439.449 801.538 451.125 801.538 451.125C810.499 449.469 819.035 447.983 827.019 446.582C940.451 427.348 969.711 434.609 1001.14 489.89C1001.94 491.376 1002.79 492.905 1003.6 494.476C1023.01 532.689 1036.17 609.115 1043.56 663.122C1048.28 698.533 1050.65 724.433 1050.65 724.433Z" fill="#7BBDFF"/>
<path d="M1050.65 724.433C1001.52 752.498 934.633 827.311 932.127 830.113C933.061 828.245 947.67 798.014 948.902 787.654C950.133 777.294 945.249 746.682 937.181 717.81L1043.35 663.25C1048.28 698.533 1050.65 724.433 1050.65 724.433Z" fill="#7BBDFF"/>
<path d="M672.606 740.992C671.756 781.668 576.458 787.399 518.66 785.149C514.413 760.098 511.695 739.633 510.591 731.651C510.251 729.316 510.124 728 510.124 728C531.143 706.678 548.517 682.05 561.552 655.098C595.526 678.323 551.954 702.142 550.298 713.266C545.797 743.922 673.752 682.738 672.606 740.992Z" fill="#7BBDFF"/>
<path d="M1003.56 494.561C970.433 483.097 933.231 483.437 907.496 524.622C849.442 617.267 740.469 689.532 631.454 580.158C616.561 564.81 600.236 550.92 582.701 538.676C518.278 494.561 463.791 503.52 387.604 536.17C400.8 516.319 415.449 497.472 431.431 479.785C432.747 478.426 434.106 477.153 435.678 475.879C476.065 438.77 542.994 444.12 586.948 448.153C593.488 448.705 599.689 449.172 605.507 449.427C618.493 450.089 631.505 450.089 644.492 449.427C655.151 448.875 661.055 448.068 661.055 448.068C662.371 441.869 663.688 435.331 664.919 428.155C672.903 381.748 677.362 319.758 670.27 279.04L782.003 328.929C783.957 349.267 791.431 393.763 796.57 423.102C799.415 439.449 801.538 451.125 801.538 451.125C810.499 449.469 819.035 447.983 827.019 446.582C940.451 427.348 969.711 434.609 1001.14 489.89C1001.9 491.461 1002.75 492.99 1003.56 494.561Z" fill="#000080"/>
<path d="M826.934 446.667C826.594 475.412 823.494 527.679 811.008 564.703C794.87 612.681 775.845 593.193 754.951 574.214C736.01 557.018 667.127 499.656 605.294 449.427C618.281 450.089 631.293 450.089 644.279 449.427C654.939 448.875 660.842 448.068 660.842 448.068C662.158 441.869 663.475 435.331 664.706 428.155C709.637 425.183 763.444 422.338 796.357 423.102C799.202 439.449 801.326 451.125 801.326 451.125C810.286 449.554 818.822 448.068 826.934 446.667Z" fill="#7BBDFF"/>
<path d="M782.98 556.211C782.98 556.211 687.342 491.206 644.28 449.342C654.939 448.79 660.842 447.983 660.842 447.983C671.077 400.981 678.212 325.872 670.058 278.955L742.678 311.393L781.791 328.844C783.235 343.874 787.736 372.279 791.983 397.882C796.782 426.117 801.326 451.04 801.326 451.04C804.808 533.538 782.98 556.211 782.98 556.211Z" fill="#FEBD9D"/>
<path d="M932.084 830.198C933.019 828.33 947.628 798.099 948.859 787.739C950.091 777.379 945.207 746.766 937.138 717.894L935.864 713.394" stroke="#7BBDFF" stroke-width="0.75" stroke-linecap="round" stroke-linejoin="round"/>
<path d="M791.983 398.052C716.687 402.595 725.181 321.626 725.69 319.503L742.678 311.563L781.79 329.014C783.234 343.917 787.736 372.449 791.983 398.052Z" fill="#F4A789"/>
<path d="M307.297 738.232C305.174 744.474 305.174 751.267 352.526 764.599L359.873 733.434C359.873 733.434 316.768 721.801 307.297 738.232Z" fill="#7BBDFF"/>
<path d="M333.245 721.801C322.119 758.103 283.303 879.535 283.303 879.535C272.771 924.032 404.846 953.159 451.9 877.497L477.763 755.768C435.038 727.916 383.907 715.898 333.245 721.801Z" fill="#FEBD9D"/>
<path d="M550.426 675.648L550.001 676.412C544.395 685.371 538.195 694.5 531.4 703.925C531.232 704.113 531.075 704.312 530.933 704.52C524.574 712.839 517.619 720.686 510.124 728C500.866 736.194 496.364 736.491 496.364 736.491L477.933 785.574C476.065 784.3 474.111 783.111 472.115 781.88C438.523 761.542 392.233 750.333 357.452 744.389C346.028 742.436 335.836 741.035 327.724 740.143C315.239 738.657 307.51 738.147 307.51 738.147L322.331 688.088C317.882 677.812 316.638 666.432 318.764 655.437C321.184 642.7 354.394 584.786 387.859 536.086C400.976 516.272 415.54 497.454 431.431 479.785C432.747 478.426 434.106 477.153 435.678 475.879C492.924 449.13 567.328 455.711 581.979 532.901C582.319 534.812 582.701 536.765 582.956 538.676C591.153 589.923 578.455 630.726 550.426 675.648Z" fill="white"/>
<path d="M582.744 538.676C518.32 494.561 463.834 503.52 387.646 536.171C400.828 516.32 415.463 497.473 431.431 479.785C432.747 478.426 434.106 477.153 435.678 475.879C492.924 449.13 567.328 455.711 581.979 532.901C582.107 534.982 582.489 536.765 582.744 538.676Z" fill="#000080"/>
<path d="M345.603 698.661C385.48 698.661 424.508 714.965 431.091 718.107" stroke="#000080" stroke-width="0.75" stroke-linecap="round" stroke-linejoin="round"/>
<path d="M510.124 728C517.619 720.686 524.573 712.839 530.933 704.52C531.075 704.312 531.231 704.113 531.4 703.925C538.104 695.105 544.314 685.92 550.001 676.412L550.426 675.648C554.97 668.048 558.664 661.042 561.552 655.098C563.845 650.512 565.799 646.606 566.733 643.761" stroke="#7BBDFF" stroke-width="0.75" stroke-linecap="round" stroke-linejoin="round"/>
<path d="M855.302 692.589C856.874 712.629 845.025 717.767 845.025 717.767C846.639 766.595 832.285 789.947 808.418 796.146C784.551 802.345 722.93 815.465 722.93 815.465C716.525 818.048 710.346 821.158 704.456 824.763L678.976 839.624C648.356 857.584 600.07 874.27 542.696 904.543C441.028 958.126 368.578 929.085 363.694 872.19C354.946 768.166 487.191 761.372 535.477 753.305C570.428 747.403 624.659 733.562 658.209 725.792C667.06 723.547 676.018 721.747 685.049 720.399C701.229 718.998 734.694 701.335 793.427 682.823C852.16 664.311 899.596 653.654 899.596 666.646C899.596 679.639 855.302 692.589 855.302 692.589Z" fill="#FEBD9D"/>
<path d="M793.469 682.738C852.117 664.184 899.639 653.569 899.639 666.561C899.639 679.554 855.133 692.589 855.133 692.589C856.704 712.629 844.855 717.767 844.855 717.767C846.469 766.594 832.115 789.947 808.248 796.146" stroke="#EF8A66" stroke-width="0.75" stroke-linecap="round" stroke-linejoin="round"/>
<path d="M388.368 801.539C413.849 776.912 454.661 766.255 489.144 760.226" stroke="#EF8A66" stroke-width="0.75" stroke-linecap="round" stroke-linejoin="round"/>
<path d="M704.457 824.763L678.976 839.624C655.364 813.299 643.091 772.454 658.209 725.707C667.06 723.462 676.018 721.662 685.049 720.314C674.05 750.29 672.054 799.118 704.457 824.763Z" fill="#683F1D"/>
<path d="M855.303 692.589L819.035 704.308" stroke="#EF8A66" stroke-width="0.75" stroke-linecap="round" stroke-linejoin="round"/>
<path d="M845.025 717.767L822.729 725.877" stroke="#EF8A66" stroke-width="0.75" stroke-linecap="round" stroke-linejoin="round"/>
<path d="M825.15 749.356L844.134 744.176" stroke="#EF8A66" stroke-width="0.75" stroke-linecap="round" stroke-linejoin="round"/>
<path d="M695.921 780.691C695.921 786.762 694.12 792.697 690.746 797.746C687.372 802.794 682.577 806.729 676.966 809.052C671.356 811.375 665.182 811.983 659.226 810.799C653.27 809.614 647.799 806.691 643.505 802.397C639.211 798.104 636.287 792.635 635.102 786.68C633.917 780.725 634.526 774.553 636.849 768.943C639.173 763.334 643.109 758.54 648.158 755.167C653.207 751.794 659.144 749.993 665.216 749.993C673.36 749.993 681.17 753.227 686.928 758.984C692.686 764.741 695.921 772.549 695.921 780.691V780.691Z" fill="white" stroke="#683F1D" stroke-linecap="round" stroke-linejoin="round"/>
<path d="M901.847 737.638C916.371 722.225 940.62 720.315 940.62 720.315L968.649 749.357C968.649 749.357 976.676 663.717 940.62 546.191C933.741 603.553 912.676 695.901 901.847 737.638Z" fill="#DDDDDD" stroke="#DDDDDD" stroke-linecap="round" stroke-linejoin="round"/>
<path d="M1178.82 528.783C1219.38 657.433 1217.43 749.569 1217.43 749.569H968.649C968.649 749.569 935.184 621.895 940.62 546.403C940.62 546.403 935.906 528.613 951.492 527.084C967.078 525.556 1178.82 528.783 1178.82 528.783Z" fill="#F9F9F9" stroke="#DDDDDD" stroke-linecap="round" stroke-linejoin="round"/>
<path d="M979.521 527.552C979.5 527.184 979.5 526.816 979.521 526.448C979.89 523.025 981.242 519.782 983.414 517.11C985.586 514.438 988.486 512.453 991.762 511.392C995.038 510.332 998.552 510.243 1001.88 511.135C1005.2 512.028 1008.2 513.864 1010.51 516.421C1012.81 518.979 1014.33 522.149 1014.87 525.549C1015.41 528.949 1014.96 532.433 1013.56 535.581C1012.17 538.729 1009.89 541.406 1007.01 543.289C1004.13 545.172 1000.76 546.18 997.315 546.191" stroke="#EDEDED" stroke-linecap="round" stroke-linejoin="round"/>
<path d="M1105.86 527.552C1106.31 524.148 1107.73 520.946 1109.95 518.327C1112.17 515.709 1115.1 513.785 1118.38 512.786C1121.67 511.787 1125.17 511.754 1128.47 512.692C1131.78 513.63 1134.74 515.499 1137.01 518.076C1139.28 520.653 1140.76 523.828 1141.27 527.223C1141.78 530.617 1141.3 534.087 1139.89 537.218C1138.49 540.349 1136.21 543.008 1133.33 544.878C1130.45 546.748 1127.09 547.749 1123.66 547.762C1120.68 547.77 1117.75 546.993 1115.16 545.512" stroke="#EDEDED" stroke-linecap="round" stroke-linejoin="round"/>
<path d="M1030.27 526.787C1030.44 522.127 1032.36 517.702 1035.64 514.385C1038.92 511.068 1043.32 509.1 1047.98 508.87C1052.85 509.423 1057.35 511.75 1060.62 515.407C1063.88 519.064 1065.69 523.795 1065.69 528.698C1065.69 533.601 1063.88 538.332 1060.62 541.989C1057.35 545.646 1052.85 547.973 1047.98 548.526C1043.97 548.47 1040.13 546.961 1037.15 544.28" stroke="#EDEDED" stroke-linecap="round" stroke-linejoin="round"/>
<path d="M1068.15 527.212C1068.59 523.812 1070 520.611 1072.22 517.993C1074.43 515.375 1077.35 513.45 1080.63 512.449C1083.91 511.448 1087.41 511.413 1090.71 512.349C1094.01 513.285 1096.97 515.152 1099.23 517.726C1101.5 520.3 1102.97 523.472 1103.48 526.862C1103.99 530.253 1103.51 533.718 1102.1 536.842C1100.69 539.967 1098.4 542.619 1095.52 544.48C1092.64 546.341 1089.29 547.333 1085.86 547.337" stroke="#EDEDED" stroke-linecap="round" stroke-linejoin="round"/>
<path d="M1165.49 570.18H991.2V590.093H1165.49V570.18Z" stroke="#DDDDDD" stroke-linecap="round" stroke-linejoin="round"/>
<path d="M1034.39 727.66L1032.18 710.889L1020.93 624.527L1019.1 610.346" stroke="#EDEDED" stroke-linecap="round" stroke-linejoin="round"/>
<path d="M1090.96 727.66L1088.58 709.657L1077.66 625.674L1075.67 610.346" stroke="#EDEDED" stroke-linecap="round" stroke-linejoin="round"/>
<path d="M1132.24 610.346L1147.52 727.66" stroke="#EDEDED" stroke-linecap="round" stroke-linejoin="round"/>
<path d="M1167.36 633.784H1078.73H1022.16H997.315" stroke="#EDEDED" stroke-linecap="round" stroke-linejoin="round"/>
<path d="M1175.98 685.074H1085.39H1028.83H1005.94" stroke="#EDEDED" stroke-linecap="round" stroke-linejoin="round"/>
<path d="M1038.3 614.38C1010.18 628.731 996.635 688.598 1044.33 692.589C1114.61 698.448 1117.97 611.917 1056.39 620.027" fill="#F9F9F9"/>
<path d="M1038.3 614.38C1010.18 628.731 996.635 688.598 1044.33 692.589C1114.61 698.448 1117.97 611.917 1056.39 620.027" stroke="#DDDDDD" stroke-width="2" stroke-linecap="round" stroke-linejoin="round"/>
<path d="M1085.39 685.074H1028.83L1022.16 633.784H1078.73L1085.39 685.074Z" fill="#EDEDED"/>
<path d="M1186.98 677.304C1188.17 696.835 1225.2 675.351 1222.69 658.283C1220.19 641.214 1185.62 654.758 1186.98 677.304Z" fill="#FEBD9D" stroke="#EF8A66" stroke-width="0.75" stroke-linecap="round" stroke-linejoin="round"/>
<path d="M1180.61 651.107C1181.96 670.595 1223.67 649.154 1220.91 632.085C1218.15 615.017 1179.16 628.391 1180.61 651.107Z" fill="#FEBD9D" stroke="#EF8A66" stroke-width="0.75" stroke-linecap="round" stroke-linejoin="round"/>
<path d="M1177.8 631.491C1179.25 651.022 1223.97 629.58 1221.04 612.469C1218.11 595.358 1176.1 608.945 1177.8 631.491Z" fill="#FEBD9D" stroke="#EF8A66" stroke-width="0.75" stroke-linecap="round" stroke-linejoin="round"/>
<path d="M1171.48 607.374C1173 625.037 1219.12 605.591 1216.11 590.094C1213.09 574.596 1169.78 586.909 1171.48 607.374Z" fill="#FEBD9D" stroke="#EF8A66" stroke-width="0.75" stroke-linecap="round" stroke-linejoin="round"/>
<path d="M1038.3 614.38C1010.18 628.731 996.635 688.598 1044.33 692.589C1114.61 698.448 1117.97 611.917 1056.39 620.027" stroke="#DDDDDD" stroke-width="2" stroke-linecap="round" stroke-linejoin="round"/>
<path d="M870.591 160.07C866.938 190.768 825.83 208.77 825.83 208.77L711.761 308.167C700.082 326.848 668.231 336.189 648.866 320.649C637.57 311.563 630.477 293.9 634.342 264.604C631.152 264.603 628.034 263.658 625.381 261.886C612.301 253.777 604.147 227.919 623.852 197.222C622.451 198.58 596.248 224.098 569.239 216.413C564.625 215.163 560.329 212.945 556.639 209.907C552.949 206.869 549.947 203.08 547.835 198.792C539.341 181.384 542.314 152.47 566.521 112.771C583.763 84.4508 607.757 79.3557 628.354 84.6206C651.584 90.5648 670.44 109.714 670.44 123.598C675.523 117.298 681.421 111.701 687.979 106.954C697.067 100.67 708.321 96.3392 718.386 102.453C718.386 102.453 753.762 83.4318 773.934 95.3202C798.99 110.096 793.469 120.413 817.846 122.027C835.937 123.173 864.348 127.759 869.784 148.309C870.819 152.139 871.093 156.135 870.591 160.07Z" fill="#DD6819"/>
<path d="M670.227 123.598L623.937 197.137C620.637 200.235 617.101 203.075 613.363 205.628C603.043 212.974 586.056 221.253 569.069 216.54C564.474 215.255 560.205 213.008 556.544 209.948C552.883 206.888 549.915 203.086 547.835 198.792C600.58 197.646 619.096 182.913 608.267 153.913C598.202 126.91 587.797 93.0275 628.354 84.6206C644.133 88.6383 657.832 98.4253 666.745 112.049C668.885 115.533 670.085 119.512 670.227 123.598Z" fill="#CC5E0D"/>
<path d="M870.591 160.07C866.938 190.768 825.83 208.77 825.83 208.77L711.761 308.166C700.082 326.848 668.231 336.189 648.866 320.649C642.169 304.593 640.525 286.878 644.151 269.865C647.778 252.851 656.503 237.345 669.166 225.414C692.565 204.185 675.408 188.347 677.659 160.367C679.91 132.387 731.041 89.4607 767.691 128.056C796.357 158.329 850.376 121.687 869.996 148.309C870.96 152.153 871.162 156.148 870.591 160.07V160.07Z" fill="#CC5E0D"/>
<path d="M800.604 363.193C749.388 357.971 697.407 304.855 697.407 304.855C677.829 327.061 639.353 293.858 658.421 266.175C670.907 247.96 690.442 258.745 695.156 268.722C703.094 263.619 708.916 255.816 711.547 246.755C714.178 237.694 713.439 227.987 709.468 219.428C705.304 208.908 703.506 197.602 704.202 186.31C721.529 159.943 767.479 153.914 767.479 153.914C774.266 161.067 782.52 166.669 791.676 170.333C800.831 173.997 810.672 175.638 820.521 175.143C820.521 175.143 836.277 205.926 849.102 237.175L849.994 239.341C853.604 248.257 856.959 257.131 859.592 265.326C859.804 266.132 860.059 266.854 860.271 267.618C862.42 274.046 863.983 280.653 864.943 287.362C869.104 321.074 851.778 368.501 800.604 363.193Z" fill="#FEBD9D"/>
<path d="M821.838 223.206C821.829 224.308 822.148 225.388 822.754 226.308C823.361 227.228 824.226 227.948 825.242 228.375C826.258 228.803 827.378 228.919 828.46 228.709C829.542 228.499 830.537 227.973 831.319 227.197C832.102 226.421 832.636 225.43 832.854 224.349C833.072 223.269 832.964 222.149 832.545 221.13C832.125 220.111 831.412 219.24 830.496 218.627C829.58 218.014 828.503 217.687 827.401 217.687C825.933 217.686 824.524 218.267 823.482 219.301C822.44 220.335 821.849 221.738 821.838 223.206V223.206Z" fill="#683F1D"/>
<path d="M793.469 234.246C796.518 234.246 798.99 231.775 798.99 228.726C798.99 225.678 796.518 223.207 793.469 223.207C790.42 223.207 787.948 225.678 787.948 228.726C787.948 231.775 790.42 234.246 793.469 234.246Z" fill="#683F1D"/>
<path d="M786.972 266.09C798.037 271.64 810.314 274.34 822.687 273.945C822.687 273.945 820.309 294.622 802.515 289.145C787.057 284.475 786.972 266.09 786.972 266.09Z" fill="white" stroke="#EF8A66" stroke-width="0.75" stroke-linecap="round" stroke-linejoin="round"/>
<path d="M769.432 212.507C771.513 219.342 796.994 212.507 794.233 201.467C791.473 190.428 766.544 202.868 769.432 212.507Z" fill="#DD6819"/>
<path d="M812.834 198.92C812.41 206.308 838.315 206.775 838.315 200.448C838.315 194.122 813.514 186.819 812.834 198.92Z" fill="#DD6819"/>
<path d="M634.3 264.604C637.474 243.702 647.603 224.481 663.051 210.044" stroke="#FF79A0" stroke-width="0.75" stroke-linecap="round" stroke-linejoin="round"/>
<path d="M718.386 102.453C710.359 108.864 698.341 129.669 693.669 139.095" stroke="#FF79A0" stroke-width="0.75" stroke-linecap="round" stroke-linejoin="round"/>
<path d="M711.251 160.07C720.722 134.849 738.941 123.513 747.434 133.151C755.928 142.789 767.436 153.913 767.436 153.913" stroke="#FF79A0" stroke-width="0.75" stroke-linecap="round" stroke-linejoin="round"/>
<path d="M820.563 175.355C831.18 174.973 841.245 164.104 844.303 157.862" stroke="#FF79A0" stroke-width="0.75" stroke-linecap="round" stroke-linejoin="round"/>
<path d="M608.097 192.593C568.942 198.707 549.619 140.751 581.385 94.938" stroke="#FF79A0" stroke-width="0.75" stroke-linecap="round" stroke-linejoin="round"/>
<path d="M647.337 139.095C655.533 117.866 628.142 83.6015 613.151 107.124C596.163 134 620.922 169.751 647.125 166.566" stroke="#FF79A0" stroke-width="0.75" stroke-linecap="round" stroke-linejoin="round"/>
<path d="M623.98 197.136C633.354 169.308 649.205 144.103 670.228 123.598C670.228 123.598 658.379 147.714 667.085 164.868C651.981 174.605 637.577 185.388 623.98 197.136V197.136Z" fill="#93BEE5"/>
<path d="M663.05 284.475C670.907 270.548 684.666 271.312 691.843 283.031" stroke="#EF8A66" stroke-width="0.75" stroke-linecap="round" stroke-linejoin="round"/>
<path d="M688.998 279.125C672.69 274.879 672.69 296.745 689.975 293.603" stroke="#EF8A66" stroke-width="0.75" stroke-linecap="round" stroke-linejoin="round"/>
<path d="M807.101 219.215C806.889 231.953 817.039 239.256 823.791 242.738C830.544 246.219 828.293 255.73 828.038 256.876" stroke="#EF8A66" stroke-width="0.75" stroke-linecap="round" stroke-linejoin="round"/>
<path d="M697.407 304.855C700.041 301.518 702.226 297.849 703.904 293.943" stroke="#EF8A66" stroke-width="0.75" stroke-linecap="round" stroke-linejoin="round"/>
<path d="M771.004 261.971C766.757 269.996 753.677 271.525 741.276 265.326C728.875 259.127 722.335 247.62 726.412 239.553C730.489 231.486 743.697 230 756.14 236.156C768.583 242.313 775.038 253.904 771.004 261.971Z" fill="#F4AF90"/>
<path d="M860.271 267.831C857.611 269.043 854.663 269.483 851.764 269.101C848.865 268.718 846.133 267.527 843.878 265.665C837.721 259.509 840.056 246.983 849.102 237.388L849.994 239.553C853.604 248.469 856.959 257.343 859.592 265.538C859.804 266.345 860.059 267.066 860.271 267.831Z" fill="#F4AF90"/>
</g>
<defs>
<clipPath id="clip0_11_4157">
<rect width="1440" height="929" fill="white"/>
</clipPath>
</defs>
</svg>
