<svg width="1404" height="906" viewBox="0 0 1404 906" fill="none" xmlns="http://www.w3.org/2000/svg">
<path d="M624.281 499.377C623.908 505.836 623.163 512.834 622.003 520.081C613.225 577.016 581.798 658.796 546.934 708.692C539.947 719.002 531.883 728.538 522.877 737.14C495.425 762.357 451.783 767.119 421.308 749.562C412.108 744.263 404.269 736.894 398.411 728.039C392.554 719.185 388.839 709.087 387.562 698.548C386.238 689.41 386.127 680.137 387.23 670.97C393.069 619.252 428.305 530.639 470.829 466.706C475.674 459.335 480.643 452.296 485.694 445.712C509.71 414.242 535.133 392.296 558.362 389.895C563.165 389.349 568.028 389.729 572.689 391.013C611.155 401.944 627.717 432.213 624.281 499.377Z" fill="#7BBDFF"/>
<path d="M553.807 530.225C542.125 570.367 537.447 612.221 539.978 653.951C541.286 672.368 543.609 690.698 546.934 708.858C539.947 719.167 531.883 728.703 522.877 737.305C495.425 762.522 451.783 767.284 421.308 749.727C412.087 744.412 404.235 737.018 398.376 728.132C392.518 719.247 388.815 709.117 387.562 698.548C414.641 727.533 442.963 733.785 465.405 726.456C497.743 716.022 518.074 677.595 505.569 638.217C483.665 569.066 533.104 529.521 556.706 518.134C555.919 522.027 554.843 526.126 553.807 530.225Z" fill="#449AF1"/>
<path d="M624.281 499.377C623.908 505.836 623.163 512.834 622.003 520.081C617.946 514.105 614.61 507.669 612.066 500.909C600.1 468.984 578.568 451.013 554.677 443.228C532.081 436.186 507.766 437.003 485.694 445.547C509.71 414.077 535.133 392.131 558.362 389.729C563.165 389.184 568.028 389.563 572.689 390.847C611.155 401.945 627.717 432.214 624.281 499.377Z" fill="#449AF1"/>
<path d="M715.995 444.553C672.477 449.853 663.12 414.988 662.83 365.174C662.83 353.456 663.202 340.91 663.865 327.908C664.211 320.203 665.041 312.527 666.349 304.926C681.173 220.082 751.398 230.392 755 280.33C756.408 299.253 769.782 438.01 715.995 444.553Z" fill="#B25E47"/>
<path d="M714.96 312.876C712.642 346.375 688.543 363.601 662.871 365.174C662.871 353.456 663.244 340.91 663.906 327.908C664.253 320.203 665.083 312.527 666.391 304.926C680.51 298.798 716.782 285.713 714.96 312.876Z" fill="#914839"/>
<path d="M883.442 642.896C881.162 650.563 879.351 658.362 878.018 666.25C877.645 668.403 877.272 670.391 876.941 672.668C863.608 755.815 861.952 832.874 861.041 840.866C860.13 848.858 785.682 846.125 730.322 843.433C708.749 842.357 680.883 842.647 654.549 842.854C613.142 843.185 575.877 843.268 572.896 837.429C570.908 833.661 565.567 811.508 559.77 783.102C558.859 778.713 557.907 774.158 556.996 769.521C556.54 767.202 556.043 764.841 555.629 762.481C555.215 760.121 554.594 757.057 554.056 754.2C553.518 751.343 552.979 748.403 552.4 745.463C551.24 739.003 550.04 732.419 548.922 725.918C547.804 719.417 546.768 712.999 545.775 706.705C542.671 688.515 540.529 670.173 539.357 651.757C537.304 609.993 542.429 568.186 554.511 528.155C554.843 527.12 555.132 526.126 555.381 525.091C555.836 523.352 556.25 521.613 556.664 519.874C556.913 518.963 557.079 518.052 557.286 517.141C557.493 516.23 557.658 515.319 557.824 514.408C557.989 513.497 558.197 512.586 558.362 511.675C558.528 510.764 558.652 509.894 558.776 508.983C559.066 507.203 559.314 505.422 559.522 503.683C560.018 499.542 560.391 495.112 560.557 490.971C560.557 490.391 560.557 489.812 560.557 489.273C560.557 486.333 560.557 483.435 560.557 480.578C560.245 467.39 558.776 454.254 556.168 441.323C552.027 419.253 546.189 402.69 547.597 395.071C548.259 391.303 552.193 389.067 558.983 388.073C559.452 388.035 559.923 388.035 560.391 388.073C576.953 386.085 609.499 390.847 653.472 399.957C654.432 390.071 656.064 380.263 658.358 370.599C658.791 369.092 659.714 367.772 660.982 366.85C662.249 365.927 663.789 365.454 665.356 365.506C671.232 365.686 677.087 366.309 682.87 367.369C693.429 368.363 729.411 361.779 747.92 352.048C751.65 349.911 755.753 348.506 760.01 347.907C768.871 347.121 771.935 354.119 773.095 363.642V364.885C773.095 365.34 773.095 365.796 773.095 366.251C773.095 366.707 773.094 367.99 773.301 368.901C773.509 369.812 773.301 370.268 773.301 370.972V373.787C773.301 374.905 773.301 376.023 773.301 377.183V380.454C773.301 380.992 773.301 381.531 773.301 382.11C773.301 382.69 773.301 383.063 773.301 383.518C773.301 383.974 773.301 384.802 773.301 385.464C773.301 386.127 773.301 387.079 773.301 387.866C773.301 388.653 773.301 389.439 773.301 390.226V391.758C773.301 398.673 773.301 403.891 773.301 403.891C806.716 391.22 857.149 378.301 895.325 401.779C907.762 409.657 918.048 420.498 925.262 433.332C927.23 436.646 929.027 440.06 930.645 443.559C963.273 511.344 905.222 568.983 883.442 642.896Z" fill="#7BBDFF"/>
<path d="M926.463 433.332C894.208 437.265 858.143 458.176 824.231 498.466C818.973 504.718 813.797 511.385 808.621 518.59C754.172 594.821 659.31 574.615 622.79 519.004C618.819 512.987 615.567 506.524 613.101 499.749C601.425 467.659 579.976 449.481 556.292 441.447C552.151 419.377 546.313 402.814 547.721 395.195C548.383 391.427 552.317 389.191 559.107 388.197C559.576 388.159 560.047 388.159 560.515 388.197C577.078 386.21 609.623 390.972 653.596 400.081C654.51 390.157 656.101 380.306 658.358 370.599C658.791 369.092 659.714 367.772 660.982 366.85C662.249 365.927 663.789 365.454 665.356 365.506C671.232 365.686 677.087 366.309 682.87 367.369C693.429 368.363 729.411 361.779 747.92 352.048C751.65 349.911 755.753 348.506 760.01 347.907C768.871 347.121 771.935 354.119 773.095 363.642V364.885C773.095 365.34 773.095 365.796 773.095 366.251C773.095 366.707 773.094 367.99 773.302 368.901C773.509 369.812 773.302 370.268 773.302 370.972V373.787C773.302 374.905 773.302 376.023 773.302 377.183V380.454C773.302 380.992 773.302 381.531 773.302 382.11C773.302 382.69 773.302 383.063 773.302 383.518C773.302 383.974 773.302 384.802 773.302 385.464C773.302 386.127 773.302 387.079 773.302 387.866C773.302 388.653 773.302 389.439 773.302 390.226V391.758C773.302 398.673 773.302 403.891 773.302 403.891C806.716 391.22 857.149 378.301 895.325 401.779C908.201 409.5 918.913 420.354 926.463 433.332V433.332Z" fill="#449AF1"/>
<path d="M559.563 489.521C559.459 499.084 558.503 508.618 556.706 518.01C555.919 522.151 554.967 526.292 553.807 530.432C542.125 570.574 537.447 612.428 539.978 654.158C541.286 672.574 543.609 690.904 546.934 709.065C547.969 715.359 549.087 721.777 550.288 728.237C553.849 747.698 557.907 767.657 561.716 785.214C567.844 813.537 573.393 835.607 575.421 839.375" stroke="#050024" stroke-width="0.55" stroke-linecap="round" stroke-linejoin="round"/>
<path d="M877.811 671.219C865.389 754.489 864.519 831.591 863.691 839.582C862.863 847.574 788.415 845.628 733.013 843.723C711.441 842.853 683.533 843.475 657.24 843.723C678.854 825.711 723.49 796.146 766.469 814.738C825.97 840.7 854.043 758.754 817.689 751.425C781.334 744.096 779.637 702.813 772.391 669.314L802.12 657.306L877.811 671.219Z" fill="#449AF1"/>
<path d="M651.526 400.785C651.174 407.24 651.174 413.709 651.526 420.164" stroke="#050024" stroke-width="0.55" stroke-linecap="round" stroke-linejoin="round"/>
<path d="M772.308 402.276C771.852 414.947 771.231 423.228 771.231 423.228" stroke="#050024" stroke-width="0.55" stroke-linecap="round" stroke-linejoin="round"/>
<path d="M680.386 421.861C696.948 426.54 721.792 426.83 736.243 421.861" stroke="#050024" stroke-width="0.55" stroke-linecap="round" stroke-linejoin="round"/>
<path d="M1033.95 720.203C1017.18 741.611 971.14 745.752 933.792 716.063C923.386 707.63 914.471 697.51 907.416 686.125C903.275 679.624 898.017 669.562 892.096 657.968C889.487 652.792 886.713 647.243 883.814 641.405C868.08 609.272 850.151 570.266 838.599 547.989C832.881 536.726 828.596 524.79 825.846 512.461C824.686 507.575 823.776 502.606 823.072 497.637C814.459 437.596 835.99 374.574 894.166 400.081H894.373C905.967 405.215 918.306 416.23 930.686 430.764C960.747 465.96 990.932 521.861 1010.19 563.972C1014.53 573.538 1018.47 582.357 1021.45 590.101C1044.06 645.96 1054.95 693.247 1033.95 720.203Z" fill="#7BBDFF"/>
<path d="M945.593 625.256C944.309 646.208 919.672 654.862 892.096 657.719C889.487 652.544 886.713 646.995 883.815 641.156C868.08 609.024 850.151 570.018 838.599 547.741C832.881 536.477 828.596 524.542 825.846 512.213C849.572 512.71 875.243 521.364 877.604 561.902C879.384 589.811 948.615 577.347 945.593 625.256Z" fill="#449AF1"/>
<path d="M930.811 430.64C928.773 430.73 926.742 430.924 924.724 431.219C892.551 435.36 856.652 456.809 823.196 497.472C814.583 437.431 836.115 374.408 894.29 399.915H894.497C906.091 405.257 918.43 416.271 930.811 430.64Z" fill="#449AF1"/>
<path d="M907.416 686.001C903.275 679.5 898.017 669.438 892.096 657.844C889.487 652.668 886.713 647.119 883.814 641.281C868.08 609.148 850.151 570.142 838.599 547.865C832.881 536.601 828.596 524.666 825.846 512.337C824.686 507.451 823.775 502.482 823.072 497.513" stroke="#050024" stroke-width="0.55" stroke-linecap="round" stroke-linejoin="round"/>
<path d="M1033.95 720.203C1017.18 741.611 971.14 745.752 933.792 716.063C942.996 713.108 952.752 712.287 962.321 713.661C1000.37 719.21 1037.89 703.64 1008.65 659.251C985.011 623.351 1001.9 578.299 1010.31 564.014C1014.66 573.579 1018.59 582.399 1021.57 590.142C1044.06 645.959 1054.95 693.247 1033.95 720.203Z" fill="#449AF1"/>
<path d="M789.698 152.67C782.576 157.722 778.187 158.55 778.353 166.293C778.519 174.036 775.206 176.148 771.894 177.432C768.581 178.716 772.266 184.306 771.231 189.854C770.196 195.403 756.159 200.579 756.159 200.579L662.83 156.687C655.045 147.246 658.441 141.987 660.925 136.935C661.169 136.454 661.296 135.922 661.296 135.382C661.296 134.843 661.169 134.311 660.925 133.83C659.641 130.31 653.927 127.246 655.418 123.312C657.281 118.302 662.333 117.432 668.171 117.225C674.009 117.018 672.891 100.248 670.117 95.8174C667.343 91.3868 669.455 80.2895 678.854 80.952C688.253 81.6146 691.897 79.7098 692.725 75.2792C693.294 73.7395 694.175 72.334 695.313 71.1505C696.45 69.967 697.82 69.0311 699.336 68.4014C700.851 67.7717 702.481 67.4618 704.122 67.491C705.763 67.5202 707.381 67.8879 708.873 68.5711C716.202 72.3806 722.496 68.1571 726.926 63.9749C727.174 63.7086 727.452 63.4723 727.755 63.271C732.599 59.5029 742.702 57.4325 746.843 63.9749C748.712 67.1809 751.408 69.8256 754.65 71.6322C757.891 73.4388 761.559 74.3408 765.269 74.244C774.088 74.8651 776.614 82.1943 774.709 89.5234C772.805 96.8526 775.537 99.4199 781.251 102.774C784.225 105.135 786.413 108.341 787.529 111.97C788.645 115.599 788.636 119.481 787.504 123.105C786.357 125.233 785.943 127.68 786.325 130.067C786.706 132.454 787.863 134.649 789.615 136.314C792.39 139.047 796.82 147.618 789.698 152.67Z" fill="#473526"/>
<path d="M754.172 272.628C746.783 275.745 738.787 277.16 730.777 276.769C698.729 275.278 620.471 304.222 620.471 304.222C607.346 305.837 599.313 310.392 605.275 316.934C611.238 323.477 616.786 342.4 601.59 343.974C598.601 344.238 595.594 344.238 592.605 343.974C583.703 343.187 579.728 339.419 580.846 335.941C582.295 331.427 591.942 332.421 593.764 330.599C595.586 328.777 596.042 324.636 590.079 319.088C584.117 313.539 579.81 304.926 585.939 296.189C592.067 287.452 604.199 279.626 596.828 273.291C589.458 266.955 583.454 261.572 586.56 254.16C589.665 246.748 607.263 236.314 598.982 227.287C590.7 218.26 583.827 206.583 599.437 192.38C615.047 178.177 630.823 180.869 628.421 168.736C626.02 156.604 628.007 144.927 644.984 147.784C661.96 150.641 664.279 149.44 671.691 145.341C679.102 141.242 688.916 143.478 698.398 151.676C707.88 159.875 716.865 150.641 728.334 152.919C739.804 155.196 728.334 166.252 742.909 168.736C757.484 171.221 762.453 171.842 764.109 185.796C765.766 199.751 775.413 199.916 777.442 204.264C781.583 213.125 774.999 219.295 773.094 224.43C771.19 229.564 775.33 232.711 778.601 238.177C784.067 247.245 773.053 264.595 754.172 272.628Z" fill="#604730"/>
<path d="M759.223 247.949C758.164 256.345 756.476 264.65 754.172 272.794C746.783 275.91 738.787 277.325 730.777 276.934C698.729 275.444 620.471 304.388 620.471 304.388C607.346 306.003 599.313 310.557 605.275 317.1C611.238 323.642 616.786 342.566 601.59 344.139C598.601 344.404 595.594 344.404 592.605 344.139C603.992 342.276 607.014 334.16 601.176 323.435C592.895 308.653 596 299.916 604.116 291.427C612.231 282.938 598.94 262.98 604.116 252.462C609.292 241.945 618.028 238.177 614.509 222.276C610.989 206.376 612.811 198.757 625.233 189.937C637.655 181.117 648.379 179.419 655.087 168.86C661.795 158.301 679.351 151.676 685.313 164.264C691.276 176.852 693.222 185.465 710.157 180.33C727.092 175.196 738.189 181.49 732.227 195.9C726.264 210.309 729.08 224.015 739.597 225.796C750.114 227.576 761.252 227.742 759.223 247.949Z" fill="#473526"/>
<path d="M747.174 296.189C684.113 342.069 656.95 357.141 626.807 331.8C612.728 319.999 610.244 295.899 613.101 271.345C614.112 262.57 615.688 253.87 617.821 245.299C620.978 231.355 625.802 217.842 632.189 205.051C645.812 180.62 676.867 179.42 680.013 180.62C683.16 181.821 684.154 183.643 681.09 190.89C678.026 198.136 681.421 203.312 690.158 203.56C698.895 203.809 708.874 209.896 707.963 218.633C707.38 222.894 708.071 227.232 709.95 231.101C711.829 234.97 714.812 238.196 718.521 240.372C726.802 245.506 725.146 253.332 726.347 258.177C727.548 263.022 737.527 268.446 740.259 261.78C742.992 255.113 758.644 241.076 771.314 253.953C783.984 266.831 772.805 297.1 747.174 296.189Z" fill="#B25E47"/>
<path d="M671.608 263.394C674.631 269.688 685.562 270.723 695.996 265.713C706.431 260.703 712.559 251.469 709.371 245.009C706.182 238.55 695.417 237.68 684.982 242.732C674.548 247.783 668.544 257.1 671.608 263.394Z" fill="#A0503D"/>
<path d="M629.084 268.902C626.227 273.042 619.85 273.664 613.101 271.345C614.112 262.57 615.688 253.87 617.821 245.299L619.478 246.376C628.877 253.125 633.183 263.229 629.084 268.902Z" fill="#A0503D"/>
<path d="M627.883 238.425C627.883 239.244 628.126 240.045 628.581 240.726C629.036 241.407 629.682 241.938 630.439 242.251C631.196 242.564 632.028 242.646 632.831 242.487C633.635 242.327 634.372 241.932 634.952 241.353C635.531 240.774 635.925 240.036 636.085 239.233C636.245 238.43 636.162 237.597 635.849 236.841C635.536 236.084 635.005 235.438 634.324 234.983C633.643 234.528 632.843 234.285 632.024 234.285C630.926 234.285 629.872 234.721 629.096 235.497C628.319 236.274 627.883 237.327 627.883 238.425Z" fill="#683F1D"/>
<path d="M654.217 240.703C654.217 241.845 654.671 242.94 655.479 243.748C656.286 244.556 657.381 245.009 658.523 245.009C659.666 245.009 660.761 244.556 661.568 243.748C662.376 242.94 662.83 241.845 662.83 240.703C662.83 239.561 662.376 238.465 661.568 237.658C660.761 236.85 659.666 236.396 658.523 236.396C657.381 236.396 656.286 236.85 655.479 237.658C654.671 238.465 654.217 239.561 654.217 240.703V240.703Z" fill="#683F1D"/>
<path d="M744.855 276.852C745.725 267.576 756.325 254.781 767.753 264.429" stroke="#934735" stroke-width="0.55" stroke-linecap="round" stroke-linejoin="round"/>
<path d="M745.311 274.574C753.261 260.91 769.202 279.626 750.57 283.311" stroke="#934735" stroke-width="0.55" stroke-linecap="round" stroke-linejoin="round"/>
<path d="M640.222 266.086C635.502 263.891 633.597 259.585 634.011 258.508C634.425 257.431 649.207 246.583 646.433 229.812" stroke="#934735" stroke-width="0.55" stroke-linecap="round" stroke-linejoin="round"/>
<path d="M658.358 208.819C657.033 217.556 678.274 226.127 681.545 220.579C684.485 215.858 660.511 195.983 658.358 208.819Z" fill="#604730"/>
<path d="M622.873 214.575C622.873 217.101 645.895 216.604 645.563 207.784C645.232 198.964 622.293 207.038 622.873 214.575Z" fill="#604730"/>
<path d="M642.417 274.906C650.323 272.798 658.038 270.028 665.48 266.624C665.48 266.624 667.84 281.2 658.523 283.891C656.876 284.364 655.151 284.507 653.448 284.311C651.745 284.115 650.098 283.584 648.601 282.749C647.104 281.914 645.787 280.791 644.726 279.445C643.664 278.099 642.879 276.556 642.417 274.906Z" fill="white" stroke="#934735" stroke-width="0.55" stroke-linecap="round" stroke-linejoin="round"/>
<path d="M762.453 117.225C758.934 128.115 746.263 116.853 745.27 132.38C744.276 147.908 713.221 143.56 703.863 128.447C696.079 116.024 674.051 120.703 661.091 133.83C659.807 130.31 654.093 127.246 655.584 123.312C657.447 118.302 662.499 117.432 668.337 117.225C674.175 117.018 673.057 100.248 670.283 95.8174C667.509 91.3868 669.62 80.2896 679.02 80.9521C688.419 81.6146 692.063 79.7098 692.891 75.2792C693.46 73.7396 694.341 72.334 695.478 71.1505C696.616 69.9671 697.985 69.0312 699.501 68.4015C701.017 67.7718 702.647 67.4618 704.288 67.491C705.929 67.5202 707.547 67.888 709.039 68.5712C716.368 72.3807 722.662 68.1571 727.092 63.9749C727.34 63.7086 727.618 63.4724 727.92 63.271C731.523 73.5401 734.173 87.5359 748.127 88.7367C767.712 90.5173 766.014 106.294 762.453 117.225Z" fill="#604730"/>
<path d="M358.784 415.981C360.523 404.843 391.909 396.52 410.045 393.042L417.001 438.01C417.001 438.01 366.941 430.847 358.784 415.981Z" fill="#449AF1"/>
<path d="M387.893 439.915C384.332 391.178 384.332 350.226 383.297 334.698C382.262 319.17 383.048 302.649 401.309 295.113C401.309 295.113 401.309 280.744 422.012 278.094C422.012 278.094 419.403 265.216 436.794 265.672C436.757 264.462 437.002 263.26 437.508 262.161C438.014 261.062 438.768 260.095 439.711 259.337C440.654 258.579 441.76 258.049 442.942 257.79C444.124 257.532 445.35 257.551 446.524 257.846C449.541 258.148 452.455 259.11 455.059 260.663C457.663 262.215 459.895 264.321 461.596 266.831C476.709 263.601 485.156 279.253 484.411 292.214C483.665 305.175 482.672 319.336 476.461 332.297C470.25 345.257 462.258 366.872 462.258 366.872L462.755 394.242C462.755 394.242 451.327 482.151 387.893 439.915Z" fill="#B25E47"/>
<path d="M383.297 334.698C382.22 319.17 383.048 302.649 401.308 295.113C401.308 295.113 401.308 280.744 422.012 278.094C422.012 278.094 419.403 265.216 436.794 265.672C436.757 264.462 437.002 263.26 437.508 262.161C438.014 261.062 438.768 260.095 439.711 259.337C440.654 258.579 441.76 258.049 442.942 257.79C444.124 257.532 445.35 257.551 446.524 257.846C449.541 258.148 452.455 259.11 455.059 260.663C457.663 262.215 459.895 264.321 461.596 266.831C476.709 263.601 485.156 279.253 484.411 292.214" stroke="#934735" stroke-width="0.55" stroke-linecap="round" stroke-linejoin="round"/>
<path d="M461.72 266.748C446.151 274.408 434.723 288.777 439.402 295.733C444.081 302.69 461.72 293.911 464.246 291.593" stroke="#934735" stroke-width="0.55" stroke-linecap="round" stroke-linejoin="round"/>
<path d="M435.593 265.589C441.712 267.242 447.586 269.692 453.066 272.877" stroke="#934735" stroke-width="0.55" stroke-linecap="round" stroke-linejoin="round"/>
<path d="M422.343 278.094C429.168 278.373 435.857 280.094 441.969 283.145" stroke="#934735" stroke-width="0.55" stroke-linecap="round" stroke-linejoin="round"/>
<path d="M438.905 315.858C444.122 311.717 448.636 304.967 447.187 298.508" stroke="#934735" stroke-width="0.55" stroke-linecap="round" stroke-linejoin="round"/>
<path d="M401.309 295.113C413.73 290.02 426.152 284.222 430.293 292.711C434.434 301.2 436.09 327.286 430.293 330.806C424.496 334.326 414.724 331.427 413.068 324.595C411.412 317.763 410.17 308.446 410.17 308.446" stroke="#934735" stroke-width="0.55" stroke-linecap="round" stroke-linejoin="round"/>
<path d="M424.372 332.296C429.589 338.756 427.891 361.613 422.136 369.232" stroke="#934735" stroke-width="0.55" stroke-linecap="round" stroke-linejoin="round"/>
<path d="M465.405 726.456C455.219 745.669 440.562 756.145 421.308 749.603C384.622 737.181 370.047 702.026 364.706 667.699C359.116 631.881 363.505 596.892 363.339 589.48C362.966 574.904 358.95 416.064 358.95 416.064C365.327 418.59 374.933 418.632 386.609 416.478C395.492 414.72 404.205 412.199 412.654 408.942C430.369 402.189 447.216 393.348 462.838 382.607L463.542 382.151C463.542 382.151 466.689 421.53 470.995 466.789C474.639 505.546 479.276 548.61 483.044 574.987C489.255 617.471 485.487 688.734 465.405 726.456Z" fill="#7BBDFF"/>
<path d="M465.405 726.456C455.219 745.669 440.562 756.146 421.308 749.603C384.622 737.181 370.047 702.026 364.706 667.699C371.245 678.784 378.949 689.139 387.686 698.589C414.641 727.533 443.046 733.785 465.405 726.456Z" fill="#449AF1"/>
<path d="M463.376 382.069C463.376 382.069 474.308 517.803 482.879 574.904C487.556 611.223 486.41 648.056 479.483 684.014" stroke="#050024" stroke-width="0.55" stroke-linecap="round" stroke-linejoin="round"/>
<path d="M850.808 545.37L720.522 490.948C710.246 486.656 698.436 491.507 694.143 501.783L616.775 687.018C612.482 697.295 617.333 709.106 627.609 713.398L757.896 767.82C768.172 772.112 779.982 767.261 784.275 756.985L861.643 571.75C865.936 561.473 861.085 549.662 850.808 545.37Z" fill="#EDEDED"/>
<path d="M836.19 539.236L720.537 490.927C710.261 486.635 698.451 491.486 694.158 501.762L616.79 686.997C612.497 697.274 617.348 709.085 627.624 713.377L743.277 761.686C753.554 765.979 765.364 761.128 769.656 750.851L847.025 565.616C851.317 555.34 846.466 543.529 836.19 539.236Z" fill="#F9F9F9" stroke="#DDDDDD" stroke-width="0.74" stroke-linecap="round" stroke-linejoin="round"/>
<path d="M728.169 521.737C728.16 523.471 727.639 525.164 726.669 526.603C725.7 528.041 724.326 529.159 722.721 529.817C721.117 530.476 719.353 530.643 717.653 530.3C715.953 529.957 714.392 529.117 713.169 527.888C711.945 526.659 711.114 525.095 710.778 523.393C710.443 521.691 710.619 519.928 711.285 518.327C711.95 516.725 713.075 515.356 714.518 514.394C715.961 513.431 717.656 512.917 719.391 512.917C720.547 512.917 721.692 513.145 722.759 513.589C723.827 514.033 724.797 514.683 725.612 515.503C726.428 516.322 727.074 517.295 727.512 518.365C727.951 519.435 728.174 520.581 728.169 521.737V521.737Z" fill="#EDEDED"/>
<path d="M742.661 530.557C742.661 531.425 742.403 532.274 741.921 532.995C741.439 533.717 740.753 534.28 739.951 534.612C739.149 534.944 738.267 535.031 737.416 534.862C736.564 534.692 735.782 534.274 735.168 533.661C734.555 533.047 734.136 532.265 733.967 531.413C733.798 530.562 733.885 529.679 734.217 528.877C734.549 528.075 735.112 527.39 735.833 526.907C736.555 526.425 737.404 526.168 738.272 526.168C738.85 526.162 739.423 526.272 739.958 526.491C740.493 526.709 740.979 527.032 741.388 527.441C741.796 527.85 742.119 528.336 742.338 528.871C742.557 529.406 742.666 529.979 742.661 530.557V530.557Z" fill="#EDEDED"/>
<path d="M736.243 676.063C727.631 673.082 723.159 656.436 721.999 642.109L755.787 646.25C755.787 646.25 756.035 678.258 736.243 676.063Z" fill="#449AF1"/>
<path d="M747.588 667.616C738.01 660.763 728.087 654.406 717.859 648.569C714.008 646.457 692.187 644.014 676.949 635.649C666.72 629.848 656.86 623.418 647.427 616.395L641.423 627.575C641.423 627.575 629.622 614.821 627.842 603.31C626.061 591.799 630.823 591.426 633.638 588.983C636.454 586.54 634.674 582.855 634.508 576.892C634.342 570.929 639.394 569.728 640.967 567.658C642.541 565.588 640.967 560.122 640.967 552.793C640.967 545.463 649.249 545.091 650.739 540.909C652.23 536.726 653.348 523.228 665.231 526.747C677.115 530.267 728.873 568.693 732.351 570.432C737.379 572.246 742.525 573.712 747.754 574.822C747.754 574.822 789.864 641.032 747.588 667.616Z" fill="#B25E47"/>
<path d="M647.427 616.395L641.423 627.575C641.423 627.575 629.622 614.821 627.842 603.31C626.061 591.799 630.823 591.426 633.638 588.983C636.454 586.54 634.674 582.855 634.508 576.892C634.342 570.929 639.394 569.728 640.967 567.658C642.541 565.588 640.967 560.122 640.967 552.793C640.967 545.463 649.249 545.091 650.739 540.909C652.23 536.726 653.348 523.228 665.231 526.747" stroke="#934735" stroke-width="0.55" stroke-linecap="round" stroke-linejoin="round"/>
<path d="M647.427 616.395C641.506 611.467 640.263 610.639 640.263 610.639" stroke="#934735" stroke-width="0.55" stroke-linecap="round" stroke-linejoin="round"/>
<path d="M1040.54 711.301C1029.69 744.428 989.276 774.075 897.106 739.252L892.096 737.305C796.365 699.417 736.201 676.063 736.201 676.063C744.49 641.033 744.49 604.552 736.201 569.521C791.23 584.925 936.731 614.78 988.406 629.935C991.802 630.929 995.073 632.006 998.137 633.165C1041.49 649.273 1051.01 679.086 1040.54 711.301Z" fill="#7BBDFF"/>
<path d="M892.096 737.305C796.365 699.417 736.243 676.063 736.243 676.063" stroke="#050024" stroke-width="0.55" stroke-linecap="round" stroke-linejoin="round"/>
<path d="M736.243 569.521C786.137 583.476 910.646 609.356 971.803 625.38" stroke="#050024" stroke-width="0.55" stroke-linecap="round" stroke-linejoin="round"/>
<path d="M1040.54 711.301C1029.69 744.427 989.276 774.075 897.106 739.251C897.106 739.251 924.268 708.03 962.321 713.537C1000.37 719.045 1037.89 703.517 1008.65 659.128C1003.46 651.258 999.884 642.432 998.137 633.165C1041.49 649.273 1051.01 679.086 1040.54 711.301Z" fill="#449AF1"/>
</svg>
