<svg width="1447" height="934" viewBox="0 0 1447 934" fill="none" xmlns="http://www.w3.org/2000/svg">
<path d="M1103.81 192.435V714.672H359.36V192.435C359.355 185.515 360.713 178.663 363.357 172.27C366.002 165.876 369.881 160.067 374.772 155.174C379.663 150.282 385.47 146.402 391.862 143.757C398.253 141.111 405.103 139.753 412.02 139.758H1051.15C1065.12 139.758 1078.51 145.308 1088.39 155.187C1098.27 165.066 1103.81 178.464 1103.81 192.435Z" stroke="#EDEDED" stroke-width="1.64" stroke-linecap="round" stroke-linejoin="round"/>
<path d="M1103.81 192.435V194.782H359.36V192.435C359.355 185.515 360.713 178.663 363.357 172.27C366.002 165.876 369.881 160.067 374.772 155.174C379.663 150.282 385.47 146.402 391.862 143.757C398.253 141.111 405.103 139.753 412.02 139.758H1051.15C1065.12 139.758 1078.51 145.308 1088.39 155.187C1098.27 165.066 1103.81 178.464 1103.81 192.435Z" stroke="#DDDDDD" stroke-width="1.64" stroke-linecap="round" stroke-linejoin="round"/>
<path d="M1003.06 167.292C1003.06 169.191 1002.5 171.048 1001.44 172.628C1000.39 174.207 998.887 175.438 997.132 176.165C995.378 176.892 993.447 177.082 991.585 176.712C989.722 176.341 988.011 175.426 986.668 174.083C985.325 172.74 984.411 171.029 984.04 169.165C983.67 167.302 983.86 165.371 984.587 163.616C985.314 161.861 986.544 160.361 988.123 159.306C989.702 158.25 991.559 157.687 993.458 157.687C996.004 157.687 998.446 158.699 1000.25 160.5C1002.05 162.301 1003.06 164.744 1003.06 167.292Z" fill="#EDEDED"/>
<path d="M1034.3 167.292C1034.3 169.191 1033.73 171.048 1032.68 172.628C1031.62 174.207 1030.12 175.438 1028.37 176.165C1026.62 176.892 1024.68 177.082 1022.82 176.712C1020.96 176.341 1019.25 175.426 1017.91 174.083C1016.56 172.74 1015.65 171.029 1015.28 169.165C1014.91 167.302 1015.1 165.371 1015.82 163.616C1016.55 161.861 1017.78 160.361 1019.36 159.306C1020.94 158.25 1022.8 157.687 1024.7 157.687C1027.24 157.687 1029.68 158.699 1031.48 160.5C1033.29 162.301 1034.3 164.744 1034.3 167.292Z" fill="#DDDDDD"/>
<path d="M1065.53 167.292C1065.53 169.191 1064.97 171.048 1063.92 172.628C1062.86 174.207 1061.36 175.438 1059.61 176.165C1057.85 176.892 1055.92 177.082 1054.06 176.712C1052.2 176.341 1050.49 175.426 1049.14 174.083C1047.8 172.74 1046.89 171.029 1046.52 169.165C1046.15 167.302 1046.34 165.371 1047.06 163.616C1047.79 161.861 1049.02 160.361 1050.6 159.306C1052.18 158.25 1054.03 157.687 1055.93 157.687C1058.48 157.687 1060.92 158.699 1062.72 160.5C1064.52 162.301 1065.53 164.744 1065.53 167.292Z" fill="#EDEDED"/>
<path d="M375.235 419.489C373.315 397.633 469.716 356.269 485.548 388.199L454.225 419.489C454.225 419.489 389.062 445.229 375.235 419.489Z" fill="#5CB1FF"/>
<path d="M422.475 263.338C408.393 219.797 407.411 214.461 416.757 211.089C426.103 207.717 449.915 257.319 452.603 263.338C462.019 282.391 469.276 302.436 474.239 323.101C478.507 342.395 483.841 386.876 484.737 397.59C488.407 442.796 413.898 456.499 410.655 421.367C407.411 386.235 407.07 374.838 407.07 374.838C407.07 374.838 368.663 378.509 363.244 349.738C359.86 327.239 358.56 304.475 359.36 281.737C359.36 281.737 300.896 272.047 302.987 256.636C305.078 241.226 419.446 272.388 419.446 272.388L422.475 263.338Z" fill="#B25E47"/>
<path d="M359.36 281.737C359.36 281.737 300.896 272.047 302.987 256.636C305.078 241.226 419.446 272.388 419.446 272.388L422.475 263.338C408.393 219.797 407.411 214.461 416.757 211.089C426.103 207.717 449.915 257.319 452.603 263.338" stroke="#934735" stroke-width="0.61" stroke-linecap="round" stroke-linejoin="round"/>
<path d="M419.36 272.388C414.41 291.626 415.257 311.898 421.793 330.656" stroke="#934735" stroke-width="0.61" stroke-linecap="round" stroke-linejoin="round"/>
<mask id="path-10-outside-1_11_4235" maskUnits="userSpaceOnUse" x="353.856" y="217.791" width="59" height="204" fill="black">
<rect fill="white" x="353.856" y="217.791" width="59" height="204"/>
<path fill-rule="evenodd" clip-rule="evenodd" d="M391.964 239.049C392.233 239.19 392.501 239.327 392.767 239.461C391.983 242.597 391.334 245.704 390.899 247.924C388.466 249.127 386.399 251.585 385.519 255.484C381.026 275.371 359.233 378.859 355.622 396.005C355.358 397.261 355.191 398.054 355.135 398.316C354.324 402.158 355.391 419.916 356.928 420.599C358.464 421.282 366.999 408.561 370.199 402.115C372.356 397.772 385.654 337.801 394.635 297.3C398.982 277.697 402.317 262.655 402.888 260.692C404.031 256.771 403.542 253.573 402.154 251.26C402.915 248.23 403.545 245.169 404.044 242.086C407.283 241.268 409.731 238.254 411.082 231.792C413.813 218.73 401.139 218.303 396.871 218.986C390.342 220.053 388.038 236.958 391.964 239.049Z"/>
</mask>
<path fill-rule="evenodd" clip-rule="evenodd" d="M391.964 239.049C392.233 239.19 392.501 239.327 392.767 239.461C391.983 242.597 391.334 245.704 390.899 247.924C388.466 249.127 386.399 251.585 385.519 255.484C381.026 275.371 359.233 378.859 355.622 396.005C355.358 397.261 355.191 398.054 355.135 398.316C354.324 402.158 355.391 419.916 356.928 420.599C358.464 421.282 366.999 408.561 370.199 402.115C372.356 397.772 385.654 337.801 394.635 297.3C398.982 277.697 402.317 262.655 402.888 260.692C404.031 256.771 403.542 253.573 402.154 251.26C402.915 248.23 403.545 245.169 404.044 242.086C407.283 241.268 409.731 238.254 411.082 231.792C413.813 218.73 401.139 218.303 396.871 218.986C390.342 220.053 388.038 236.958 391.964 239.049Z" fill="black"/>
<path d="M392.767 239.461L393.737 239.703L393.932 238.927L393.216 238.567L392.767 239.461ZM391.964 239.049L391.493 239.932L391.501 239.936L391.964 239.049ZM390.899 247.924L391.342 248.82L391.785 248.601L391.88 248.116L390.899 247.924ZM385.519 255.484L386.495 255.704L386.495 255.704L385.519 255.484ZM355.622 396.005L356.601 396.211L356.601 396.211L355.622 396.005ZM355.135 398.316L354.157 398.11L354.157 398.11L355.135 398.316ZM356.928 420.599L357.334 419.685L357.334 419.685L356.928 420.599ZM370.199 402.115L371.095 402.56L371.095 402.56L370.199 402.115ZM394.635 297.3L393.659 297.084L393.659 297.084L394.635 297.3ZM402.888 260.692L401.928 260.412L401.928 260.413L402.888 260.692ZM402.154 251.26L401.184 251.017L401.083 251.419L401.297 251.775L402.154 251.26ZM404.044 242.086L403.799 241.117L403.162 241.278L403.057 241.926L404.044 242.086ZM411.082 231.792L410.103 231.588L410.103 231.588L411.082 231.792ZM396.871 218.986L396.713 217.999L396.71 217.999L396.871 218.986ZM393.216 238.567C392.955 238.436 392.691 238.301 392.426 238.162L391.501 239.936C391.775 240.079 392.047 240.218 392.318 240.354L393.216 238.567ZM391.88 248.116C392.314 245.906 392.959 242.817 393.737 239.703L391.797 239.218C391.007 242.377 390.355 245.502 389.917 247.731L391.88 248.116ZM390.456 247.027C387.717 248.381 385.48 251.112 384.544 255.264L386.495 255.704C387.317 252.059 389.215 249.872 391.342 248.82L390.456 247.027ZM384.544 255.264C380.049 275.16 358.253 378.66 354.644 395.799L356.601 396.211C360.213 379.059 382.004 275.582 386.495 255.704L384.544 255.264ZM354.644 395.799C354.379 397.055 354.212 397.848 354.157 398.11L356.114 398.523C356.169 398.26 356.336 397.467 356.601 396.211L354.644 395.799ZM354.157 398.11C353.929 399.189 353.847 401.12 353.857 403.327C353.867 405.568 353.974 408.192 354.154 410.713C354.334 413.231 354.588 415.669 354.899 417.534C355.054 418.461 355.227 419.278 355.422 419.901C355.518 420.21 355.631 420.507 355.768 420.757C355.881 420.966 356.109 421.329 356.521 421.513L357.334 419.685C357.554 419.783 357.593 419.928 357.523 419.799C357.476 419.712 357.409 419.554 357.331 419.304C357.176 418.811 357.021 418.098 356.872 417.205C356.576 415.427 356.326 413.058 356.149 410.571C355.971 408.087 355.867 405.508 355.857 403.318C355.847 401.093 355.936 399.364 356.114 398.523L354.157 398.11ZM356.521 421.513C356.97 421.712 357.4 421.606 357.656 421.507C357.928 421.402 358.186 421.234 358.414 421.06C358.877 420.707 359.399 420.185 359.946 419.57C361.051 418.33 362.387 416.566 363.759 414.603C366.503 410.677 369.466 405.841 371.095 402.56L369.304 401.67C367.732 404.835 364.827 409.583 362.12 413.457C360.766 415.395 359.481 417.086 358.453 418.24C357.934 418.823 357.512 419.233 357.201 419.47C357.043 419.591 356.956 419.633 356.933 419.642C356.894 419.657 357.078 419.571 357.334 419.685L356.521 421.513ZM371.095 402.56C371.417 401.911 371.886 400.391 372.464 398.291C373.055 396.143 373.789 393.276 374.635 389.84C376.328 382.966 378.474 373.79 380.833 363.49C385.55 342.887 391.121 317.766 395.611 297.517L393.659 297.084C389.168 317.335 383.599 342.449 378.883 363.043C376.525 373.341 374.382 382.504 372.693 389.362C371.849 392.791 371.12 395.638 370.536 397.76C369.939 399.93 369.521 401.233 369.304 401.67L371.095 402.56ZM395.611 297.517C399.966 277.877 403.289 262.893 403.848 260.971L401.928 260.413C401.345 262.417 397.998 277.516 393.659 297.084L395.611 297.517ZM403.848 260.972C405.055 256.83 404.566 253.336 403.012 250.745L401.297 251.775C402.518 253.81 403.006 256.713 401.928 260.412L403.848 260.972ZM403.057 241.926C402.563 244.981 401.938 248.014 401.184 251.017L403.124 251.503C403.891 248.445 404.528 245.357 405.031 242.246L403.057 241.926ZM410.103 231.588C408.778 237.924 406.472 240.442 403.799 241.117L404.289 243.056C408.094 242.095 410.683 238.583 412.06 231.997L410.103 231.588ZM397.029 219.974C399.057 219.649 403.057 219.605 406.159 221.132C407.682 221.882 408.953 222.991 409.707 224.608C410.464 226.229 410.754 228.474 410.103 231.588L412.06 231.997C412.775 228.58 412.505 225.873 411.52 223.762C410.532 221.646 408.88 220.242 407.042 219.338C403.423 217.556 398.953 217.64 396.713 217.999L397.029 219.974ZM392.434 238.167C392.209 238.047 391.94 237.77 391.691 237.219C391.445 236.675 391.258 235.945 391.148 235.06C390.93 233.29 391.043 231.056 391.478 228.825C391.914 226.592 392.658 224.434 393.653 222.796C394.66 221.136 395.82 220.171 397.032 219.973L396.71 217.999C394.657 218.335 393.081 219.884 391.943 221.758C390.791 223.655 389.981 226.054 389.515 228.442C389.049 230.832 388.914 233.282 389.163 235.305C389.288 236.315 389.513 237.257 389.868 238.042C390.219 238.82 390.737 239.529 391.493 239.932L392.434 238.167Z" fill="#EDEDED" mask="url(#path-10-outside-1_11_4235)"/>
<path d="M363.713 322.204C351.722 324.979 348.308 336.419 357.184 344.017C366.7 352.171 390.129 348.286 391.323 338.084C392.518 327.882 373.699 319.899 363.713 322.204Z" fill="#B25E47" stroke="#934735" stroke-width="0.61" stroke-linecap="round" stroke-linejoin="round"/>
<path d="M362.731 303.422C350.441 301.629 347.411 313.795 356.202 323.4C364.993 333.004 393.969 334.968 395.591 323.741C397.212 312.514 370.199 304.532 362.731 303.422Z" fill="#B25E47" stroke="#934735" stroke-width="0.61" stroke-linecap="round" stroke-linejoin="round"/>
<path d="M351.764 282.42C367.212 278.749 400.669 301.458 399.346 308.502C397.724 317.338 381.978 318.704 359.574 309.185C338.578 300.306 344.168 284.213 351.764 282.42Z" fill="#B25E47" stroke="#934735" stroke-width="0.61" stroke-linecap="round" stroke-linejoin="round"/>
<path d="M1095.83 452.87C1047.87 450.523 1008.14 493.85 995.847 543.581C995.463 544.947 995.164 546.484 994.866 548.106C993.544 555.764 992.633 563.487 992.135 571.243C987.014 636.896 991.836 767.604 992.135 770.507C992.348 771.574 957.995 770.507 910.84 768.287C893.429 767.476 874.183 766.58 854.211 765.555C752.476 760.561 631.665 753.816 631.665 753.816L624.368 672.241C624.368 672.241 609.133 697.853 557.113 748.267C505.093 798.681 421.835 770.507 430.797 707.287C436.387 667.588 459.858 638.518 488.237 589.94C496.771 574.871 506.245 557.967 515.591 538.288C528.009 512.12 540.129 487.063 551.693 464.567C556.771 454.621 561.764 445.187 566.587 436.265C584.851 402.585 601.238 377.058 614.424 365.148C654.069 329.29 738.948 349.951 761.565 357.208C795.32 368.183 830.343 374.782 865.776 376.844C915.961 380.344 992.135 401.987 1032.5 416.031C1055.84 423.849 1077.32 436.373 1095.62 452.828L1095.83 452.87Z" fill="#7BBDFF"/>
<path d="M1129.59 527.403C1085.68 483.307 1018.98 464.054 952.064 523.731C874.226 593.098 814.482 605.136 726.914 503.839C663.585 430.588 641.565 411.89 566.757 436.265C585.022 402.585 601.409 377.058 614.595 365.148C654.24 329.29 739.119 349.951 761.736 357.208C795.491 368.183 830.514 374.782 865.947 376.844C916.132 380.345 992.305 401.987 1032.68 416.031C1056.01 423.849 1077.49 436.373 1095.79 452.828V452.828C1113.07 466.658 1123.32 494.363 1129.59 527.403Z" fill="#C3DCF8"/>
<path d="M550.498 653.459C522.632 683.809 497.369 617.943 488.322 589.94C496.857 574.871 506.33 557.967 515.676 538.288C528.094 512.121 540.214 487.063 551.778 464.567C572.39 496.113 544.524 525.012 542.561 539.312C537.696 577.475 590.697 609.875 550.498 653.459Z" fill="#5CB1FF"/>
<path d="M375.235 419.489C418.421 428.581 485.548 388.199 485.548 388.199C485.548 388.199 522.547 553.357 532.191 589.982C541.835 626.608 603.628 770.081 483.244 775.971C406.003 779.728 400.797 632.841 396.273 584.476C391.75 536.111 375.235 419.489 375.235 419.489Z" fill="#7BBDFF"/>
<path d="M403.869 438.357C437.112 440.705 474.154 418.336 474.154 418.336" stroke="#83ADDF" stroke-width="0.61" stroke-linecap="round" stroke-linejoin="round"/>
<path d="M485.548 388.199C485.548 388.199 522.546 553.357 532.191 589.983C537.482 609.96 558.265 661.74 556.515 705.623" stroke="#83ADDF" stroke-width="0.61" stroke-linecap="round" stroke-linejoin="round"/>
<path d="M726.914 384.186C748.251 424.185 805.605 462.603 874.567 409.543C874.567 409.543 881.992 387.516 881.224 387.516C880.456 387.516 736.686 370.1 736.686 370.1L726.914 384.186Z" fill="white"/>
<path d="M783.67 334.583C765.918 330.571 740.143 335.053 722.39 362.33C704.638 389.608 702.376 412.146 703.4 411.89C704.424 411.634 731.181 394.815 743.429 395.883C756.64 398.128 769.696 401.208 782.518 405.103L783.67 334.583Z" fill="#000080"/>
<path d="M863.728 342.566C863.728 342.566 902.988 342.823 908.279 370.356C913.571 397.889 899.019 430.887 881.224 446.169C863.429 461.451 873.244 424.142 809.446 406.64L863.728 342.566Z" fill="#000080"/>
<path d="M882.888 374.753C882.888 374.753 861.082 407.921 812.476 408.689C763.87 409.457 754.524 380.43 754.524 380.43C759.773 367.282 766.131 339.237 770.185 319.558C772.746 307.136 774.453 298.214 774.453 298.214C774.453 298.214 782.476 220.352 865.947 225.048L867.355 237.854L882.888 374.753Z" fill="#B25E47"/>
<path d="M770.186 320.155C772.746 307.733 774.453 298.812 774.453 298.812L821.949 276.529C821.949 276.529 829.46 330.784 770.186 320.155Z" fill="#914839"/>
<path d="M624.495 672.241C617.795 595.403 617.795 533.421 617.795 533.421" stroke="#83ADDF" stroke-width="0.61" stroke-linecap="round" stroke-linejoin="round"/>
<path d="M941.608 858.742C937.538 857.251 933.657 855.289 930.044 852.894C905.719 836.843 903.628 805.554 911.011 768.287C916.729 739.73 928.081 707.671 939.048 676.254C951.594 640.439 963.884 605.478 967.341 577.518C967.853 573.59 968.152 569.834 968.28 566.248C968.911 544.773 972.841 523.522 979.93 503.242C999.987 446.766 1043.94 411.208 1095.79 452.828C1112.86 466.616 1123.27 494.32 1129.55 527.36C1131.81 539.142 1133.56 551.606 1135.01 564.327C1139.79 607.569 1140.43 653.971 1142.56 688.676C1153.02 856.437 1112.86 923.371 941.608 858.742Z" fill="#7BBDFF"/>
<path d="M1129.59 527.403C1091.82 489.454 1037.07 469.903 979.93 503.242C999.987 446.766 1043.94 411.208 1095.79 452.828C1113.07 466.658 1123.32 494.363 1129.59 527.403Z" fill="#C3DCF8"/>
<path d="M992.305 770.507C992.519 771.575 958.166 770.507 911.011 768.288C893.6 767.477 874.354 766.58 854.382 765.556C820.243 750.145 798.906 727.863 817.127 695.932C866.715 609.149 957.953 729.399 962.561 643.342C965.762 584.39 980.058 571.627 992.135 571.243C987.014 636.896 991.836 767.519 992.305 770.507Z" fill="#5CB1FF"/>
<path d="M1003.96 517.969C997.174 534.974 993.182 552.964 992.135 571.243C987.568 636.939 991.836 767.605 992.135 770.507" stroke="#83ADDF" stroke-width="0.61" stroke-linecap="round" stroke-linejoin="round"/>
<path d="M941.608 858.742C937.538 857.251 933.657 855.289 930.043 852.894C969.261 861.432 1027.9 868.902 1053.8 846.832C1094.55 812.128 1068.65 767.647 1091.18 743.145C1113.71 718.642 1146.19 710.745 1135.05 564.498C1139.83 607.74 1140.47 654.142 1142.6 688.846C1153.02 856.437 1112.86 923.371 941.608 858.742Z" fill="#5CB1FF"/>
<path d="M843.457 564.412C849.688 536.367 814.524 537.647 814.524 537.647C817.639 511.779 783.415 504.65 775.52 529.836C747.739 521.298 738.948 529.836 734.894 544.477L843.457 564.412Z" fill="#DDDDDD"/>
<path d="M796.047 540.337C800.642 540.337 804.368 536.61 804.368 532.013C804.368 527.415 800.642 523.688 796.047 523.688C791.451 523.688 787.725 527.415 787.725 532.013C787.725 536.61 791.451 540.337 796.047 540.337Z" fill="#F9F9F9" stroke="#DDDDDD" stroke-width="0.82" stroke-linecap="round" stroke-linejoin="round"/>
<path d="M682.063 523.731L630.171 805.212L836.246 846.832L891.594 564.967L682.063 523.731Z" fill="#F9F9F9" stroke="#DDDDDD" stroke-width="0.82" stroke-linecap="round" stroke-linejoin="round"/>
<path d="M745.563 710.232C735.022 737.638 734.425 766.409 739.247 776.056C739.247 776.056 758.92 779.685 778.55 726.368L745.563 710.232Z" fill="#93BEE5"/>
<path d="M772.405 657.385C725.25 641.207 702.718 631.389 694.226 629.084C685.733 626.779 655.051 624.217 650.143 629.084C647.978 631.414 646.497 634.297 645.865 637.416C645.232 640.534 645.472 643.766 646.558 646.756C648.18 653.287 642.974 658.026 642.291 664.642C641.608 671.259 649.503 673.18 647.839 679.754C646.174 686.328 641.011 693.456 644.595 700.67C648.18 707.885 641.011 715.355 647.839 724.191C654.667 733.028 724.183 737.254 739.418 734.009L769.29 747.37C769.29 747.37 821.992 693.029 772.405 657.385Z" fill="#B25E47"/>
<path d="M694.055 628.956C685.52 626.694 654.88 624.09 649.972 628.956C647.807 631.287 646.326 634.17 645.694 637.288C645.062 640.406 645.302 643.638 646.388 646.629C648.009 653.16 642.803 657.898 642.12 664.515C641.437 671.131 649.332 673.052 647.668 679.626C646.003 686.2 640.84 693.329 644.424 700.543C648.009 707.757 640.84 715.227 647.668 724.063" stroke="#934735" stroke-width="0.61" stroke-linecap="round" stroke-linejoin="round"/>
<path d="M1054.06 846.832C1041.81 868.987 1011.08 879.702 952.832 862.072C937.085 857.333 921.893 852.382 907.384 847.387C883.315 839.149 861.125 830.697 841.238 822.629C806.556 808.831 772.6 793.272 739.503 776.014C748.229 766.312 755.268 755.216 760.328 743.187C763.508 736.048 766.12 728.669 768.137 721.118C773.577 700.233 775.025 678.509 772.405 657.087C780.342 659.477 788.877 661.896 798.009 664.344C819.731 670.277 844.055 676.467 868.721 682.956C942.633 702.421 1019.49 724.746 1038.22 752.493C1039.93 755.012 1041.55 757.616 1043.09 760.262C1043.69 761.287 1044.33 762.354 1044.88 763.421C1045.05 763.697 1045.21 763.982 1045.35 764.275C1046.03 765.513 1046.72 766.836 1047.36 768.117C1048.52 770.365 1049.59 772.627 1050.56 774.904C1061.27 800.303 1064.38 827.794 1054.06 846.832Z" fill="#7BBDFF"/>
<path d="M772.405 657.386C857.028 682.998 1010.48 711.983 1038.05 752.792C1042.82 759.884 1046.94 767.383 1050.39 775.203" stroke="#83ADDF" stroke-width="0.61" stroke-linecap="round" stroke-linejoin="round"/>
<path d="M797.668 664.515C802.917 717.575 775.52 768.501 775.52 768.501" stroke="#83ADDF" stroke-width="0.61" stroke-linecap="round" stroke-linejoin="round"/>
<path d="M1053.8 846.832C1041.55 868.987 1010.83 879.701 952.576 862.071C936.829 857.333 921.637 852.381 907.127 847.387C941.224 856.394 1022.05 873.896 1053.8 846.832Z" fill="#93BEE5"/>
<path d="M865.947 225.517L867.398 238.324C837.824 284.383 797.455 298.812 774.453 298.812C736.473 289.335 723.5 255.142 721.281 218.474C720.71 209.691 720.682 200.88 721.196 192.093C722.982 167.208 727.272 142.567 733.998 118.543C733.998 118.543 848.066 65.4397 855.961 172.03C855.961 172.03 880.413 167.761 884.98 194.783C888.522 217.236 865.947 225.517 865.947 225.517Z" fill="#B25E47"/>
<path d="M739.503 192.221C742.025 192.221 744.069 190.176 744.069 187.653C744.069 185.131 742.025 183.086 739.503 183.086C736.981 183.086 734.937 185.131 734.937 187.653C734.937 190.176 736.981 192.221 739.503 192.221Z" fill="#683F1D"/>
<path d="M771.253 186.416C773.774 186.416 775.819 184.371 775.819 181.848C775.819 179.326 773.774 177.281 771.253 177.281C768.731 177.281 766.687 179.326 766.687 181.848C766.687 184.371 768.731 186.416 771.253 186.416Z" fill="#683F1D"/>
<path d="M764.297 157.346C764.809 163.535 786.061 165.883 787.256 162.426C789.091 157.09 763.187 142.747 764.297 157.346Z" fill="#604730"/>
<path d="M723.799 166.48C723.799 169.853 746.928 171.432 746.075 159.48C745.52 150.985 724.311 157.26 723.799 166.48Z" fill="#604730"/>
<path d="M849.773 205.71C859.29 191.624 874.354 193.16 875.933 195.85" stroke="#934735" stroke-width="0.61" stroke-linecap="round" stroke-linejoin="round"/>
<path d="M853.828 200.887C867.867 192.648 875.506 211.132 857.754 211.132" stroke="#934735" stroke-width="0.61" stroke-linecap="round" stroke-linejoin="round"/>
<path d="M751.793 174.42C755.634 181.891 755.335 186.373 752.775 191.197C750.214 196.02 742.49 206.906 746.544 216.553" stroke="#934735" stroke-width="0.61" stroke-linecap="round" stroke-linejoin="round"/>
<path d="M776.673 218.218C773.301 229.786 759.603 237.043 752.988 235.549C752.988 235.549 759.603 253.52 771.253 248.91C784.653 243.659 776.673 218.218 776.673 218.218Z" fill="white" stroke="#934735" stroke-width="0.61" stroke-linecap="round" stroke-linejoin="round"/>
<path d="M847.682 222.188C850.319 224.001 853.31 225.235 856.458 225.809C859.606 226.383 862.84 226.284 865.947 225.517" stroke="#934735" stroke-width="0.61" stroke-linecap="round" stroke-linejoin="round"/>
<path d="M889.119 161.017C902.263 179.031 882.547 186.629 882.547 186.629C880.533 183.743 877.892 181.35 874.823 179.628C872.883 178.488 870.714 177.795 868.473 177.598C866.232 177.402 863.975 177.707 861.866 178.492C859.757 179.276 857.85 180.521 856.282 182.136C854.715 183.75 853.526 185.693 852.803 187.824C825.961 188.379 837.526 167.42 837.526 167.42C813.458 177.024 812.689 152.394 823.059 141.252C804.283 162.34 780.385 141.252 784.311 122.257C777.654 143.003 753.97 143.6 757.127 126.525C755.092 130.074 752.627 133.357 749.787 136.301C733.486 152.65 718.934 135.148 725.036 122.214C700.627 145.478 690.043 119.439 713.344 105.438C694.908 90.3264 716.672 68.8119 731.566 79.8253C728.194 53.0603 755.762 51.865 767.881 67.4886C772.661 38.077 809.446 54.1275 810.94 68.0862C838.038 49.133 859.034 63.1345 856.303 93.9121C867.27 79.2703 890.741 87.8505 881.907 125.415C904.226 123.793 908.109 151.839 889.119 161.017Z" fill="#604730"/>
<path d="M874.823 179.628C872.883 178.488 870.714 177.795 868.473 177.598C866.231 177.402 863.974 177.707 861.866 178.492C859.757 179.276 857.85 180.521 856.282 182.136C854.715 183.75 853.526 185.693 852.803 187.824C825.961 188.379 837.526 167.42 837.526 167.42C813.457 177.024 812.689 152.394 823.059 141.252C804.282 162.34 780.385 141.252 784.311 122.257C777.654 143.003 753.969 143.6 757.127 126.525C755.092 130.074 752.627 133.357 749.787 136.301C743.215 116.366 757.938 90.0702 780.427 102.151C783.372 86.143 820.157 75.77 819.944 116.323C833.557 97.2844 864.368 103.816 849.816 140.057C861.253 131.007 887.625 145.863 874.823 179.628Z" fill="#473526"/>
<path d="M825.449 186.672C828.692 193.16 822.59 202.808 811.793 208.229C800.997 213.65 789.603 212.498 786.189 206.223C782.775 199.947 789.048 190.087 799.844 184.665C810.641 179.244 822.163 180.183 825.449 186.672Z" fill="#A0503D"/>
<path d="M735.449 211.388C733.785 215.998 728.152 218.474 721.196 218.346C720.659 209.603 720.659 200.836 721.196 192.093C731.523 196.618 737.839 204.899 735.449 211.388Z" fill="#A0503D"/>
</svg>
