<svg width="1299" height="974" viewBox="0 0 1299 974" fill="none" xmlns="http://www.w3.org/2000/svg">
<path d="M477.269 831.146V836.276L573.768 849.263L694.332 872.752C694.332 872.752 700.827 867.46 688.632 858.272C676.438 849.084 608.939 837.283 574.645 843.808C574.645 843.711 539.783 818.955 477.269 831.146Z" fill="#EDEDED" stroke="#DDDDDD" stroke-linecap="round" stroke-linejoin="round"/>
<path d="M466.244 832.607C466.244 832.607 541.975 828.955 564.968 847.412C574.71 855.204 582.082 849.295 593.14 849.036C604.197 848.776 663.903 842.104 697.06 875.204L758.437 825.935C758.437 825.935 721.692 785.807 656.58 809.816C656.58 809.816 637.095 786.229 566.624 798.128C566.007 799.004 466.244 832.607 466.244 832.607Z" fill="#F9F9F9" stroke="#EDEDED" stroke-linecap="round" stroke-linejoin="round"/>
<path d="M656.596 809.865L572.063 843.711" stroke="#EDEDED" stroke-linecap="round" stroke-linejoin="round"/>
<path d="M1180.6 355.299V837.055C1097.41 812.852 985.746 797.04 863.965 787.69V355.299H1180.6Z" fill="#F9F9F9" stroke="#DDDDDD" stroke-linecap="round" stroke-linejoin="round"/>
<path d="M1180.6 486.967H1157.46V569.075" stroke="#EDEDED" stroke-linecap="round" stroke-linejoin="round"/>
<path d="M1027.35 563.751V481.854L1006.69 483.072V567.323" stroke="#EDEDED" stroke-linecap="round" stroke-linejoin="round"/>
<path d="M984.269 572.923V489.078L1006.69 488.25" stroke="#EDEDED" stroke-linecap="round" stroke-linejoin="round"/>
<path d="M966.878 572.923L965.693 497.584H984.269V572.923" fill="#EDEDED"/>
<path d="M966.878 572.923L965.693 497.584H984.269V572.923" stroke="#DDDDDD" stroke-linecap="round" stroke-linejoin="round"/>
<path d="M885.739 572.923L863.916 499.516L880.82 495.587" stroke="#DDDDDD" stroke-width="0.75" stroke-linecap="round" stroke-linejoin="round"/>
<path d="M903.178 572.598C902.984 572.923 878.416 487.211 878.416 487.211L898.307 485.782L924.726 572.923" fill="#EDEDED"/>
<path d="M903.178 572.598C902.984 572.923 878.416 487.211 878.416 487.211L898.307 485.782L924.726 572.923" stroke="#DDDDDD" stroke-linecap="round" stroke-linejoin="round"/>
<path d="M905.176 508.412L930.49 505.539L959.344 572.923" stroke="#DDDDDD" stroke-width="0.75" stroke-linecap="round" stroke-linejoin="round"/>
<path d="M979.901 450.686C980.128 450.686 1001.74 369.032 1001.74 369.032L1016.35 371.078L995.911 450.621" fill="#DDDDDD"/>
<path d="M979.901 450.686C980.128 450.686 1001.74 369.032 1001.74 369.032L1016.35 371.078L995.911 450.621" stroke="#DDDDDD" stroke-miterlimit="10"/>
<path d="M1019.57 448.705L1018.97 363.286H1044.64L1043.49 445.654" fill="#F9F9F9"/>
<path d="M1019.57 448.705L1018.97 363.286H1044.64L1043.49 445.654" stroke="#DDDDDD" stroke-width="0.75" stroke-linecap="round" stroke-linejoin="round"/>
<path d="M1044.56 369.032H1074.22L1072.15 446.498" fill="#F9F9F9"/>
<path d="M1044.56 369.032H1074.22L1072.15 446.498" stroke="#DDDDDD" stroke-width="0.75" stroke-linecap="round" stroke-linejoin="round"/>
<path d="M1139.97 361.484L1161.18 363.286L1137.79 450.686L1120.35 444.68L1139.97 361.484Z" stroke="#EDEDED" stroke-linecap="round" stroke-linejoin="round"/>
<path d="M1159.63 449.858L1180.6 373.188L1159.63 369.032L1137.79 450.686" fill="#EDEDED"/>
<path d="M1159.63 449.858L1180.6 373.188L1159.63 369.032L1137.79 450.686" stroke="#DDDDDD" stroke-linecap="round" stroke-linejoin="round"/>
<path d="M956.389 428.625H968.453V450.686" stroke="#EDEDED" stroke-linecap="round" stroke-linejoin="round"/>
<path d="M883.434 430.151L883.97 450.686" stroke="#EDEDED" stroke-linecap="round" stroke-linejoin="round"/>
<path d="M971.717 400.85H883.97V414.859H971.717V400.85Z" stroke="#EDEDED" stroke-linecap="round" stroke-linejoin="round"/>
<path d="M883.97 414.859H872.847V430.362L956.389 428.625V414.859" fill="#EDEDED"/>
<path d="M883.97 414.859H872.847V430.362L956.389 428.625V414.859" stroke="#DDDDDD" stroke-linecap="round" stroke-linejoin="round"/>
<path d="M1180.6 450.686H863.916V472.147H1180.6V450.686Z" stroke="#DDDDDD" stroke-linecap="round" stroke-linejoin="round"/>
<path d="M1180.6 572.923H863.916V594.383H1180.6V572.923Z" stroke="#DDDDDD" stroke-linecap="round" stroke-linejoin="round"/>
<path d="M1203.88 327.037V844.295C1196.39 841.796 1188.63 839.382 1180.6 837.055C1097.41 812.852 985.746 797.04 863.965 787.69C856.258 787.084 848.496 786.516 840.68 785.985V327.037H1203.88Z" stroke="#DDDDDD" stroke-width="2" stroke-linecap="round" stroke-linejoin="round"/>
<path d="M24.5349 813.615C52.8694 806.975 93.6417 800.823 143.377 795.531C162.862 793.453 183.825 791.505 205.94 789.703C214.6 789.01 223.423 788.329 232.407 787.658C238.762 787.203 245.203 786.759 251.73 786.326C270.219 785.082 289.314 783.94 309.016 782.901C399.475 778.177 501.268 775.872 604.636 776.976C611.066 777.041 617.507 777.128 623.958 777.236C636.948 777.409 649.895 777.652 662.799 777.966C676.167 778.291 689.525 778.664 702.873 779.086C749.409 780.596 795.638 782.853 840.632 785.986C848.437 786.516 856.198 787.084 863.916 787.69L869.307 788.112C911.395 791.359 952.118 795.482 990.991 800.433C1054.93 808.55 1113.41 819.037 1163.11 832.186C1169.08 833.777 1174.93 835.4 1180.66 837.056C1188.69 839.393 1196.45 841.807 1203.95 844.296C1231.55 853.5 1255.39 863.776 1274.53 875.253" stroke="#DDDDDD" stroke-width="2" stroke-linecap="round" stroke-linejoin="round"/>
<path d="M604.636 234.214V776.976C478.811 775.645 355.277 779.362 251.73 786.326V234.214H604.636Z" fill="#F9F9F9" stroke="#DDDDDD" stroke-linecap="round" stroke-linejoin="round"/>
<path d="M491.915 743.795L518.756 661.995L534.263 663.521L510.686 743.649" stroke="#EDEDED" stroke-linecap="round" stroke-linejoin="round"/>
<path d="M531.876 743.649L559.122 644.009H540.157L534.263 663.521" stroke="#EDEDED" stroke-linecap="round" stroke-linejoin="round"/>
<path d="M550.549 743.649L570.521 659.804L555.063 658.846L531.876 743.649" fill="#EDEDED"/>
<path d="M550.549 743.649L570.521 659.804L555.063 658.846L531.876 743.649" stroke="#DDDDDD" stroke-linecap="round" stroke-linejoin="round"/>
<path d="M604.636 641.411C604.636 641.801 574.142 641.411 574.142 641.411L575.262 742.837" stroke="#EDEDED" stroke-linecap="round" stroke-linejoin="round"/>
<path d="M481.215 528.72H504.386L522.945 607.046H502.129" fill="#EDEDED"/>
<path d="M481.215 528.72H504.386L522.945 607.046H502.129" stroke="#DDDDDD" stroke-linecap="round" stroke-linejoin="round"/>
<path d="M541.505 520.586H522.945C522.945 520.586 524.471 607.126 526.095 607.126H543.956" fill="#F9F9F9"/>
<path d="M541.505 520.586H522.945C522.945 520.586 524.471 607.126 526.095 607.126H543.956" stroke="#DDDDDD" stroke-linecap="round" stroke-linejoin="round"/>
<path d="M543.956 607.126C542.836 605.763 541.472 506.058 541.472 506.058H563.798V607.126" fill="#F9F9F9"/>
<path d="M543.956 607.126C542.836 605.763 541.472 506.058 541.472 506.058H563.798V607.126" stroke="#DDDDDD" stroke-linecap="round" stroke-linejoin="round"/>
<path d="M579.679 607.126L602.411 522.405L586.174 516.82C586.174 516.82 563.75 593.766 563.75 594.399V607.126" fill="#EDEDED"/>
<path d="M579.679 607.126L602.411 522.405L586.174 516.82C586.174 516.82 563.75 593.766 563.75 594.399V607.126" stroke="#DDDDDD" stroke-linecap="round" stroke-linejoin="round"/>
<path d="M484.527 607.045L460.284 518.135L478.276 515.213L502.128 607.045" fill="#F9F9F9"/>
<path d="M484.527 607.045L460.284 518.135L478.276 515.213L502.128 607.045" stroke="#DDDDDD" stroke-linecap="round" stroke-linejoin="round"/>
<path d="M382.426 564.66L375.054 564.108V572.452" stroke="#EDEDED" stroke-linecap="round" stroke-linejoin="round"/>
<path d="M457.93 568.28L457.264 581.494" stroke="#EDEDED" stroke-linecap="round" stroke-linejoin="round"/>
<path d="M386.615 547.794L384.731 532.616H458.758V547.794" stroke="#EDEDED" stroke-linecap="round" stroke-linejoin="round"/>
<path d="M382.426 564.66L381.208 547.794H464.311L465.269 568.443L382.426 564.66Z" fill="#DDDDDD" stroke="#DDDDDD" stroke-miterlimit="10"/>
<path d="M381.208 579.433L461.827 581.494V607.046" stroke="#EDEDED" stroke-linecap="round" stroke-linejoin="round"/>
<path d="M402.901 418.69H304.681V434.42H402.901V418.69Z" stroke="#DDDDDD" stroke-width="0.75" stroke-linecap="round" stroke-linejoin="round"/>
<path d="M398.355 470.101C399.166 471.594 398.355 448.218 398.355 448.218L318.434 447.131V470.426" stroke="#DDDDDD" stroke-width="0.75" stroke-linecap="round" stroke-linejoin="round"/>
<path d="M393.548 434.42V448.153" stroke="#DDDDDD" stroke-width="0.75" stroke-linecap="round" stroke-linejoin="round"/>
<path d="M411.929 470.555L415.323 362.506L440.605 363.967L438.429 470.442" fill="#EDEDED"/>
<path d="M411.929 470.555L415.323 362.506L440.605 363.967L438.429 470.442" stroke="#DDDDDD" stroke-linecap="round" stroke-linejoin="round"/>
<path d="M440.475 370.217H461.551L459.635 470.442" stroke="#DDDDDD" stroke-width="0.75" stroke-linecap="round" stroke-linejoin="round"/>
<path d="M323.987 435.492L324.799 447.212" stroke="#DDDDDD" stroke-width="0.75" stroke-linecap="round" stroke-linejoin="round"/>
<path d="M251.73 380.525H274.495L278.506 470.555" stroke="#EDEDED" stroke-linecap="round" stroke-linejoin="round"/>
<path d="M297.455 470.101L294.808 387.733L274.771 386.662" stroke="#EDEDED" stroke-linecap="round" stroke-linejoin="round"/>
<path d="M461.551 470.442L483.975 377.814L507.519 383.204" stroke="#EDEDED" stroke-linecap="round" stroke-linejoin="round"/>
<path d="M483.537 470.442L510.734 370.217L534.019 379.34L510.101 470.442" stroke="#EDEDED" stroke-linecap="round" stroke-linejoin="round"/>
<path d="M566.9 470.555L565.504 362.506L534.149 361.321V470.555" stroke="#EDEDED" stroke-linecap="round" stroke-linejoin="round"/>
<path d="M593.757 470.555L592.117 371.289H565.503L567.793 470.555" fill="#EDEDED"/>
<path d="M593.757 470.555L592.117 371.289H565.503L567.793 470.555" stroke="#DDDDDD" stroke-linecap="round" stroke-linejoin="round"/>
<path d="M604.636 470.426H251.714V491.902H604.636V470.426Z" stroke="#DDDDDD" stroke-linecap="round" stroke-linejoin="round"/>
<path d="M604.636 607.045H251.714V628.506H604.636V607.045Z" stroke="#DDDDDD" stroke-linecap="round" stroke-linejoin="round"/>
<path d="M604.636 743.649H251.714V765.126H604.636V743.649Z" stroke="#DDDDDD" stroke-width="2" stroke-linecap="round" stroke-linejoin="round"/>
<path d="M623.958 206.845V777.236C617.463 777.128 611.023 777.041 604.636 776.976C478.811 775.645 355.276 779.362 251.73 786.327C245.235 786.749 238.794 787.192 232.407 787.658V206.845H623.958Z" stroke="#DDDDDD" stroke-width="2" stroke-linecap="round" stroke-linejoin="round"/>
<path d="M470.595 245.35L466.991 256.649L442.358 333.838H427.29L456.696 241.617L470.595 245.35Z" stroke="#DDDDDD" stroke-width="0.75" stroke-linecap="round" stroke-linejoin="round"/>
<path d="M467.007 256.649L488.051 262.233L466.244 333.838" stroke="#DDDDDD" stroke-width="0.75" stroke-linecap="round" stroke-linejoin="round"/>
<path d="M488.554 234.23L486.768 333.822" stroke="#DDDDDD" stroke-width="0.75" stroke-linecap="round" stroke-linejoin="round"/>
<path d="M496.315 242.217H517.635" stroke="#DDDDDD" stroke-width="0.75" stroke-linecap="round" stroke-linejoin="round"/>
<path d="M523.952 234.23V333.822" stroke="#DDDDDD" stroke-width="0.75" stroke-linecap="round" stroke-linejoin="round"/>
<path d="M523.952 286.957L538.241 333.822" stroke="#DDDDDD" stroke-width="0.75" stroke-linecap="round" stroke-linejoin="round"/>
<path d="M551.198 333.822L565.503 327.832L536.455 252.964L523.952 256.649" stroke="#DDDDDD" stroke-width="0.75" stroke-linecap="round" stroke-linejoin="round"/>
<path d="M562.857 328.936L564.627 333.822H570.781L581.319 328.498L562.597 263.986L542.706 269.084" stroke="#DDDDDD" stroke-width="0.75" stroke-linecap="round" stroke-linejoin="round"/>
<path d="M604.636 333.822H251.714V355.283H604.636V333.822Z" stroke="#DDDDDD" stroke-linecap="round" stroke-linejoin="round"/>
<path d="M290.343 333.838H273.943L251.73 262.266L269.413 256.649L290.505 324.374" stroke="#EDEDED" stroke-linecap="round" stroke-linejoin="round"/>
<path d="M312.945 333.838H290.343L290.505 324.374L291.918 243.743H311.305L311.776 268.726L313.01 333.838" stroke="#EDEDED" stroke-linecap="round" stroke-linejoin="round"/>
<path d="M359.206 333.838H333.453L332.3 263.142L331.959 242.331L354.611 241.617C354.611 241.617 354.822 245.821 355.147 252.542C356.121 272.72 358.216 315.332 359.206 333.838Z" stroke="#EDEDED" stroke-linecap="round" stroke-linejoin="round"/>
<path d="M312.945 333.839L311.776 268.727L311.598 258.272L332.3 263.142H332.317L333.453 333.839H313.01" fill="#EDEDED"/>
<path d="M312.945 333.839L311.776 268.727L311.598 258.272L332.3 263.142H332.317L333.453 333.839H313.01" stroke="#DDDDDD" stroke-linecap="round" stroke-linejoin="round"/>
<path d="M359.206 333.839H381.695L379.714 256.649L379.617 252.542H355.147L359.206 333.839Z" fill="#EDEDED" stroke="#DDDDDD" stroke-linecap="round" stroke-linejoin="round"/>
<path d="M379.714 256.649H404.444L405.207 333.838H381.695" stroke="#EDEDED" stroke-linecap="round" stroke-linejoin="round"/>
<path d="M861.773 893.678L978.975 849.003L1095.28 861.99C1095.28 861.99 1103.26 864.782 1099.49 874.603L984.431 931.793L861.773 893.678Z" fill="#F9F9F9" stroke="#EDEDED" stroke-linecap="round" stroke-linejoin="round"/>
<path d="M985.811 916.615C985.811 916.615 1061.82 881.21 1095.28 862.055Z" fill="#F9F9F9"/>
<path d="M985.811 916.615C985.811 916.615 1061.82 881.21 1095.28 862.055" stroke="#EDEDED" stroke-linecap="round" stroke-linejoin="round"/>
<path d="M861.773 893.677C861.773 893.677 978.975 910.917 985.811 916.615C988.929 919.212 989.205 932.589 982.385 931.712C975.565 930.835 861.773 913.709 861.773 913.709C861.773 913.709 878.449 906.112 861.773 893.677Z" fill="#EDEDED" stroke="#DDDDDD" stroke-linecap="round" stroke-linejoin="round"/>
<path d="M1016.73 284.892C1047.79 278.557 1067.84 248.248 1061.5 217.195C1055.17 186.142 1024.85 166.103 993.787 172.438C962.726 178.773 942.683 209.082 949.019 240.135C955.355 271.188 985.672 291.226 1016.73 284.892Z" stroke="#EDEDED" stroke-width="2" stroke-linecap="round" stroke-linejoin="round"/>
<path d="M1033.05 244.75L1012.03 229.653C1012.09 229.315 1012.12 228.973 1012.13 228.63C1012.13 227.387 1011.79 226.168 1011.14 225.104C1010.5 224.04 1009.58 223.172 1008.48 222.591C1008.11 214.75 1007.42 200.416 1006.77 186.975C1006.64 184.199 1003.98 184.216 1003.87 186.975L1002.24 222.429C1000.86 223.113 999.757 224.241 999.097 225.631C998.438 227.021 998.266 228.593 998.61 230.093C998.953 231.593 999.791 232.934 1000.99 233.899C1002.19 234.865 1003.68 235.399 1005.22 235.416C1006.66 235.416 1008.06 234.955 1009.23 234.101L1031.41 247.087C1033.86 248.629 1035.32 246.373 1033.05 244.75Z" fill="#DDDDDD" stroke="#DDDDDD" stroke-miterlimit="10"/>
<path d="M427.468 839.556L586.174 869.457C586.174 869.457 575.295 887.168 589.421 892.379L474.866 923.677C474.866 923.677 328.55 890.09 323.272 887.785C317.995 885.48 312.296 874.457 325.481 870.172C338.666 865.886 427.468 839.556 427.468 839.556Z" fill="#F9F9F9" stroke="#DDDDDD" stroke-linecap="round" stroke-linejoin="round"/>
<path d="M474.866 923.676C468.939 922.978 465.01 910.186 476.912 905.82C488.375 901.599 586.109 869.522 586.109 869.522" fill="#F9F9F9"/>
<path d="M474.866 923.676C468.939 922.978 465.01 910.186 476.912 905.82C488.375 901.599 586.109 869.522 586.109 869.522" stroke="#EDEDED" stroke-linecap="round" stroke-linejoin="round"/>
<path d="M344.917 878.743L451.646 904.18" stroke="#DDDDDD" stroke-linecap="round" stroke-linejoin="round"/>
<path d="M118.42 885.788C135.307 881.876 132.271 876.519 127.854 866.162C123.438 855.805 109.993 845.643 89.0303 850.059C68.0677 854.474 68.0677 874.539 84.4351 880.269C100.802 885.999 109.863 887.769 118.42 885.788Z" fill="#F9F9F9" stroke="#EDEDED" stroke-linecap="round" stroke-linejoin="round"/>
<path d="M122.252 870.87C124.249 874.678 125.88 878.668 127.123 882.785Z" fill="#F9F9F9"/>
<path d="M122.252 870.87C124.249 874.678 125.88 878.668 127.123 882.785" stroke="#DDDDDD" stroke-linecap="round" stroke-linejoin="round"/>
<path d="M114.767 865.025C116.252 867.296 117.942 869.426 119.817 871.389C121.96 873.515 124.249 872.671 123.827 870.415C123.035 866.859 121.359 863.559 118.956 860.821C118.381 860.367 117.658 860.14 116.927 860.183C116.195 860.226 115.505 860.537 114.987 861.057C114.47 861.576 114.161 862.267 114.121 862.999C114.08 863.731 114.31 864.452 114.767 865.025V865.025Z" fill="#F9F9F9" stroke="#DDDDDD" stroke-linecap="round" stroke-linejoin="round"/>
<path d="M852.761 42.2065V240.399C851.93 240.999 851.252 241.786 850.784 242.698C850.315 243.609 850.069 244.618 850.066 245.643V251.048C850.069 252.073 850.315 253.082 850.784 253.994C851.252 254.905 851.93 255.692 852.761 256.292V263.986H860.376V256.292C861.205 255.691 861.879 254.902 862.345 253.991C862.81 253.08 863.054 252.072 863.056 251.048V245.643C863.054 244.619 862.81 243.611 862.345 242.7C861.879 241.789 861.205 241 860.376 240.399V42.2065" fill="#EDEDED"/>
<path d="M852.761 42.2065V240.399C851.93 240.999 851.252 241.786 850.784 242.698C850.315 243.609 850.069 244.618 850.066 245.643V251.048C850.069 252.073 850.315 253.082 850.784 253.994C851.252 254.905 851.93 255.692 852.761 256.292V263.986H860.376V256.292C861.205 255.691 861.879 254.902 862.345 253.991C862.81 253.08 863.054 252.072 863.056 251.048V245.643C863.054 244.619 862.81 243.611 862.345 242.7C861.879 241.789 861.205 241 860.376 240.399V42.2065" stroke="#DDDDDD" stroke-width="2" stroke-linecap="round" stroke-linejoin="round"/>
<path d="M523.497 42.2065V240.399C522.669 241 521.994 241.789 521.529 242.7C521.063 243.611 520.82 244.619 520.818 245.643V251.048C520.82 252.072 521.063 253.08 521.529 253.991C521.994 254.902 522.669 255.691 523.497 256.292V263.986H531.112V256.292C531.944 255.692 532.621 254.905 533.09 253.994C533.558 253.082 533.804 252.073 533.808 251.048V245.643C533.804 244.618 533.558 243.609 533.09 242.698C532.621 241.786 531.944 240.999 531.112 240.399V42.2065" fill="#EDEDED"/>
<path d="M523.497 42.2065V240.399C522.669 241 521.994 241.789 521.529 242.7C521.063 243.611 520.82 244.619 520.818 245.643V251.048C520.82 252.072 521.063 253.08 521.529 253.991C521.994 254.902 522.669 255.691 523.497 256.292V263.986H531.112V256.292C531.944 255.692 532.621 254.905 533.09 253.994C533.558 253.082 533.804 252.073 533.808 251.048V245.643C533.804 244.618 533.558 243.609 533.09 242.698C532.621 241.786 531.944 240.999 531.112 240.399V42.2065" stroke="#DDDDDD" stroke-width="2" stroke-linecap="round" stroke-linejoin="round"/>
<path d="M876.354 247.656H507.519V270.642H876.354V247.656Z" fill="#EDEDED" stroke="#DDDDDD" stroke-width="2" stroke-linecap="round" stroke-linejoin="round"/>
<path d="M881.355 253.581H876.354V264.733H881.355V253.581Z" fill="#F9F9F9" stroke="#DDDDDD" stroke-linecap="round" stroke-linejoin="round"/>
<path d="M860.523 270.642H523.335C520.42 270.642 518.057 273.004 518.057 275.918V276.243C518.057 279.156 520.42 281.518 523.335 281.518H860.523C863.437 281.518 865.8 279.156 865.8 276.243V275.918C865.8 273.004 863.437 270.642 860.523 270.642Z" fill="#F9F9F9" stroke="#DDDDDD" stroke-linecap="round" stroke-linejoin="round"/>
<path d="M834.997 873.954L950.397 828.144L1064.92 839.945C1064.92 839.945 1072.68 848.971 1067.4 859.23L955.772 910.787L834.997 873.954Z" fill="#F9F9F9" stroke="#DDDDDD" stroke-linecap="round" stroke-linejoin="round"/>
<path d="M957.136 895.625C957.136 895.625 1050.24 853.078 1064.92 839.945Z" fill="#F9F9F9"/>
<path d="M957.136 895.625C957.136 895.625 1050.24 853.078 1064.92 839.945" stroke="#DDDDDD" stroke-linecap="round" stroke-linejoin="round"/>
<path d="M834.997 873.954C834.997 873.954 950.397 889.993 957.136 895.626C960.188 898.19 960.481 911.567 953.742 910.755C947.004 909.943 834.997 893.986 834.997 893.986C834.997 893.986 851.348 886.227 834.997 873.954Z" fill="#F9F9F9" stroke="#EDEDED" stroke-linecap="round" stroke-linejoin="round"/>
<path d="M429.238 686.67C443.121 704.121 477.334 774.33 450.656 794.898C413.764 823.338 371.092 744.737 363.265 721.848L429.238 686.67Z" fill="#FEBD9D"/>
<path d="M433.103 683.764C433.103 683.764 427.907 687.774 419.658 693.309C404.687 703.358 379.665 718.39 357.485 723.325C357.485 723.325 355.195 718.747 351.704 711.848L343.91 696.41C339.218 687.076 334.005 676.719 329.556 667.839L324.377 657.45C323.419 655.534 322.558 653.797 321.827 652.288C308.837 625.974 294.305 563.978 336.977 559.855C340.623 559.476 344.295 559.4 347.953 559.628H348.132C349.139 559.709 350.113 559.806 351.071 559.936L351.883 560.05L353.312 560.31C353.88 560.407 354.448 560.537 354.935 560.667C355.423 560.797 355.812 560.878 356.234 561.008L356.835 561.154L358.069 561.56C358.461 561.678 358.846 561.819 359.222 561.982C359.617 562.099 360.002 562.246 360.375 562.42C360.824 562.591 361.263 562.786 361.69 563.004C362.084 563.169 362.468 563.353 362.843 563.556V563.556C363.352 563.794 363.839 564.054 364.305 564.336C364.727 564.563 365.133 564.806 365.522 565.05L366.529 565.715C367.712 566.5 368.851 567.351 369.939 568.264C370.41 568.654 370.864 569.027 371.303 569.449C372.781 570.789 374.185 572.209 375.508 573.702C375.947 574.205 376.401 574.725 376.84 575.326C377.278 575.926 377.522 576.153 377.863 576.575C378.415 577.257 378.967 577.972 379.487 578.718C379.86 579.189 380.217 579.692 380.575 580.196C381.127 580.958 381.679 581.819 382.198 582.566C382.718 583.312 383.059 583.816 383.481 584.497L384.813 586.608C385.267 587.322 385.706 588.052 386.16 588.815C387.199 590.52 388.222 592.322 389.262 594.189C389.586 594.806 389.944 595.439 390.285 596.072C390.626 596.705 391.21 597.792 391.681 598.685C392.152 599.578 392.59 600.309 393.029 601.25C393.467 602.192 394.052 603.214 394.571 604.237C395.643 606.347 396.715 608.474 397.819 610.617C410.062 635.08 422.565 661.541 428.816 674.933C431.576 680.453 433.103 683.764 433.103 683.764Z" fill="#A7CAF0"/>
<path d="M397.981 610.601C386.029 611.022 374.717 616.102 366.464 624.756C365.318 625.955 364.234 627.212 363.217 628.522C352.896 641.263 339.541 651.209 324.377 657.45C323.419 655.534 322.558 653.797 321.827 652.288C308.837 625.974 294.305 563.978 336.977 559.855C340.623 559.476 344.295 559.4 347.953 559.628H348.132C349.139 559.709 350.113 559.806 351.071 559.936L351.883 560.05L353.312 560.31C353.88 560.407 354.448 560.537 354.935 560.667C355.423 560.797 355.812 560.878 356.234 561.008L356.835 561.154L358.069 561.56C358.461 561.678 358.846 561.819 359.222 561.982C359.617 562.099 360.002 562.246 360.375 562.42C360.824 562.591 361.263 562.786 361.69 563.004C362.084 563.169 362.468 563.353 362.843 563.556V563.556C363.352 563.794 363.839 564.054 364.305 564.336C364.727 564.563 365.133 564.806 365.522 565.05L366.529 565.715C367.712 566.5 368.851 567.351 369.939 568.264C370.41 568.654 370.864 569.027 371.303 569.449C372.781 570.789 374.185 572.209 375.508 573.702C375.947 574.205 376.401 574.725 376.84 575.326C377.278 575.926 377.522 576.153 377.863 576.575C378.415 577.257 378.967 577.972 379.487 578.718C379.86 579.189 380.217 579.692 380.575 580.196C381.127 580.958 381.679 581.819 382.198 582.566C382.718 583.312 383.059 583.816 383.481 584.497L384.813 586.608C385.267 587.322 385.706 588.052 386.16 588.815C387.199 590.52 388.222 592.322 389.262 594.189C389.586 594.806 389.944 595.439 390.285 596.072C390.626 596.705 391.21 597.792 391.681 598.685C392.152 599.578 392.59 600.309 393.029 601.25C393.467 602.192 394.052 603.214 394.571 604.237C395.854 606.331 396.926 608.458 397.981 610.601Z" fill="#7BBDFF"/>
<path d="M419.658 693.309C404.687 703.358 379.665 718.39 357.485 723.325C357.485 723.325 355.195 718.747 351.704 711.848L343.91 696.41C339.218 687.076 334.005 676.719 329.556 667.839L354.919 643.181C355.91 642.807 375.314 643.798 369.322 660.063C363.33 676.329 352.76 687.222 361.382 693.829C370.004 700.436 394.912 647.158 416.882 686.621C418.078 688.728 419.011 690.974 419.658 693.309V693.309Z" fill="#A7CAF0"/>
<path d="M369.208 599.708C369.208 600.568 369.208 601.445 369.078 602.354C368.802 606.883 368.299 611.964 367.617 617.678C367.373 619.837 366.984 622.191 366.464 624.756C365.863 627.856 365.084 631.249 364.191 634.804C361.349 645.973 357.144 659.3 352.191 673.521C351.607 675.144 351.006 676.93 350.389 678.634C349.301 681.735 348.165 684.852 347.028 687.985C346.01 690.777 344.971 693.585 343.91 696.41C331.765 728.877 317.784 762.382 309.016 782.901C289.336 783.929 270.241 785.071 251.73 786.326C245.235 786.748 238.794 787.192 232.407 787.657C223.412 788.328 214.589 789.01 205.94 789.703C183.825 791.505 162.911 793.453 143.377 795.531C146.933 778.047 156.562 731.734 167.88 683.358C174.115 656.736 180.87 629.48 187.365 606.071C191.96 589.595 196.458 575.033 200.566 563.865C204.852 552.355 208.684 544.515 211.932 542.031C223.201 533.427 232.911 530.668 245.073 532.161C246.404 532.34 247.752 532.551 249.148 532.81C250.545 533.07 251.957 533.395 253.419 533.752C253.955 533.865 254.49 534.012 255.042 534.158C255.595 534.304 256.195 534.482 256.78 534.645L258.615 535.164C261.505 536.03 264.574 537.042 267.821 538.2L269.835 538.914C271.459 539.498 273.082 540.115 274.836 540.781C278.083 541.998 281.526 543.362 285.196 544.807C294.37 548.459 306.45 553.362 332.057 558.751C333.762 559.092 335.402 559.465 336.928 559.823L338.292 560.131L339.607 560.456C340.257 560.602 340.923 560.78 341.54 560.943C342.157 561.105 342.79 561.267 343.391 561.43C344.609 561.754 345.778 562.079 346.898 562.436C348.7 563.004 350.389 563.589 351.964 564.222L353.442 564.839C354.383 565.277 355.277 565.715 356.105 566.17L357.209 566.787C358.918 567.788 360.499 568.992 361.918 570.374L362.194 570.65L362.583 571.072L363.103 571.657C363.617 572.265 364.099 572.899 364.548 573.556C364.792 573.929 365.019 574.286 365.246 574.692C365.474 575.098 365.604 575.309 365.766 575.65L365.993 576.105C367.311 578.93 368.188 581.941 368.591 585.033C368.591 585.439 368.705 585.845 368.77 586.283C368.835 586.721 368.77 586.819 368.867 587.111C368.965 587.403 368.965 588.036 368.997 588.507C369.03 588.978 369.078 589.546 369.095 590.13V590.828C369.095 591.396 369.095 591.981 369.095 592.581C369.354 594.773 369.322 597.143 369.208 599.708Z" fill="#A7CAF0"/>
<path d="M309.016 782.901C317.784 762.382 331.748 728.925 343.91 696.41C344.993 693.585 346.032 690.777 347.028 687.985C348.164 684.852 349.301 681.735 350.389 678.634C351.006 676.93 351.607 675.209 352.191 673.521C357.063 659.3 361.349 645.924 364.191 634.804" stroke="#7BBDFF" stroke-width="0.75" stroke-linecap="round" stroke-linejoin="round"/>
<path d="M367.617 617.678C367.373 619.837 366.984 622.191 366.464 624.756C365.318 625.955 364.234 627.212 363.217 628.522C352.896 641.263 339.541 651.209 324.377 657.45C300.865 666.751 273.375 664.446 255.611 628.067C252.477 621.574 249.408 615.762 246.437 610.422C230.459 581.9 216.251 568.215 200.598 563.897C204.885 552.387 208.717 544.547 211.964 542.063C223.233 533.459 232.943 530.7 245.105 532.193C246.437 532.372 247.784 532.583 249.181 532.843C250.577 533.102 251.99 533.427 253.451 533.784C253.987 533.898 254.523 534.044 255.075 534.19C255.627 534.336 256.228 534.515 256.812 534.677L258.647 535.196C261.537 536.062 264.606 537.074 267.854 538.232L269.867 538.946C271.491 539.531 273.115 540.148 274.868 540.813C276.216 541.333 277.629 541.852 279.058 542.436C280.016 542.794 280.958 543.167 281.948 543.573L285.196 544.855C294.37 548.508 306.45 553.41 332.057 558.8C333.762 559.141 335.402 559.514 336.928 559.871C366.968 566.689 372.862 574.189 367.617 617.678Z" fill="#7BBDFF"/>
<path d="M348.002 559.628C342.79 575.699 329.767 592.338 309.877 589.319C288.167 586.072 274.787 563.654 274.885 540.813C278.132 542.031 281.575 543.395 285.244 544.839C294.418 548.492 306.499 553.394 332.106 558.784C333.811 559.125 335.451 559.498 336.977 559.855C340.639 559.474 344.327 559.398 348.002 559.628V559.628Z" fill="white"/>
<path d="M265.11 767.366C256.553 774.184 233.333 783.599 205.94 789.703C183.825 791.505 162.911 793.453 143.377 795.531C146.933 778.047 156.562 731.733 167.88 683.358C174.115 656.735 180.87 629.48 187.365 606.071C235.168 612.792 247.914 663.391 226.205 680.501C201.848 699.754 199.169 715.744 230.004 715.322C260.839 714.9 289.206 748.194 265.11 767.366Z" fill="#A7CAF0"/>
<path d="M341.329 498.038C341.101 500.344 340.858 502.535 340.647 504.629C338.731 523.362 337.87 534.872 337.74 545.44C337.74 551.024 337.74 556.349 338.13 562.339C338.13 562.339 330.531 587.273 303.463 576.949C284.367 569.644 285.244 544.888 285.244 544.888C290.83 527.181 294.547 508.938 296.334 490.458C296.984 481.188 344.836 464.5 341.329 498.038Z" fill="#FEBD9D"/>
<path d="M340.647 504.629C338.731 523.362 337.87 534.872 337.74 545.44C322.217 550.147 306.044 532.015 315.008 512.113C321.503 498.006 333.129 500.798 340.647 504.629Z" fill="#F4A789"/>
<path d="M433.103 683.764C433.103 683.764 391.86 715.663 357.485 723.325C357.485 723.325 355.195 718.747 351.704 711.848C379.958 702.108 409.542 687.904 428.979 674.917C431.577 680.453 433.103 683.764 433.103 683.764Z" fill="white"/>
<path d="M351.932 522.924C342.839 534.758 326.682 531.999 301.498 506.447C291.967 496.707 280.974 481.01 281.266 468.591C281.558 456.173 296.594 430.021 325.107 445.037C336.116 450.848 343.992 462.049 348.993 474.257C350.883 478.925 352.388 483.741 353.49 488.656C356.819 503.542 356.153 517.421 351.932 522.924Z" fill="#FEBD9D"/>
<path d="M320.756 487.795C319.213 491.643 312.864 492.746 306.564 490.247C300.264 487.747 296.383 482.584 297.926 478.737C299.468 474.89 305.801 473.77 312.117 476.27C318.434 478.77 322.282 483.932 320.756 487.795Z" fill="#F4AF90"/>
<path d="M353.442 488.623C349.48 490.084 345.696 489.678 343.943 487.324C341.523 484.078 343.764 478.282 348.944 474.224C350.835 478.893 352.339 483.709 353.442 488.623Z" fill="#F4AF90"/>
<path d="M347.012 477.714C353.307 477.714 358.41 472.612 358.41 466.319C358.41 460.025 353.307 454.923 347.012 454.923C340.716 454.923 335.613 460.025 335.613 466.319C335.613 472.612 340.716 477.714 347.012 477.714Z" stroke="#683F1D" stroke-miterlimit="10"/>
<path d="M321.616 472.39C321.613 472.859 321.749 473.319 322.008 473.711C322.266 474.103 322.636 474.409 323.068 474.591C323.501 474.773 323.978 474.822 324.439 474.733C324.9 474.643 325.324 474.419 325.657 474.088C325.991 473.757 326.218 473.335 326.311 472.875C326.404 472.414 326.358 471.937 326.179 471.503C326 471.069 325.696 470.698 325.306 470.437C324.915 470.176 324.456 470.036 323.987 470.036C323.361 470.036 322.76 470.284 322.316 470.725C321.872 471.166 321.621 471.764 321.616 472.39Z" fill="#683F1D"/>
<path d="M338.13 468.689C338.13 469.158 338.269 469.616 338.529 470.006C338.79 470.395 339.16 470.699 339.593 470.879C340.026 471.058 340.503 471.105 340.963 471.013C341.423 470.922 341.845 470.696 342.177 470.365C342.508 470.033 342.734 469.611 342.826 469.151C342.917 468.692 342.87 468.215 342.691 467.782C342.511 467.349 342.207 466.979 341.818 466.718C341.428 466.458 340.969 466.319 340.5 466.319C339.872 466.319 339.269 466.569 338.824 467.013C338.38 467.457 338.13 468.06 338.13 468.689Z" fill="#683F1D"/>
<path d="M303.869 504.759C298.056 508.103 289.028 508.103 285.91 498.85C282.792 489.597 291.674 484.955 296.708 485.864C302.911 487 306.353 496.091 303.869 504.759Z" fill="#FEBD9D"/>
<path d="M300.767 496.286C297.942 490.929 291.561 489.792 288.849 497.049" stroke="#EF8A66" stroke-width="0.75" stroke-linecap="round" stroke-linejoin="round"/>
<path d="M299.192 494.077C292.291 490.977 290.911 502.746 298.867 499.775" stroke="#EF8A66" stroke-width="0.75" stroke-linecap="round" stroke-linejoin="round"/>
<path d="M345.372 466.66C342.546 461.271 338.916 456.345 334.606 452.05C327.608 455.978 322.915 452.39 322.915 452.39C322.915 452.39 316.095 459.679 309.73 457.91C303.365 456.14 303.836 451.709 299.826 450.702C295.815 449.696 291.95 453.949 291.95 455.166C291.95 456.384 294.029 457.147 297.845 466.189C301.66 475.231 300.524 487.909 292.73 489.337C290.245 489.792 277.824 488.087 271.621 478.721C271.497 478.566 271.383 478.404 271.28 478.234C265.223 468.413 268.763 461.351 270.825 458.754C272.887 456.157 276.119 457.309 276.573 454.842C279.204 440.8 292.145 428.722 306.012 427.424C319.879 426.125 319.44 431.173 319.44 431.173C319.44 431.173 333.291 430.118 340.809 439.68C341.264 440.248 341.686 440.816 342.059 441.384C344.572 445.035 346.183 449.229 346.759 453.623C347.335 458.017 346.859 462.485 345.372 466.66V466.66Z" fill="#7F542D"/>
<path d="M345.372 466.66C342.546 461.272 338.916 456.345 334.606 452.05C327.608 455.978 322.915 452.39 322.915 452.39C322.915 452.39 316.095 459.679 309.73 457.91C303.365 456.14 303.836 451.709 299.826 450.702C295.815 449.696 291.95 453.949 291.95 455.166C291.95 456.384 294.029 457.147 297.845 466.189C301.66 475.231 300.524 487.909 292.73 489.338C290.245 489.792 277.824 488.088 271.621 478.721C287.858 475.702 288.394 467.065 284.919 453.17C282.646 444.014 299.533 435.443 308.967 441.271C314.845 444.923 330.985 443.771 342.059 441.384C344.572 445.035 346.183 449.229 346.759 453.623C347.335 458.017 346.859 462.485 345.372 466.66V466.66Z" fill="#704725"/>
<path d="M319.473 431.19C313.866 431.174 308.312 432.277 303.138 434.436" stroke="#A56F42" stroke-width="0.75" stroke-linecap="round" stroke-linejoin="round"/>
<path d="M321.227 441.06C323.792 441.514 331.878 448.478 334.606 452.066C334.606 452.066 339.137 455.312 341.329 450.702" stroke="#A56F42" stroke-width="0.75" stroke-linecap="round" stroke-linejoin="round"/>
<path d="M306.402 445.183C308.659 443.202 313.059 443.754 316.144 447.131C318.116 449.2 320.375 450.977 322.85 452.407" stroke="#A56F42" stroke-width="0.75" stroke-linecap="round" stroke-linejoin="round"/>
<path d="M328.777 461.026C328.046 469.143 330.596 472.958 334.087 473.169C337.578 473.38 342.205 474.549 341.329 480.019" stroke="#EF8A66" stroke-width="0.75" stroke-linecap="round" stroke-linejoin="round"/>
<path d="M324.75 490.409C329.575 491.242 334.468 491.617 339.364 491.529C339.364 491.529 337.74 497.762 331.716 497.048C329.998 496.829 328.396 496.066 327.143 494.872C325.89 493.677 325.051 492.113 324.75 490.409V490.409Z" fill="white" stroke="#EF8A66" stroke-width="0.75" stroke-linecap="round" stroke-linejoin="round"/>
<path d="M308.756 474.825C308.756 477.072 309.423 479.269 310.672 481.138C311.921 483.007 313.696 484.463 315.773 485.323C317.85 486.183 320.135 486.408 322.34 485.97C324.545 485.531 326.57 484.449 328.16 482.86C329.749 481.271 330.832 479.246 331.27 477.042C331.709 474.837 331.484 472.553 330.623 470.476C329.763 468.4 328.306 466.625 326.437 465.377C324.568 464.128 322.37 463.461 320.122 463.461C317.108 463.461 314.217 464.659 312.085 466.79C309.954 468.921 308.756 471.811 308.756 474.825V474.825Z" stroke="#683F1D" stroke-miterlimit="10"/>
<path d="M330.531 456.287C330.32 460.345 341.702 459.533 341.799 457.78C341.897 456.027 330.742 452.423 330.531 456.287Z" fill="#7F542D"/>
<path d="M311.5 465.799C312.669 468.137 323.841 462.098 321.243 457.877C318.645 453.657 309.893 462.65 311.5 465.799Z" fill="#7F542D"/>
<path d="M303.869 504.759C300.978 506.461 297.587 507.109 294.272 506.594" stroke="#EF8A66" stroke-width="0.75" stroke-linecap="round" stroke-linejoin="round"/>
<path d="M234.859 631.298C220.522 652.125 208.782 673.147 198.211 692.497C172.118 740.24 157.195 774.979 125.029 774.557C95.6876 774.151 92.5538 731.052 126.766 660.924L118.128 652.888C118.128 652.888 143.28 616.233 167.474 579.416C189.329 546.186 208.457 522.096 245.121 532.161C266.766 538.151 260.32 594.14 234.859 631.298Z" fill="#FEBD9D"/>
<path d="M246.437 610.373C243.204 617.661 239.329 624.647 234.859 631.249C223.493 647.71 213.832 664.284 205.047 680.063C202.693 684.251 200.419 688.39 198.211 692.449C187.947 689.984 177.822 686.971 167.88 683.423C152.633 677.758 137.321 670.436 126.653 660.94L118.014 652.904C118.014 652.904 120.775 648.895 125.321 642.223C134.528 628.668 151.155 604.091 167.36 579.432C171.095 573.734 174.764 568.313 178.45 563.28C196.311 538.93 214.627 523.833 245.024 532.177C263.047 537.209 261.7 576.137 246.437 610.373Z" fill="#A7CAF0"/>
<path d="M205.047 680.176C202.693 684.364 200.419 688.504 198.211 692.562C175.738 687.01 144.627 676.978 126.766 661.005L118.128 652.969C118.128 652.969 120.888 648.959 125.435 642.288C138.766 656.751 156.627 665.956 205.047 680.176Z" fill="white"/>
<path d="M246.437 610.373C230.459 581.851 216.251 568.166 200.598 563.848C193.376 561.993 185.83 561.783 178.515 563.231C196.376 538.881 214.692 523.784 245.089 532.128C263.048 537.209 261.7 576.137 246.437 610.373Z" fill="#7BBDFF"/>
<path d="M246.534 610.178C243.291 617.552 239.383 624.616 234.859 631.282C220.522 652.109 208.782 673.131 198.211 692.481" stroke="#7BBDFF" stroke-width="0.75" stroke-linecap="round" stroke-linejoin="round"/>
<path d="M244.553 581.542C247.801 593.149 252.948 598.539 242.361 618.879" stroke="#7BBDFF" stroke-width="0.75" stroke-linecap="round" stroke-linejoin="round"/>
<path d="M105.625 742.805C118.079 712.79 163.69 711.799 218.768 731.88C273.845 751.961 334.395 772.074 343.569 774.557C352.743 777.041 351.022 808.29 327.933 806.553C304.843 804.816 217.518 812.381 166.418 802.885C115.319 793.388 97.4251 762.431 105.625 742.805Z" fill="#FEBD9D"/>
<path d="M131.313 721.166C145.926 716.848 165.119 717.481 187.056 722.432" stroke="#EF8A66" stroke-width="0.75" stroke-linecap="round" stroke-linejoin="round"/>
<path d="M474.996 775.483C499.352 740.483 511.92 602.305 511.92 602.305C511.92 602.305 536.357 590.942 540.417 588.199C544.476 585.455 552.367 571.722 553.731 567.615C553.731 567.615 560.583 563.427 560.372 561.121C560.161 558.816 557.644 558.816 557.644 558.816C557.644 558.816 559.268 553.573 550.419 555.05C550.001 554.501 549.436 554.082 548.789 553.84C548.143 553.599 547.441 553.546 546.765 553.686C544.135 553.995 512.829 563.313 512.829 563.313C512.829 563.313 525.608 554.417 525.819 550.862C526.03 547.307 521.711 548.687 518.772 550.456C512.819 553.962 506.417 556.643 499.742 558.427C496.608 559.336 486.752 567.225 477.853 584.286C468.955 601.348 416.735 713.682 411.036 728.877C392.395 778.843 434.451 833.549 474.996 775.483Z" fill="#FEBD9D"/>
<path d="M429.774 686.556C420.551 706.945 413.001 723.698 411.036 728.876" stroke="#EF8A66" stroke-width="0.75" stroke-linecap="round" stroke-linejoin="round"/>
<path d="M540.417 588.199C544.492 585.471 552.367 571.722 553.731 567.615C553.731 567.615 560.583 563.427 560.372 561.121C560.161 558.816 557.645 558.816 557.645 558.816C557.645 558.816 559.268 553.573 550.419 555.05C550.001 554.501 549.436 554.082 548.789 553.84C548.143 553.599 547.441 553.546 546.765 553.686C544.135 553.995 512.829 563.313 512.829 563.313C512.829 563.313 525.608 554.417 525.819 550.862C526.03 547.307 521.711 548.687 518.772 550.456C512.819 553.962 506.417 556.643 499.742 558.427" stroke="#EF8A66" stroke-width="0.75" stroke-linecap="round" stroke-linejoin="round"/>
<path d="M512.829 563.297L507.958 566.641C507.958 566.641 511.952 575.521 502.128 582.874" stroke="#EF8A66" stroke-width="0.75" stroke-linecap="round" stroke-linejoin="round"/>
<path d="M521.337 568.443L550.419 555.05" stroke="#EF8A66" stroke-width="0.75" stroke-linecap="round" stroke-linejoin="round"/>
<path d="M532.428 578.264C532.671 578.102 541.245 574.06 541.245 574.06C541.245 574.06 550.062 560.326 552.4 559.628C554.738 558.93 557.417 560.066 553.731 567.615" stroke="#EF8A66" stroke-width="0.75" stroke-linecap="round" stroke-linejoin="round"/>
<path d="M526.095 573.102L551.377 560.326" stroke="#EF8A66" stroke-width="0.75" stroke-linecap="round" stroke-linejoin="round"/>
<path d="M557.644 558.816L554.381 559.612" stroke="#EF8A66" stroke-width="0.75" stroke-linecap="round" stroke-linejoin="round"/>
<path d="M458.579 731.571C444.226 774.687 419.171 836.357 419.171 836.357L251.779 874.327L135.81 846.86V838.403L268.39 810.449C277.937 786.261 290.115 740.207 296.14 739.022C305.996 737.074 443.82 715.614 454.228 715.338C464.068 715.062 461.697 722.205 458.579 731.571Z" fill="#F9F9F9" stroke="#DDDDDD" stroke-linecap="round" stroke-linejoin="round"/>
<path d="M268.39 810.449L250.269 858.272" stroke="#DDDDDD" stroke-linecap="round" stroke-linejoin="round"/>
<path d="M252.038 865.026L251.779 874.327L135.81 846.86V838.403L252.038 865.026Z" fill="#EDEDED" stroke="#DDDDDD" stroke-linecap="round" stroke-linejoin="round"/>
<path d="M881.176 701.394C881.047 702.871 880.933 704.332 880.819 705.761C876.63 752.837 872.002 777.009 869.307 788.112L863.916 787.69C856.209 787.084 848.447 786.516 840.631 785.986C795.637 782.853 749.409 780.596 702.872 779.087C689.547 778.654 676.189 778.28 662.798 777.967C672.541 757.707 684.686 720.371 694.721 687.06C696.069 682.482 697.417 678.002 698.683 673.635C699.766 669.999 700.794 666.471 701.768 663.051C701.898 662.564 702.044 662.077 702.191 661.59C702.337 661.103 702.531 660.356 702.726 659.739C703.165 658.213 703.587 656.671 704.025 655.129C704.253 654.415 704.448 653.7 704.642 652.986C704.967 651.866 705.276 650.746 705.584 649.642C705.893 648.538 706.136 647.727 706.396 646.801C706.802 645.356 707.192 643.928 707.581 642.564C707.809 641.688 708.069 640.827 708.28 639.999L709.903 634.367C710.098 633.717 710.244 633.117 710.39 632.565C710.715 631.445 710.959 630.519 711.17 629.837C711.17 629.675 711.251 629.513 711.283 629.383C711.316 629.253 711.365 629.091 711.397 628.961C711.401 628.891 711.401 628.82 711.397 628.75V628.539C711.543 627.971 711.689 627.451 711.819 626.915L712.404 624.756C713.281 621.51 713.752 619.773 713.752 619.773C710.878 620.92 707.762 621.322 704.691 620.942C690.629 619.886 669.992 609.156 667.523 594.968C667.47 594.689 667.432 594.407 667.41 594.124C667.332 593.586 667.289 593.044 667.28 592.501C667.281 588.054 668.825 583.746 671.648 580.31C688.372 558.086 699.349 550.262 710.309 546.398C711.625 545.96 712.907 545.554 714.222 545.181C726.579 541.788 764.461 539.174 764.461 539.174C769.024 532.681 777.971 510.961 782.534 489.581C787.778 464.955 807.41 461.222 817.834 474.971C821.747 480.117 824.329 487.698 824.475 497.536C824.589 509.776 824.784 524.694 824.897 533.639C824.978 538.509 825.027 541.544 825.027 541.544C825.027 541.544 843.457 534.613 872.96 534.191C879.212 534.109 885.333 535.587 889.864 539.742C896.553 545.879 902.854 558.2 908.537 573.134C922.079 608.75 932.032 659.171 935.28 677.417C939.583 702.628 881.176 701.394 881.176 701.394Z" fill="#C3DCF8"/>
<path d="M893.387 667.97C878.873 671.261 863.747 670.651 849.546 666.2C834.38 673.002 778.653 683.472 741.355 679.901C704.058 676.33 702.467 663.213 702.467 663.213L701.703 663.035C706.169 647.532 711.446 628.523 711.446 628.523C711.446 628.523 713.752 628.993 717.941 629.659C753.981 634.889 790.667 633.624 826.261 625.925C826.261 625.925 855.489 634.172 884.619 628.068L893.387 667.97Z" fill="#000080"/>
<path d="M896.537 682.336C896.537 682.336 846.055 689.479 802.36 696.394C758.664 703.31 713.053 699.641 694.754 687.044L698.732 673.603C715.099 687.807 738.238 691.346 780.293 689.56C822.348 687.774 848.945 675.161 848.945 675.161C870.736 680.956 887.152 678.408 895.254 676.2L896.537 682.336Z" fill="#000080"/>
<path d="M908.618 573.183C885.772 571.446 858.168 582.339 835.208 602.809C815.333 620.503 776.964 642.938 748.029 614.172C742.167 608.42 735.334 603.749 727.846 600.374C710.553 592.517 689.282 590.179 667.361 592.517C667.363 588.07 668.906 583.762 671.729 580.326C688.454 558.102 699.43 550.278 710.39 546.414C711.706 545.976 712.988 545.57 714.304 545.197C726.66 541.804 764.543 539.19 764.543 539.19C769.105 532.697 778.052 510.977 782.615 489.598C787.86 464.972 807.491 461.238 817.915 474.988C821.828 480.133 824.41 487.714 824.556 497.552C824.67 509.792 824.865 524.71 824.979 533.655C825.06 538.525 825.108 541.56 825.108 541.56C825.108 541.56 843.538 534.629 873.041 534.207C879.293 534.126 885.414 535.603 889.945 539.759C896.635 545.927 902.935 558.248 908.618 573.183Z" fill="#000080"/>
<path d="M880.819 705.761C876.63 752.838 872.002 777.009 869.307 788.113L863.916 787.69C856.209 787.084 848.447 786.516 840.632 785.986C795.637 782.853 749.409 780.596 702.873 779.087C719.711 761.392 750.367 754.299 770.145 764.298C792.341 775.515 828.6 764.98 819.052 738.065C813.385 722.108 816.941 703.05 848.88 689.641L880.819 705.761Z" fill="#A7CAF0"/>
<path d="M889.945 539.791C880.446 541.301 867.862 546.528 852.452 552.291C847.029 554.32 841.281 556.414 835.208 558.427C815.538 565.218 795.039 569.313 774.269 570.602C766.48 571.064 758.668 571.005 750.887 570.423C744.919 570.023 739.018 568.934 733.302 567.177C721.075 563.216 714.255 556.219 710.374 546.479C711.69 546.041 712.989 545.635 714.304 545.262C719.873 543.736 730.671 542.372 740.803 541.317C747.217 540.635 753.404 540.116 757.836 539.775C761.928 539.434 764.543 539.255 764.543 539.255C769.105 532.762 778.052 511.042 782.615 489.662C787.86 465.036 807.491 461.303 817.915 475.052C821.828 480.198 824.41 487.779 824.556 497.617C824.67 509.857 824.865 524.775 824.979 533.72C825.06 538.59 825.108 541.625 825.108 541.625C829.508 540.112 834.006 538.897 838.569 537.989C842.986 537.048 848.409 536.122 854.693 535.408C860.786 534.723 866.91 534.344 873.042 534.272C879.125 534.231 885.058 536.168 889.945 539.791V539.791Z" fill="#B25E47"/>
<path d="M824.979 533.687C809.374 532.762 796.076 520.116 799.372 504.013C803.058 486.01 810.073 477.455 817.915 475.02C821.828 480.166 824.41 487.747 824.556 497.584C824.67 509.824 824.865 524.743 824.979 533.687Z" fill="#914839"/>
<path d="M854.693 535.375C853.448 540.936 852.704 546.597 852.469 552.291C847.045 554.32 841.297 556.414 835.224 558.427C835.489 551.49 836.618 544.614 838.586 537.957C842.986 537.015 848.409 536.09 854.693 535.375Z" fill="#7BBDFF"/>
<path d="M757.836 539.759C754.471 549.714 752.142 559.99 750.887 570.424C744.919 570.024 739.018 568.934 733.302 567.177C734.98 558.34 737.492 549.681 740.803 541.317C747.217 540.57 753.42 540.1 757.836 539.759Z" fill="#7BBDFF"/>
<path d="M904.591 735.484C902.87 752.139 899.72 768.697 894.248 780.272C890.87 787.398 886.6 792.609 881.177 794.784C870.281 799.183 860.912 798.031 853.443 793.891C840.063 786.505 832.821 769.704 833.958 758.811C833.958 758.292 834.055 757.707 834.12 757.188C834.25 755.564 834.364 753.828 834.478 751.88C834.478 751.246 834.478 750.581 834.607 749.899C834.607 749.769 834.607 749.639 834.607 749.493C834.607 749.006 834.607 748.503 834.607 748C834.607 747.107 834.705 746.165 834.737 745.24C834.77 744.315 834.737 743.779 834.835 743.016C834.835 742.756 834.835 742.497 834.835 742.237C834.835 741.479 834.867 740.7 834.932 739.899C834.932 739.088 834.932 738.276 835.046 737.416C835.046 735.565 835.176 733.698 835.241 731.75C835.306 729.802 835.354 728.292 835.419 726.523C835.419 725.76 835.419 724.997 835.419 724.25C835.565 720.143 835.679 715.874 835.809 711.54C835.89 708.812 835.971 706.053 836.069 703.277L836.166 699.852L836.312 695.16L836.41 691.914C836.41 690.031 836.556 688.18 836.605 686.329C836.702 683.651 836.799 680.989 836.897 678.375C836.897 676.654 837.043 674.95 837.108 673.261C837.238 670.096 837.384 667.06 837.53 664.122L906.215 673.684C907.05 694.297 906.507 714.943 904.591 735.484V735.484Z" fill="#C3DCF8"/>
<path d="M837.644 663.943C836.02 695.144 835.517 741.863 833.861 758.779" stroke="#83ADDF" stroke-width="0.75" stroke-linecap="round" stroke-linejoin="round"/>
<path d="M904.591 735.484C902.87 752.139 899.72 768.697 894.248 780.272C890.87 787.398 886.6 792.609 881.177 794.784C870.281 799.183 860.912 798.031 853.443 793.891C857.3 792.17 861.367 790.964 865.54 790.304C883.775 787.203 878.026 764.785 885.95 749.217C889.149 743 894.556 737.854 904.591 735.484Z" fill="#A7CAF0"/>
<path d="M735.721 828.144C731.077 832.202 728.008 849.247 739.196 862.851C750.384 876.454 761.328 867.721 761.328 867.721C761.328 867.721 777.37 853.906 766.199 833.355C755.028 812.803 735.721 828.144 735.721 828.144Z" fill="#83ADDF"/>
<path d="M760.045 824.865C748.289 830.53 739.927 834.345 737.816 834.199C735.705 834.053 716.009 836.472 710.342 838.176C704.675 839.881 691.799 853.452 693.065 855.432C694.332 857.413 699.3 857.056 699.3 857.056C699.3 857.056 679.815 871.357 677.916 876.536C676.016 881.714 681.894 880.497 681.894 880.497C678.857 882.12 674.684 890.788 685.287 887.574C682.738 889.198 681.196 893.986 688.405 892.249C698.878 889.701 716.009 882.623 716.009 882.623C716.009 882.623 704.107 891.535 699.3 893.808C694.494 896.08 694.202 901.308 704.545 898.337C714.888 895.366 734.974 881.357 741.891 876.389C748.809 871.422 755.482 867.201 757.041 866.211C758.6 865.221 773.473 858.419 773.473 858.419C773.473 858.419 787.925 822.04 760.045 824.865Z" fill="#B25E47"/>
<path d="M699.301 857.12C706.526 852.023 716.577 844.588 718.704 844.345" stroke="#934735" stroke-width="0.75" stroke-linecap="round" stroke-linejoin="round"/>
<path d="M681.975 880.626C682.267 879.831 711.105 861.325 711.105 861.325" stroke="#934735" stroke-width="0.75" stroke-linecap="round" stroke-linejoin="round"/>
<path d="M685.222 887.704C685.369 886.795 714.775 871.99 714.775 871.99" stroke="#934735" stroke-width="0.75" stroke-linecap="round" stroke-linejoin="round"/>
<path d="M710.342 838.176C704.675 839.8 691.799 853.452 693.065 855.432C694.332 857.413 699.3 857.056 699.3 857.056C699.3 857.056 679.815 871.357 677.916 876.536C676.016 881.714 681.894 880.497 681.894 880.497C678.857 882.12 674.684 890.788 685.287 887.574C682.738 889.198 681.196 893.986 688.405 892.249C698.878 889.701 716.009 882.623 716.009 882.623C716.009 882.623 704.107 891.535 699.3 893.808C694.494 896.081 694.202 901.308 704.545 898.337C707.064 897.544 709.508 896.534 711.852 895.318" stroke="#934735" stroke-width="0.75" stroke-linecap="round" stroke-linejoin="round"/>
<path d="M894.248 780.272C891.569 792.577 861.367 812.966 830.434 830.968C796.823 850.448 762.351 867.25 761.328 867.737C768.667 856.033 767.124 824.378 735.737 828.095C735.737 828.095 818.24 769.655 833.747 756.993C833.843 756.908 833.946 756.832 834.055 756.766C851.722 742.545 873.691 739.948 886.015 749.217C893.566 754.996 897.447 765.321 894.248 780.272Z" fill="#C3DCF8"/>
<path d="M894.248 780.272C891.569 792.577 861.367 812.966 830.435 830.968C834.283 813.112 839.365 800.32 853.411 793.891C857.268 792.17 861.335 790.964 865.508 790.304C883.742 787.203 877.994 764.785 885.918 749.217C893.566 754.996 897.447 765.321 894.248 780.272Z" fill="#A7CAF0"/>
<path d="M806.549 777.366C818.873 768.389 829.2 760.727 833.763 757.025C840.316 751.623 847.935 747.662 856.122 745.402" stroke="#83ADDF" stroke-width="0.75" stroke-linecap="round" stroke-linejoin="round"/>
<path d="M727.846 600.357C725.118 610.305 721.822 620.088 717.973 629.659C713.402 641.097 708.253 652.296 702.548 663.213V663.213C701.195 665.843 699.793 668.467 698.342 671.086C698.131 671.492 697.904 671.914 697.66 672.32C695.825 675.664 693.893 679.008 691.928 682.319C686.603 691.28 681.499 699.521 676.616 707.043C669.217 718.708 661.008 729.839 652.049 740.354C635.584 759.201 621.198 767.366 607.12 764.704C604.413 764.182 601.784 763.32 599.293 762.139C596.567 760.884 594.126 759.084 592.121 756.851C590.116 754.617 588.589 751.997 587.635 749.152V749.152C586.712 746.531 586.123 743.804 585.881 741.035C585.881 741.035 585.881 741.035 585.881 741.035C584.826 730.078 587.814 715.955 594.26 699.803C597.939 690.76 602.158 681.946 606.893 673.407C608.257 670.94 609.669 668.537 611.114 665.973C615.791 657.986 621.068 649.739 626.865 641.363C627.466 640.519 628.034 639.739 628.602 638.847C630.518 636.087 632.38 633.381 634.188 630.73L639.725 622.613C640.147 621.996 640.553 621.38 640.975 620.779C647.6 611.039 653.608 602.062 659.226 594.01L659.486 593.621L662.733 589.059C681.455 562.761 695.988 547.209 714.336 545.229C734.243 543.151 736.76 567.111 727.846 600.357Z" fill="#C3DCF8"/>
<path d="M727.846 600.357C708.491 591.494 684.151 589.725 659.453 593.621L662.701 589.059C681.423 562.761 695.955 547.209 714.304 545.229C734.243 543.151 736.76 567.111 727.846 600.357Z" fill="#000080"/>
<path d="M713.817 619.805C719.013 599.399 719.954 591.737 719.954 591.737" stroke="#83ADDF" stroke-width="0.75" stroke-linecap="round" stroke-linejoin="round"/>
<path d="M717.973 629.659C713.402 641.097 708.253 652.296 702.548 663.213V663.213C702.548 663.213 662.49 658.197 640.959 620.779C647.584 611.039 653.592 602.062 659.21 594.01C665.575 604.221 681.585 622.143 717.973 629.659Z" fill="#000080"/>
<path d="M701.768 663.034C706.234 647.531 709.887 634.512 711.884 626.947L712.469 624.788C713.346 621.542 713.817 619.805 713.817 619.805" stroke="#83ADDF" stroke-width="0.75" stroke-linecap="round" stroke-linejoin="round"/>
<path d="M698.326 671.086L697.644 672.287L691.912 682.287C691.912 682.287 643.752 672.774 628.586 638.847C630.502 636.087 632.364 633.381 634.172 630.73C656.076 665.453 698.326 671.086 698.326 671.086Z" fill="#000080"/>
<path d="M666.614 683.667C666.614 683.667 664.13 703.78 653.949 735.062C653.364 736.88 652.731 738.633 652.033 740.37C643.914 760.97 629.43 776.327 615.109 781.57C610.1 783.557 604.616 784.026 599.342 782.917C579.987 778.47 571.3 762.593 576.529 735.062C578.867 722.724 585.297 710.841 594.227 699.851C599.328 693.643 604.921 687.856 610.952 682.547C618.612 675.787 626.752 669.591 635.308 664.008L666.614 683.667Z" fill="#C3DCF8"/>
<path d="M615.109 781.57C610.1 783.557 604.616 784.026 599.342 782.918C579.987 778.47 571.3 762.593 576.529 735.062C578.867 722.724 585.297 710.842 594.227 699.852C599.328 693.643 604.921 687.856 610.952 682.547C612.542 687.49 612.796 692.765 611.686 697.837C610.577 702.91 608.144 707.598 604.636 711.426C595.949 721.166 586.937 732.059 585.849 741.084C585.414 743.913 586.038 746.804 587.603 749.201V749.201C589.162 751.422 591.272 753.2 593.724 754.363C598.779 756.984 603.308 760.511 607.088 764.769C611.699 769.996 614.671 775.953 615.109 781.57Z" fill="#A7CAF0"/>
<path d="M653.949 735.078C656.352 727.676 658.333 720.923 659.941 714.884" stroke="#83ADDF" stroke-width="0.75" stroke-linecap="round" stroke-linejoin="round"/>
<path d="M618.779 675.973C597.783 692.693 580.669 713.131 576.561 735.078" stroke="#83ADDF" stroke-width="0.75" stroke-linecap="round" stroke-linejoin="round"/>
<path d="M628.992 680.501C624.121 688.959 617.187 703.228 623.033 712.497C628.878 721.767 641.576 723.861 651.27 714.9C660.964 705.939 665.884 697.043 666.614 687.433L628.992 680.501Z" fill="#83ADDF"/>
<path d="M643.703 661.784C641.608 659.236 646.951 655.81 650.831 658.213C654.725 660.72 658.949 662.671 663.383 664.008C666.63 664.723 668.676 673.034 667.183 674.56C667.183 674.56 646.252 664.804 643.703 661.784Z" fill="#B25E47"/>
<path d="M663.383 663.943C666.631 664.658 668.677 672.969 667.183 674.495" stroke="#934735" stroke-width="0.75" stroke-linecap="round" stroke-linejoin="round"/>
<path d="M599.505 642.84C595.12 640.097 599.683 632.142 604.084 633.977C608.484 635.811 674.148 678.554 674.148 678.554L679.02 686.67L669.277 685.372C669.277 685.372 603.158 645.194 599.505 642.84Z" fill="#683F1D"/>
<path d="M628.781 668.472C627.742 662.239 635.925 660.583 639.969 663.489C644.012 666.395 658.284 673.018 662.945 674.56C667.605 676.102 670.528 681.914 667.621 683.943C667.621 683.943 670.528 688.082 667.118 689.982C665.61 690.935 663.968 691.657 662.246 692.124C662.246 692.124 663.643 696.589 653.04 701.248C653.04 701.248 651.416 707.741 645.717 709.364C640.017 710.988 629.479 709.738 627.027 707.741C624.575 705.744 623.358 699.624 625.761 697.384C625.761 697.384 619.672 694.527 620.76 690.047C622.221 684.008 626.378 685.761 625.127 683.375C623.877 680.988 621.88 676.492 624.998 674.625C628.115 672.758 629.349 671.817 628.781 668.472Z" fill="#B25E47"/>
<path d="M662.945 674.56C667.621 676.102 670.527 681.914 667.621 683.943C667.621 683.943 670.527 688.082 667.118 689.982C665.61 690.935 663.968 691.657 662.246 692.124C662.246 692.124 663.643 696.589 653.04 701.248C653.04 701.248 651.416 707.741 645.717 709.364" stroke="#934735" stroke-width="0.75" stroke-linecap="round" stroke-linejoin="round"/>
<path d="M630.583 686.557C638.642 689.568 647.022 691.638 655.557 692.725C657.821 692.717 660.081 692.516 662.311 692.125" stroke="#934735" stroke-width="0.75" stroke-linecap="round" stroke-linejoin="round"/>
<path d="M667.621 683.943C667.621 683.943 655.768 684.284 653.251 683.943C651.026 683.635 634.058 676.93 634.058 676.93" stroke="#934735" stroke-width="0.75" stroke-linecap="round" stroke-linejoin="round"/>
<path d="M633.733 699.852C633.733 699.852 646.253 702.368 653.105 701.248" stroke="#934735" stroke-width="0.75" stroke-linecap="round" stroke-linejoin="round"/>
<path d="M785.391 442.18C781.584 448.983 776.094 454.695 769.446 458.77C758.161 465.816 748.63 460.524 744.57 455.134C743.077 453.121 743.109 447.65 744.262 441.482C746.227 431.044 751.39 418.544 757.739 417.132C761.417 416.254 765.244 416.21 768.942 417.002C772.639 417.794 776.112 419.402 779.108 421.71C780.136 422.503 781.059 423.425 781.852 424.453C786.122 429.907 786.252 430.183 785.391 442.18Z" fill="#FFEACC"/>
<path d="M785.391 442.18C781.584 448.983 776.094 454.695 769.446 458.77C758.161 465.815 748.63 460.523 744.57 455.134C743.077 453.121 743.109 447.65 744.262 441.482C749.766 451.222 759.46 455.101 763.276 451.985C768.699 447.52 760.451 425.784 779.108 421.645C780.136 422.437 781.059 423.36 781.852 424.388C786.122 429.907 786.252 430.183 785.391 442.18Z" fill="#EDD6B7"/>
<path d="M771.281 444.793C774.399 443.982 775.097 436.936 772.093 436.482C769.089 436.027 766.751 440.978 767.482 444.793C767.936 447.212 769.771 448.884 775.438 447.52" stroke="#C6AB8B" stroke-width="0.75" stroke-linecap="round" stroke-linejoin="round"/>
<path d="M768.034 452.407C755.32 452.115 750.594 449.712 749.636 444.03C748.678 438.349 748.11 428.771 748.11 428.771" stroke="#C6AB8B" stroke-width="0.75" stroke-linecap="round" stroke-linejoin="round"/>
<path d="M761.36 451.969C758.04 449.164 755.754 445.329 754.865 441.076C753.826 434.583 759.006 425.914 762.513 425.508C768.569 424.826 781.998 430.021 780.926 440.524" stroke="#C6AB8B" stroke-width="0.75" stroke-linecap="round" stroke-linejoin="round"/>
<path d="M833.633 512.406C821.488 518.12 799.405 512.406 786.788 498.705C771.005 481.546 784.547 443.511 802.571 438.122C820.594 432.732 829.931 451.806 835.208 467.115L835.306 467.439C836.672 471.463 837.811 475.56 838.716 479.712C841.557 492.666 842.499 508.234 833.633 512.406Z" fill="#B25E47"/>
<path d="M786.268 473.202C785.31 476.546 790.165 480.88 797.131 482.942C804.097 485.003 810.495 483.818 811.453 480.458C812.411 477.098 807.556 472.763 800.606 470.718C793.656 468.673 787.226 469.841 786.268 473.202Z" fill="#A0503D"/>
<path d="M838.715 479.711C835.224 481.189 832.123 481.237 830.678 479.533C828.616 477.065 830.678 471.887 835.305 467.439C836.672 471.462 837.811 475.56 838.715 479.711V479.711Z" fill="#A0503D"/>
<path d="M823.468 463.787C823.465 464.257 823.602 464.717 823.861 465.109C824.12 465.502 824.49 465.808 824.924 465.989C825.358 466.171 825.836 466.219 826.297 466.128C826.759 466.037 827.183 465.811 827.515 465.479C827.848 465.146 828.074 464.722 828.165 464.261C828.256 463.8 828.207 463.322 828.026 462.888C827.845 462.454 827.538 462.085 827.146 461.825C826.754 461.566 826.293 461.429 825.823 461.433C825.2 461.437 824.603 461.686 824.163 462.127C823.722 462.567 823.473 463.164 823.468 463.787V463.787Z" fill="#683F1D"/>
<path d="M810.251 467.13C810.251 467.6 810.39 468.059 810.652 468.449C810.913 468.839 811.284 469.143 811.718 469.322C812.152 469.5 812.63 469.546 813.09 469.454C813.551 469.361 813.973 469.134 814.304 468.8C814.635 468.467 814.859 468.044 814.949 467.583C815.038 467.122 814.989 466.645 814.807 466.212C814.625 465.779 814.319 465.41 813.927 465.152C813.535 464.893 813.075 464.757 812.605 464.76C812.295 464.76 811.987 464.822 811.701 464.941C811.414 465.06 811.154 465.235 810.935 465.455C810.716 465.676 810.543 465.937 810.426 466.225C810.308 466.512 810.249 466.82 810.251 467.13V467.13Z" fill="#683F1D"/>
<path d="M804.308 477.26C804.308 477.482 804.374 477.698 804.497 477.883C804.62 478.067 804.795 478.21 805 478.295C805.204 478.38 805.43 478.402 805.647 478.359C805.864 478.316 806.064 478.209 806.221 478.052C806.377 477.896 806.484 477.696 806.527 477.479C806.571 477.261 806.548 477.036 806.464 476.832C806.379 476.627 806.235 476.452 806.051 476.329C805.867 476.206 805.65 476.14 805.428 476.14C805.131 476.14 804.846 476.258 804.636 476.468C804.426 476.678 804.308 476.963 804.308 477.26V477.26Z" fill="#914839"/>
<path d="M809.147 473.851C809.766 473.851 810.267 473.35 810.267 472.731C810.267 472.112 809.766 471.611 809.147 471.611C808.528 471.611 808.027 472.112 808.027 472.731C808.027 473.35 808.528 473.851 809.147 473.851Z" fill="#914839"/>
<path d="M810.267 477.91C810.886 477.91 811.388 477.408 811.388 476.79C811.388 476.171 810.886 475.669 810.267 475.669C809.649 475.669 809.147 476.171 809.147 476.79C809.147 477.408 809.649 477.91 810.267 477.91Z" fill="#914839"/>
<path d="M813.271 473.851C813.271 474.073 813.337 474.289 813.46 474.473C813.583 474.658 813.758 474.801 813.963 474.886C814.168 474.971 814.393 474.993 814.61 474.95C814.828 474.906 815.027 474.8 815.184 474.643C815.341 474.486 815.447 474.287 815.491 474.07C815.534 473.852 815.512 473.627 815.427 473.422C815.342 473.218 815.198 473.043 815.014 472.92C814.83 472.797 814.613 472.731 814.392 472.731C814.094 472.731 813.81 472.849 813.599 473.059C813.389 473.269 813.271 473.554 813.271 473.851V473.851Z" fill="#914839"/>
<path d="M831.62 469.663C831.62 469.885 831.685 470.101 831.809 470.285C831.932 470.47 832.107 470.613 832.311 470.698C832.516 470.783 832.741 470.805 832.959 470.762C833.176 470.718 833.376 470.612 833.532 470.455C833.689 470.298 833.796 470.099 833.839 469.882C833.882 469.664 833.86 469.439 833.775 469.234C833.69 469.03 833.547 468.855 833.363 468.732C833.178 468.609 832.962 468.543 832.74 468.543C832.443 468.543 832.158 468.661 831.948 468.871C831.738 469.081 831.62 469.366 831.62 469.663Z" fill="#914839"/>
<path d="M828.713 469.111C829.332 469.111 829.834 468.609 829.834 467.991C829.834 467.372 829.332 466.871 828.713 466.871C828.094 466.871 827.593 467.372 827.593 467.991C827.593 468.609 828.094 469.111 828.713 469.111Z" fill="#914839"/>
<path d="M845.876 466.481C844.512 468.105 842.856 468.916 842.125 468.105C840.696 466.579 844.804 464.176 842.125 461.416C839.446 458.657 832.643 460.296 832.643 460.296C822.754 434.453 807.767 435.265 798.869 439.712C789.97 444.16 789.126 451.936 788.996 456.595C788.866 461.254 788.834 462.845 795.491 466.579C802.149 470.312 795.946 476.156 794.874 480.783C793.802 485.409 798.706 484.03 801.369 488.64C804.032 493.25 798.69 495.506 798.917 493.51C799.145 491.513 797.294 488.948 795.394 489.386C793.494 489.825 789.678 488.412 789.5 486.14C789.321 483.867 787.876 478.559 785.473 477.78C777.078 475.02 772.71 483.12 773.863 489.451C774.239 491.337 775.044 493.112 776.215 494.637C777.386 496.163 778.893 497.399 780.618 498.25C780.618 498.25 775.746 500.652 767.546 490.62C765.787 488.451 764.548 485.908 763.925 483.185C761.539 473.218 766.41 461.027 771.054 453.754C776.948 444.469 779.27 444.014 779.27 444.014C782.009 437.744 786.114 432.165 791.286 427.684C800.168 419.745 808.027 426.434 808.027 426.434C816.584 420.46 826.781 422.862 829.704 428.414C832.626 433.966 831.506 442.683 831.961 445.54C832.415 448.397 834.64 453.219 840.079 453.219C845.519 453.219 847.597 455.28 847.938 460.264C848.064 462.523 847.327 464.745 845.876 466.481V466.481Z" fill="#FFEACC"/>
<path d="M845.876 466.481C844.512 468.105 842.856 468.916 842.125 468.105C840.696 466.579 844.805 464.176 842.125 461.417C839.446 458.657 832.643 460.296 832.643 460.296C822.754 434.453 807.767 435.265 798.869 439.713C789.97 444.16 789.126 451.936 788.996 456.595C788.866 461.254 788.834 462.845 795.491 466.579C802.149 470.312 795.946 476.156 794.874 480.783C793.803 485.409 798.706 484.03 801.369 488.64C804.032 493.25 798.69 495.507 798.917 493.51C799.145 491.513 797.294 488.948 795.394 489.387C793.494 489.825 789.678 488.413 789.5 486.14C789.321 483.867 788.217 479.436 785.44 478.299C776.883 474.777 773.116 483.169 774.269 489.452C774.696 491.371 775.576 493.161 776.836 494.672C778.096 496.183 779.699 497.371 781.511 498.136C781.511 498.136 777.257 502.682 767.547 490.62C765.796 488.446 764.558 485.904 763.926 483.185C772.304 475.54 771.882 467.829 777.484 466.157C784.336 464.111 783.443 450.491 791.334 437.18C799.226 423.869 812.557 433.3 815.853 436.45C815.853 436.45 825.384 431.58 828.226 444.014C831.068 456.449 837.465 458.348 841.784 457.926C844.35 457.667 846.477 462.115 845.876 466.481Z" fill="#EDD6B7"/>
<path d="M785.391 469.403C788.525 469.89 790.084 474.549 788.379 481.595" stroke="#C6AB8B" stroke-width="0.75" stroke-linecap="round" stroke-linejoin="round"/>
<path d="M789.776 448.137C794.273 435.329 796.368 434.355 797.716 433.527C800.168 432.05 805.656 433.674 805.656 433.674" stroke="#C6AB8B" stroke-width="0.75" stroke-linecap="round" stroke-linejoin="round"/>
<path d="M808.027 426.434C810.779 428.791 813.377 431.323 815.804 434.015" stroke="#C6AB8B" stroke-width="0.75" stroke-linecap="round" stroke-linejoin="round"/>
<path d="M773.977 483.754C769.479 477.13 764.981 462.504 773.083 450.638" stroke="#C6AB8B" stroke-width="0.75" stroke-linecap="round" stroke-linejoin="round"/>
<path d="M778.458 478.169C775.211 471.465 772.678 458.575 779.27 444.079" stroke="#C6AB8B" stroke-width="0.75" stroke-linecap="round" stroke-linejoin="round"/>
<path d="M819.718 457.926C817.688 465.491 820.676 468.559 824.232 469.484C827.788 470.41 830.629 472.228 830.223 475.377" stroke="#934735" stroke-width="0.75" stroke-linecap="round" stroke-linejoin="round"/>
<path d="M799.469 461.027C801.093 462.65 810.836 456.287 808.335 452.537C805.835 448.787 797.099 458.754 799.469 461.027Z" fill="#FFEACC"/>
<path d="M817.217 450.248C817.217 454.063 826.96 452.001 826.781 450.751C826.489 448.495 817.201 446.758 817.217 450.248Z" fill="#FFEACC"/>
<path d="M816.941 481.075C818.403 482.489 820.231 483.467 822.22 483.897C824.208 484.327 826.277 484.193 828.193 483.51" stroke="#934735" stroke-width="0.75" stroke-linecap="round" stroke-linejoin="round"/>
<path d="M791.286 488.623V498.039C788.131 499.097 784.725 499.143 781.543 498.169H781.381C779.168 497.402 777.24 495.981 775.853 494.093C774.467 492.206 773.688 489.941 773.619 487.601C773.512 486.08 773.76 484.555 774.343 483.146C774.927 481.738 775.829 480.484 776.98 479.484V479.484C777.747 478.83 778.62 478.314 779.562 477.958C781.513 477.446 783.582 477.636 785.408 478.494C788.168 479.63 789.272 483.981 789.467 486.334C789.57 486.832 789.788 487.298 790.104 487.695C790.42 488.093 790.825 488.411 791.286 488.623Z" fill="#B25E47"/>
<path d="M777.435 486.497C778.393 484.046 784.758 481.318 787.762 488.007" stroke="#934735" stroke-width="0.75" stroke-linecap="round" stroke-linejoin="round"/>
<path d="M787.275 487C780.309 482.958 777.435 493.315 786.463 492.682" stroke="#934735" stroke-width="0.75" stroke-linecap="round" stroke-linejoin="round"/>
<path d="M791.286 498.006C787.711 499.248 783.804 499.132 780.309 497.682" stroke="#934735" stroke-width="0.75" stroke-linecap="round" stroke-linejoin="round"/>
<path d="M1135.47 539.499C1134.29 547.047 1129.09 553.703 1122.16 558.394C1108.89 567.436 1089.2 569.384 1078.92 557.193C1066.07 541.982 1033.81 470.426 1022.56 445.069C1020.1 439.501 1018.64 436.141 1018.64 436.141C1019.59 402.619 1044.44 388.107 1069.35 389.259C1094.26 390.412 1111.25 408.122 1112.56 434.81C1113.88 461.498 1103.13 500.766 1110.53 508.899C1117.94 517.032 1138.95 517.454 1135.47 539.499Z" fill="#D39933"/>
<path d="M1126.51 547.242C1125.69 551.177 1124.22 554.947 1122.16 558.394C1108.89 567.436 1089.2 569.384 1078.92 557.193C1066.07 541.982 1033.81 470.426 1022.56 445.07C1030.38 408.626 1049.58 397.295 1070.99 400.834C1092.7 404.437 1102.01 433.706 1095.11 446.498C1088.2 459.29 1070.62 484.484 1079.58 500.36C1088.55 516.236 1086.99 519.24 1097.44 521.74C1107.9 524.239 1129.72 529.434 1126.51 547.242Z" fill="#C4892A"/>
<path d="M1026.88 430.362C1031.11 407.23 1052.86 403.009 1062.4 405.265" stroke="#EDB65F" stroke-width="0.75" stroke-linecap="round" stroke-linejoin="round"/>
<path d="M1042.8 427.407C1054.95 417.164 1072.57 420.622 1072.45 429.42C1072.34 438.219 1071.68 444.793 1076.74 448.365C1081.81 451.936 1089.36 459.517 1085.07 470.182" stroke="#EDB65F" stroke-width="0.75" stroke-linecap="round" stroke-linejoin="round"/>
<path d="M1095.58 481.854C1092.33 500.961 1090.32 510.327 1098.94 512.957C1107.56 515.587 1110.43 518.46 1108.57 522.583C1106.7 526.707 1104.31 528.444 1109.95 530.57C1115.58 532.697 1116.07 539.823 1116.07 539.823" stroke="#EDB65F" stroke-width="0.75" stroke-linecap="round" stroke-linejoin="round"/>
<path d="M1036.36 659.674C1026.37 709.299 1009.1 761.019 991.77 785.499C986.785 792.528 981.833 797.316 977.027 799.167C935.134 815.4 918.052 795.823 922.842 736.799C925.603 702.709 943.772 640.243 968.307 594.838C985.893 562.371 1006.73 538.671 1027.56 540.456C1049.84 542.404 1048.46 599.513 1036.36 659.674Z" fill="#A7CAF0"/>
<path d="M1036.36 659.674C1031.5 658.019 1027.06 655.326 1023.34 651.783C1019.63 648.239 1016.73 643.931 1014.84 639.155C1012.43 632.889 1009.35 626.901 1005.65 621.299C996.642 607.792 984.106 597.647 968.307 594.757C985.893 562.29 1006.73 538.59 1027.56 540.375C1049.84 542.404 1048.46 599.513 1036.36 659.674Z" fill="#C3DCF8"/>
<path d="M1005.69 625.925C985.47 628.262 981.135 634.496 983.538 648.57C985.941 662.645 956.844 647.385 949.001 664.008C941.158 680.631 979.69 742.707 980.388 743.065L992.16 749.071L1014.47 723.098L1029.31 686.67L1029.56 653.343L1005.69 625.925Z" fill="#93BEE5"/>
<path d="M1184.15 637.289C1183.83 644.561 1181.25 669.658 1178 699.657C1172.4 751.165 1164.78 817.105 1163.04 832.186L1157.08 830.644C1132.91 824.41 1106.75 818.826 1078.88 813.794C1051.02 808.761 1021.68 804.33 990.991 800.434C991.235 796.067 991.494 791.002 991.77 785.499C993.167 757.026 994.791 716.767 993.492 700.355C991.397 673.976 990.147 655.129 998.931 638.376C1001.71 632.935 1003.97 627.244 1005.69 621.38C1010.22 606.494 1012.64 589.514 1012.34 578.378C1011.99 565.245 1004.45 545.018 1027.61 540.457C1033.62 539.449 1039.74 539.236 1045.81 539.824C1090.53 543.07 1099.67 539.824 1099.67 539.824C1128.54 534.678 1152.49 541.025 1159.18 543.362L1159.8 543.59C1169.54 547.193 1178.7 560.667 1182.53 589.173C1184.48 605.133 1185.02 621.233 1184.15 637.289V637.289Z" fill="#A7CAF0"/>
<path d="M1124.32 662.109C1092.35 647.11 1070.26 681.589 1071.92 708.894C1074.05 743.617 1033.48 701.183 1016.27 738.877C1002.6 768.827 1070.33 795.693 1105.95 766.473C1141.58 737.253 1167.48 682.336 1124.32 662.109Z" fill="#93BEE5"/>
<path d="M1182.59 589.173C1160.77 585.65 1133.23 596.023 1116.54 611.088C1109.56 617.419 1104.47 624.577 1102.51 631.882C1095.85 656.784 1060.83 668.7 1036.36 659.674C1031.5 658.018 1027.06 655.326 1023.34 651.782C1019.63 648.239 1016.73 643.93 1014.84 639.155C1012.43 632.888 1009.35 626.901 1005.65 621.298C1010.18 606.412 1012.6 589.432 1012.31 578.296C1011.95 565.163 1004.42 544.937 1027.57 540.375C1033.59 539.367 1039.71 539.154 1045.78 539.742C1090.49 542.989 1099.64 539.742 1099.64 539.742C1128.51 534.596 1152.46 540.943 1159.15 543.281L1159.76 543.508C1169.54 547.193 1178.71 560.667 1182.59 589.173Z" fill="#C3DCF8"/>
<path d="M990.991 800.433C991.235 796.067 991.494 791.002 991.77 785.499C993.167 757.026 994.791 716.767 993.492 700.355C991.397 673.976 990.147 655.129 998.931 638.376C1001.71 632.935 1003.97 627.244 1005.69 621.38C1008.72 611.259 1010.78 600.871 1011.84 590.358" stroke="#83ADDF" stroke-width="0.75" stroke-linecap="round" stroke-linejoin="round"/>
<path d="M1091.73 539.823C1092.43 544.953 1060.62 581.527 1047.32 578.167C1034.02 574.806 1040.82 540.294 1040.82 540.294C1040.82 540.294 1040.01 537.957 1038.76 534.515C1035.69 525.976 1030.07 510.522 1028.03 506.302C1025.68 501.528 1023.8 496.537 1022.43 491.399C1012.29 452.813 1044.8 437.927 1062.37 477.033C1080.13 516.464 1091.01 534.677 1091.73 539.823Z" fill="#FEBD9D"/>
<path d="M1038.79 534.515C1035.73 525.976 1030.11 510.522 1028.06 506.301C1025.71 501.528 1023.84 496.537 1022.46 491.399C1034.04 483.867 1050.24 490.62 1056.56 503.85C1062.66 516.707 1054.63 531.836 1038.79 534.515Z" fill="#F4A789"/>
<path d="M1039.7 537.015C1042.56 542.843 1042.11 543.979 1042.11 547.161C1042.11 550.343 1042.84 566.414 1041.39 572.598C1041.39 572.598 1034.3 565.034 1030.46 566.284C1026.63 567.534 1020.53 572.598 1020.53 572.598L1031.42 545.002C1033.71 539.06 1036.85 536.901 1039.7 537.015Z" fill="#683F1D"/>
<path d="M1099.68 539.824C1099.81 536.577 1090.75 530.489 1089.41 533.525C1082 550.278 1062.79 571.836 1056.14 576.462C1059.03 577.174 1061.77 578.376 1064.25 580.017C1067.97 582.696 1074.86 594.806 1074.86 594.806C1074.86 594.806 1098.34 572.599 1099.68 539.824Z" fill="#683F1D"/>
<path d="M1039.69 592.679C1039.69 593.732 1040 594.762 1040.58 595.637C1041.17 596.513 1042 597.195 1042.97 597.598C1043.95 598.001 1045.02 598.107 1046.05 597.901C1047.09 597.696 1048.03 597.189 1048.78 596.444C1049.52 595.699 1050.03 594.751 1050.24 593.718C1050.44 592.685 1050.34 591.614 1049.93 590.641C1049.53 589.668 1048.85 588.837 1047.97 588.252C1047.1 587.667 1046.07 587.354 1045.01 587.354C1043.6 587.354 1042.25 587.915 1041.25 588.914C1040.25 589.913 1039.69 591.267 1039.69 592.679V592.679Z" fill="white"/>
<path d="M1036.96 612.305C1036.96 613.362 1037.27 614.396 1037.85 615.277C1038.44 616.157 1039.27 616.844 1040.25 617.251C1041.22 617.658 1042.3 617.766 1043.33 617.561C1044.37 617.357 1045.32 616.85 1046.07 616.103C1046.82 615.357 1047.33 614.406 1047.54 613.369C1047.75 612.333 1047.64 611.258 1047.24 610.281C1046.83 609.304 1046.15 608.469 1045.27 607.882C1044.39 607.294 1043.36 606.98 1042.3 606.98C1041.6 606.978 1040.91 607.114 1040.26 607.381C1039.61 607.648 1039.02 608.04 1038.52 608.534C1038.03 609.029 1037.63 609.617 1037.37 610.264C1037.1 610.911 1036.96 611.604 1036.96 612.305Z" fill="white"/>
<path d="M1157.08 830.644C1132.91 824.41 1106.75 818.826 1078.88 813.794C1079.53 811.864 1080.46 810.046 1081.66 808.404C1097.53 785.515 1109.46 760.175 1146.85 771.262C1162.05 775.775 1154.29 801.294 1146.85 810.222C1139.11 819.41 1160.41 819.654 1157.08 830.644Z" fill="#93BEE5"/>
<path d="M945.217 803.826C911.119 798.404 901.181 747.334 895.953 721.182C892.072 701.702 884.262 652.174 880.527 628.052C879.228 619.74 878.416 614.448 878.416 614.448C878.416 614.448 895.661 617.516 913.197 601.218C914.269 603.896 916.006 607.614 918.214 612.143C934.208 645.096 975.874 720.695 983.538 746.409C992.241 775.661 978.894 809.199 945.217 803.826Z" fill="#A7CAF0"/>
<path d="M895.953 721.182C894.15 712.108 891.487 696.491 888.776 679.966C885.674 661.038 882.524 640.925 880.527 628.019C879.228 619.708 878.416 614.416 878.416 614.416" stroke="#83ADDF" stroke-width="0.75" stroke-linecap="round" stroke-linejoin="round"/>
<path d="M913.197 601.218C909.154 593.101 899.135 577.663 889.62 570.537C884.522 566.738 878.254 566.771 876.094 568.297C876.094 568.297 858.72 565.716 845.519 568.93C832.318 572.144 830.223 579.4 835.696 580.033C841.168 580.667 850.504 577.469 857.275 577.306C857.275 577.306 850.439 578.93 850.585 585.228C848.962 584.27 845.146 586.77 845.958 591.916C845.958 591.916 843.23 589.059 842.142 594.351C841.054 599.643 845.665 607.435 850.959 607.727C856.252 608.02 855.668 604.205 855.668 604.205C855.668 604.205 859.987 612.127 878.4 614.448C878.4 614.448 881.648 620.081 881.648 619.789C881.648 619.497 913.749 622.776 913.197 601.218Z" fill="#FEBD9D"/>
<path d="M889.62 570.537C884.522 566.738 878.254 566.771 876.094 568.297C876.094 568.297 858.72 565.716 845.519 568.93C832.318 572.144 830.223 579.4 835.696 580.033C841.168 580.667 850.504 577.469 857.275 577.306C857.275 577.306 850.439 578.93 850.585 585.228C848.962 584.27 845.146 586.77 845.958 591.916C845.958 591.916 843.23 589.059 842.142 594.351C841.054 599.643 845.665 607.435 850.959 607.727C856.252 608.02 855.668 604.205 855.668 604.205" stroke="#EF8A66" stroke-width="0.75" stroke-linecap="round" stroke-linejoin="round"/>
<path d="M857.34 577.306C860.578 576.955 863.845 576.955 867.083 577.306" stroke="#EF8A66" stroke-width="0.75" stroke-linecap="round" stroke-linejoin="round"/>
<path d="M845.974 591.916C848.28 597.874 851.332 601.948 855.716 604.205C860.101 606.461 865.849 599.887 865.556 598.052C867.765 596.526 869.194 593.085 864.761 590.39" stroke="#EF8A66" stroke-width="0.75" stroke-linecap="round" stroke-linejoin="round"/>
<path d="M850.585 585.228C851.803 591.608 855.96 599.627 865.508 598.052" stroke="#EF8A66" stroke-width="0.75" stroke-linecap="round" stroke-linejoin="round"/>
<path d="M891.731 599.01C880.852 594.14 878.952 587.468 878.416 582.42C878.416 582.42 863.153 593.556 859.629 590.715C855.245 587.16 872.62 570.326 876.094 568.297" stroke="#EF8A66" stroke-width="0.75" stroke-linecap="round" stroke-linejoin="round"/>
<path d="M918.214 612.143C908.618 621.022 896.846 628.555 880.527 628.052C879.228 619.74 878.416 614.448 878.416 614.448C878.416 614.448 895.661 617.516 913.197 601.218C914.269 603.88 916.006 607.614 918.214 612.143Z" fill="#683F1D"/>
<path d="M908.618 609.951C908.618 610.546 908.795 611.127 909.126 611.622C909.456 612.116 909.926 612.501 910.476 612.727C911.026 612.954 911.631 613.013 912.214 612.896C912.797 612.778 913.333 612.491 913.752 612.069C914.171 611.648 914.456 611.111 914.57 610.527C914.684 609.944 914.623 609.339 914.393 608.791C914.163 608.242 913.775 607.774 913.279 607.446C912.783 607.118 912.201 606.945 911.606 606.948C911.212 606.948 910.822 607.026 910.459 607.177C910.095 607.328 909.765 607.55 909.487 607.829C909.21 608.108 908.99 608.439 908.841 608.803C908.692 609.168 908.616 609.558 908.618 609.951V609.951Z" fill="white"/>
<path d="M1178 699.657C1169.12 730.387 1158.84 760.499 1153.25 776.944C1139.48 817.625 1088.55 841.877 1082.7 804.638C1075.75 760.353 1105.43 680.453 1116.07 614.481C1116.25 613.425 1116.39 612.289 1116.54 611.088C1119.43 587.793 1119.09 539.905 1149.76 541.642C1152.97 541.818 1156.14 542.396 1159.2 543.362L1159.81 543.59C1177.45 549.661 1186.99 568.865 1191.39 591.494C1192.9 599.459 1193.85 607.52 1194.22 615.617C1195.16 634.172 1187.37 667.271 1178 699.657Z" fill="#A7CAF0"/>
<path d="M1191.39 591.494C1188.55 590.425 1185.6 589.647 1182.59 589.173C1160.77 585.65 1133.23 596.023 1116.54 611.088C1119.43 587.793 1119.09 539.905 1149.76 541.642C1152.97 541.818 1156.14 542.396 1159.2 543.362L1159.81 543.59C1177.45 549.661 1186.96 568.865 1191.39 591.494Z" fill="#C3DCF8"/>
<path d="M1085.69 751.604C1092.18 715.046 1105.01 671.801 1112.93 631.883" stroke="#83ADDF" stroke-width="0.75" stroke-linecap="round" stroke-linejoin="round"/>
<path d="M1171.05 722.806C1164.18 744.834 1157.41 764.688 1153.19 776.944C1149.02 788.988 1141.91 799.805 1132.52 808.42" stroke="#83ADDF" stroke-width="0.75" stroke-linecap="round" stroke-linejoin="round"/>
<path d="M1112.92 631.883C1116.17 619.091 1123.41 610.779 1127.89 610.114" stroke="#83ADDF" stroke-width="0.75" stroke-linecap="round" stroke-linejoin="round"/>
<path d="M810.933 618.88C818.484 613.604 832.042 615.747 848.28 633.49C858.298 644.645 866.436 657.353 872.376 671.119C883.924 662.772 897.273 657.256 911.346 655.015C934.306 651.59 962.803 661.85 962.803 661.85L967.235 674.268L873.042 686.67L810.933 618.88Z" fill="#F9F9F9" stroke="#EDEDED" stroke-linecap="round" stroke-linejoin="round"/>
<path d="M878.416 675.453L972.902 667.904L1010.36 770.385L919.887 777.69L878.416 675.453Z" fill="#F9F9F9" stroke="#DDDDDD" stroke-linecap="round" stroke-linejoin="round"/>
<path d="M806.793 612.305L867.602 674.333L908.862 771.441L849.968 715.76L806.793 612.305Z" fill="#F9F9F9" stroke="#DDDDDD" stroke-linecap="round" stroke-linejoin="round"/>
<path d="M867.602 674.333L878.416 675.453L919.887 777.69L908.862 771.44L867.602 674.333Z" fill="#F9F9F9" stroke="#DDDDDD" stroke-linecap="round" stroke-linejoin="round"/>
<path d="M848.88 643.571C857.762 652.548 866.742 668.034 866.742 668.034" stroke="#EDEDED" stroke-linecap="round" stroke-linejoin="round"/>
<path d="M878.449 671.086C886.293 666.564 894.787 663.279 903.633 661.346" stroke="#EDEDED" stroke-linecap="round" stroke-linejoin="round"/>
<path d="M879.553 672.872C887.672 669.316 904.201 666.2 904.201 666.2" stroke="#EDEDED" stroke-linecap="round" stroke-linejoin="round"/>
<path d="M862.406 671.362C864.826 666.589 878.498 663.245 881.177 677.855C878.115 679.578 874.577 680.262 871.093 679.803C868.187 679.251 862.406 671.362 862.406 671.362Z" fill="#F9F9F9" stroke="#DDDDDD" stroke-linecap="round" stroke-linejoin="round"/>
<path d="M968.551 725.127C959.802 720.263 951.779 714.198 944.714 707.108C938.057 700.615 920.731 691.995 919.107 693.001C917.484 694.008 916.217 698.456 925.359 706.507C928.159 708.75 930.506 711.504 932.276 714.624C929.01 715.813 925.495 716.148 922.063 715.598C916.217 714.705 891.552 713.082 888.581 712.773C885.61 712.465 885.009 716.491 889.458 718.276C882.313 717.205 880.349 721.442 886.795 725.37C886.795 725.37 881.209 726.864 887.737 731.718C893.281 735.542 899.111 738.934 905.176 741.863C905.176 741.863 891.893 738.016 890.172 738.26C888.451 738.503 887.493 741.247 892.056 743.682C896.619 746.117 928.541 758.454 934.062 760.077C940.833 762.041 954.473 764.379 954.473 764.379C954.473 764.379 970.905 740.678 968.551 725.127Z" fill="#FEBD9D"/>
<path d="M1101.18 823.03C1070.21 825.141 992.598 788.405 962.267 773.941C956.064 771.002 951.842 769.071 950.397 768.421C950.397 768.421 951.014 731.523 970.71 724.137C973.268 725.558 975.996 726.649 978.829 727.383C982.506 728.453 986.272 729.186 990.082 729.575C1003.07 731.02 1043.57 737.026 1065.62 738.812C1087.67 740.597 1115.55 755.678 1125.52 773.6C1132.35 785.888 1131.75 820.985 1101.18 823.03Z" fill="#A7CAF0"/>
<path d="M1101.18 823.03C1070.21 825.14 992.598 788.404 962.267 773.94C956.064 771.002 951.842 769.07 950.397 768.421" stroke="#83ADDF" stroke-width="0.75" stroke-linecap="round" stroke-linejoin="round"/>
<path d="M970.71 724.169C973.268 725.59 975.996 726.681 978.829 727.416C982.506 728.485 986.272 729.218 990.082 729.607C1003.07 731.052 1043.57 737.058 1065.62 738.844C1080.23 740.029 1097.27 746.961 1110.08 756.701" stroke="#83ADDF" stroke-width="0.75" stroke-linecap="round" stroke-linejoin="round"/>
<path d="M935.442 700.338C928.217 695.939 920.179 692.335 919.107 693.001C917.484 694.007 916.217 698.455 925.359 706.507C928.159 708.75 930.506 711.504 932.276 714.624C929.01 715.813 925.495 716.148 922.063 715.598C916.217 714.705 891.552 713.082 888.581 712.773C885.61 712.465 885.009 716.491 889.458 718.276C882.313 717.205 880.349 721.442 886.795 725.37C886.795 725.37 881.209 726.864 887.737 731.717C893.281 735.541 899.111 738.933 905.176 741.863C905.176 741.863 891.893 738.016 890.172 738.259C888.451 738.503 887.493 741.246 892.056 743.681C893.404 744.396 897.203 746.003 902.009 747.951" stroke="#EF8A66" stroke-width="0.75" stroke-linecap="round" stroke-linejoin="round"/>
<path d="M978.894 727.497C969.395 734.672 962.77 755.645 962.267 773.973C956.064 771.035 951.842 769.103 950.397 768.453C950.397 768.453 951.014 731.555 970.71 724.169C973.285 725.623 976.035 726.742 978.894 727.497V727.497Z" fill="#683F1D"/>
<path d="M953.742 762.22C953.739 762.892 953.935 763.549 954.306 764.109C954.677 764.669 955.206 765.107 955.826 765.366C956.446 765.625 957.129 765.695 957.788 765.566C958.447 765.436 959.053 765.115 959.53 764.641C960.006 764.167 960.331 763.562 960.463 762.904C960.595 762.245 960.529 761.562 960.273 760.941C960.016 760.321 959.581 759.79 959.023 759.416C958.465 759.043 957.808 758.843 957.136 758.843C956.239 758.843 955.378 759.198 954.742 759.831C954.106 760.464 953.747 761.323 953.742 762.22V762.22Z" fill="white"/>
<path d="M905.176 741.863C909.381 743.162 912.531 744.412 912.531 744.412" stroke="#EF8A66" stroke-width="0.75" stroke-linecap="round" stroke-linejoin="round"/>
<path d="M886.795 725.305L914.87 735.078" stroke="#EF8A66" stroke-width="0.75" stroke-linecap="round" stroke-linejoin="round"/>
<path d="M889.458 718.211L915.795 725.305" stroke="#EF8A66" stroke-width="0.75" stroke-linecap="round" stroke-linejoin="round"/>
<path d="M1064.16 485.377C1057.21 502.324 1039.36 531.561 1017.98 517.243C1013.51 514.197 1009.66 510.343 1006.61 505.88C1002.62 500.062 999.702 493.574 998.006 486.724C995.526 477.062 995.166 466.978 996.95 457.163C997.571 453.783 998.523 450.472 999.792 447.277C1008.58 425.671 1037.01 427.391 1047.48 437.878C1047.77 438.17 1048.1 438.495 1048.42 438.852C1053.69 445.126 1057.83 452.267 1060.65 459.955C1061.07 461.038 1061.46 462.12 1061.82 463.202C1064.89 471.854 1066.15 480.507 1064.16 485.377Z" fill="#FEBD9D"/>
<path d="M1003.25 481.172C1003.25 481.642 1003.39 482.101 1003.65 482.491C1003.91 482.881 1004.28 483.185 1004.72 483.364C1005.15 483.542 1005.63 483.588 1006.09 483.496C1006.55 483.403 1006.97 483.175 1007.3 482.842C1007.63 482.509 1007.86 482.086 1007.95 481.625C1008.04 481.164 1007.99 480.687 1007.81 480.254C1007.62 479.821 1007.32 479.452 1006.93 479.194C1006.53 478.935 1006.07 478.799 1005.6 478.802C1005.29 478.802 1004.99 478.864 1004.7 478.983C1004.41 479.102 1004.15 479.277 1003.93 479.497C1003.72 479.718 1003.54 479.979 1003.42 480.267C1003.31 480.554 1003.25 480.862 1003.25 481.172V481.172Z" fill="#683F1D"/>
<path d="M1016.27 477.033C1016.27 477.501 1016.41 477.96 1016.67 478.349C1016.93 478.739 1017.3 479.043 1017.74 479.222C1018.17 479.402 1018.65 479.449 1019.11 479.357C1019.57 479.266 1019.99 479.04 1020.32 478.709C1020.65 478.377 1020.88 477.955 1020.97 477.495C1021.06 477.035 1021.01 476.559 1020.83 476.126C1020.65 475.693 1020.35 475.323 1019.96 475.062C1019.57 474.802 1019.11 474.663 1018.64 474.663C1018.33 474.66 1018.02 474.72 1017.73 474.839C1017.45 474.957 1017.18 475.131 1016.96 475.352C1016.74 475.573 1016.57 475.835 1016.45 476.123C1016.33 476.412 1016.27 476.721 1016.27 477.033Z" fill="#683F1D"/>
<path d="M1059.03 484.484C1068.96 487.13 1080.41 474.744 1074.63 464.485C1068.85 454.225 1057.52 460.718 1056.14 468.007L1059.03 484.484Z" fill="#FEBD9D"/>
<path d="M1059.03 484.484C1060.81 484.93 1062.67 484.93 1064.45 484.484" stroke="#EF8A66" stroke-width="0.75" stroke-linecap="round" stroke-linejoin="round"/>
<path d="M1060.65 473.9C1061.56 465.572 1069.08 465.166 1071.01 468.916" stroke="#EF8A66" stroke-width="0.75" stroke-linecap="round" stroke-linejoin="round"/>
<path d="M1060.89 472.39C1067.29 465.443 1075.33 477.066 1062.7 478.088" stroke="#EF8A66" stroke-width="0.75" stroke-linecap="round" stroke-linejoin="round"/>
<path d="M1061.82 463.088C1061.77 463.39 1061.71 463.688 1061.62 463.981C1060.18 469.095 1054.79 466.546 1052.6 461.692C1050.06 455.946 1035.24 435.265 1021.87 449.436C1011.97 459.923 1003.82 461.335 996.95 457.163C997.533 453.962 998.424 450.825 999.613 447.797C999.663 447.62 999.722 447.447 999.792 447.277C1008.58 425.671 1037.01 427.391 1047.48 437.878C1047.77 438.17 1048.1 438.495 1048.42 438.852C1053.69 445.126 1057.83 452.267 1060.65 459.955C1061.07 460.973 1061.46 462.017 1061.82 463.088Z" fill="#D39933"/>
<path d="M1061.62 463.982C1060.18 469.095 1054.79 466.546 1052.6 461.693C1050.06 455.946 1035.24 435.265 1021.87 449.436C1011.97 459.923 1003.82 461.335 996.95 457.163C997.533 453.963 998.424 450.826 999.613 447.797C1008.04 451.303 1015.85 446.32 1021 442.099C1027.49 436.888 1035.38 437.31 1043.52 442.992C1050.7 448.04 1056.79 464.858 1061.62 463.982Z" fill="#C4892A"/>
<path d="M1005.44 459.192C1004.13 444.582 1010.22 435.167 1015.18 432.342" stroke="#EDB65F" stroke-width="0.75" stroke-linecap="round" stroke-linejoin="round"/>
<path d="M1009.34 458.462C1009.96 452.521 1020.61 430.865 1032.66 430.865" stroke="#EDB65F" stroke-width="0.75" stroke-linecap="round" stroke-linejoin="round"/>
<path d="M1022.96 448.43C1026.75 439.242 1031.41 433.365 1036.96 431.888" stroke="#EDB65F" stroke-width="0.75" stroke-linecap="round" stroke-linejoin="round"/>
<path d="M1045.5 436.157C1046.39 443.673 1045.68 448.641 1043.49 449.858" stroke="#EDB65F" stroke-width="0.75" stroke-linecap="round" stroke-linejoin="round"/>
<path d="M1050.08 440.8C1052.56 450.459 1050.49 454.81 1049.04 455.93" stroke="#EDB65F" stroke-width="0.75" stroke-linecap="round" stroke-linejoin="round"/>
<path d="M1006.73 472.991C1011.16 474.776 1013.22 477.861 1012.12 480.685C1010.75 484.192 1008.51 490.425 1012.8 493.153" stroke="#EF8A66" stroke-width="0.75" stroke-linecap="round" stroke-linejoin="round"/>
<path d="M1012.16 464.793C1012.62 468.348 1025.3 464.793 1025.79 462.699C1026.44 459.858 1011.37 458.527 1012.16 464.793Z" fill="#D39933"/>
<path d="M1005.1 467.991C1006.73 470.897 995.359 475.02 993.735 473.656C991.851 471.871 1002.44 462.861 1005.1 467.991Z" fill="#D39933"/>
<path d="M1019.59 497.438C1021.66 496.608 1023.55 495.366 1025.13 493.787C1026.71 492.207 1027.96 490.324 1028.79 488.25C1028.79 488.25 1033.01 495.62 1028.03 499.435C1024.21 502.341 1019.59 497.438 1019.59 497.438Z" fill="white" stroke="#EF8A66" stroke-width="0.75" stroke-linecap="round" stroke-linejoin="round"/>
<path d="M1040.26 488.445C1046.32 488.445 1051.23 483.532 1051.23 477.471C1051.23 471.411 1046.32 466.498 1040.26 466.498C1034.19 466.498 1029.28 471.411 1029.28 477.471C1029.28 483.532 1034.19 488.445 1040.26 488.445Z" fill="#F4AF90"/>
<path d="M1010.43 497.584C1010.44 499.161 1010.1 500.721 1009.44 502.154C1008.78 503.587 1007.81 504.859 1006.61 505.879C1002.62 500.062 999.702 493.573 998.006 486.724C998.484 486.652 998.967 486.614 999.451 486.61C1002.36 486.61 1005.15 487.766 1007.21 489.824C1009.27 491.882 1010.43 494.674 1010.43 497.584Z" fill="#F4AF90"/>
</svg>
